<?xml version="1.0" standalone="no"?>
 <!DOCTYPE svg PUBLIC "-//W3C//DTD SVG 1.1//EN" 
 "http://www.w3.org/Graphics/SVG/1.1/DTD/svg11.dtd"> 
<svg
  xmlns:svg="http://www.w3.org/2000/svg"
  xmlns="http://www.w3.org/2000/svg"
  xmlns:xlink="http://www.w3.org/1999/xlink"
  version="1.1"
  width="29.700220cm" height="21.000720cm" viewBox="0 0 116930 82680">
<title>SVG Picture created as capacitive-half-wave-rectification-pre-zener.svg date 2021/05/11 15:55:25 </title>
  <desc>Picture generated by Eeschema-SVG </desc>
<g style="fill:#000000; fill-opacity:1.000000;stroke:#000000; stroke-opacity:1.000000;
stroke-linecap:round; stroke-linejoin:round;"
 transform="translate(0 0) scale(1 1)">
</g>
<g style="fill:#000000; fill-opacity:0.0; 
stroke:#000000; stroke-width:60.000000; stroke-opacity:1; 
stroke-linecap:round; stroke-linejoin:round;">
<g >
</g>
<g style="fill:#840000; fill-opacity:0.0; 
stroke:#840000; stroke-width:60.000000; stroke-opacity:1; 
stroke-linecap:round; stroke-linejoin:round;">
<path style="fill:#840000; fill-opacity:0.0; 
stroke:#840000; stroke-width:60.000000; stroke-opacity:1; 
stroke-linecap:round; stroke-linejoin:round;fill:none"
d="M 60000.000000,34000.000000
60000.000000,33000.000000
" /> 
<path style="fill:#840000; fill-opacity:0.0; 
stroke:#840000; stroke-width:60.000000; stroke-opacity:1; 
stroke-linecap:round; stroke-linejoin:round;fill:none"
d="M 59600.000000,33200.000000
60400.000000,33200.000000
" /> 
</g>
<g style="fill:#840000; fill-opacity:1.0; 
stroke:#840000; stroke-width:60.000000; stroke-opacity:1; 
stroke-linecap:round; stroke-linejoin:round;">
<path style="fill:#840000; fill-opacity:1.0; 
stroke:#840000; stroke-width:60.000000; stroke-opacity:1; 
stroke-linecap:round; stroke-linejoin:round;fill-rule:evenodd;"
d="M 59600.000000,33800.000000
60400.000000,33800.000000
60000.000000,33200.000000
Z" /> 
</g>
<g style="fill:#840000; fill-opacity:0.0; 
stroke:#840000; stroke-width:60.000000; stroke-opacity:1; 
stroke-linecap:round; stroke-linejoin:round;">
<path d="M60000 34000
L60000 34000
" />
<g transform="rotate(-90.000000 59900.000000 34000.000000)">
<text x="59900.000000" y="34000.000000"
textLength="155.236220" font-size="133.307087" lengthAdjust="spacingAndGlyphs"
text-anchor="middle" opacity="0">1</text>
</g>
<g class="stroked-text"><desc>1</desc>
<path d="M59895 33971
L59895 34028
" />
<path d="M59895 34000
L59795 34000
L59809 34009
L59819 34019
L59823 34028
" />
</g><path d="M60000 33000
L60000 33000
" />
<g transform="rotate(-90.000000 59900.000000 33000.000000)">
<text x="59900.000000" y="33000.000000"
textLength="155.236220" font-size="133.307087" lengthAdjust="spacingAndGlyphs"
text-anchor="middle" opacity="0">2</text>
</g>
<g class="stroked-text"><desc>2</desc>
<path d="M59804 33028
L59800 33023
L59795 33014
L59795 32990
L59800 32980
L59804 32976
L59814 32971
L59823 32971
L59838 32976
L59895 33033
L59895 32971
" />
</g></g>
<g style="fill:#008484; fill-opacity:0.0; 
stroke:#008484; stroke-width:60.000000; stroke-opacity:1; 
stroke-linecap:round; stroke-linejoin:round;">
<text x="61639.803150" y="33529.960630"
textLength="1917.125984" font-size="666.653543" lengthAdjust="spacingAndGlyphs"
text-anchor="middle" opacity="0">XDz1</text>
<g class="stroked-text"><desc>XDz1</desc>
<path d="M60782 33006
L61115 33506
" />
<path d="M61115 33006
L60782 33506
" />
<path d="M61306 33506
L61306 33006
L61425 33006
L61496 33029
L61544 33077
L61568 33125
L61592 33220
L61592 33291
L61568 33387
L61544 33434
L61496 33482
L61425 33506
L61306 33506
" />
<path d="M61758 33172
L62020 33172
L61758 33506
L62020 33506
" />
<path d="M62473 33506
L62187 33506
" />
<path d="M62330 33506
L62330 33006
L62282 33077
L62235 33125
L62187 33148
" />
</g></g>
<g style="fill:#008484; fill-opacity:0.0; 
stroke:#008484; stroke-width:33.346457; stroke-opacity:1; 
stroke-linecap:round; stroke-linejoin:round;">
<text x="61554.409449" y="34049.960630"
textLength="1783.818898" font-size="266.653543" lengthAdjust="spacingAndGlyphs"
text-anchor="middle" opacity="0">d1n5919brl</text>
<g class="stroked-text"><desc>d1n5919brl</desc>
<path d="M60825 34040
L60825 33840
" />
<path d="M60825 34030
L60806 34040
L60768 34040
L60749 34030
L60740 34021
L60730 34002
L60730 33945
L60740 33926
L60749 33916
L60768 33907
L60806 33907
L60825 33916
" />
<path d="M61025 34040
L60911 34040
" />
<path d="M60968 34040
L60968 33840
L60949 33868
L60930 33888
L60911 33897
" />
<path d="M61111 33907
L61111 34040
" />
<path d="M61111 33926
L61121 33916
L61140 33907
L61168 33907
L61187 33916
L61197 33935
L61197 34040
" />
<path d="M61387 33840
L61292 33840
L61282 33935
L61292 33926
L61311 33916
L61359 33916
L61378 33926
L61387 33935
L61397 33954
L61397 34002
L61387 34021
L61378 34030
L61359 34040
L61311 34040
L61292 34030
L61282 34021
" />
<path d="M61492 34040
L61530 34040
L61549 34030
L61559 34021
L61578 33992
L61587 33954
L61587 33878
L61578 33859
L61568 33849
L61549 33840
L61511 33840
L61492 33849
L61482 33859
L61473 33878
L61473 33926
L61482 33945
L61492 33954
L61511 33964
L61549 33964
L61568 33954
L61578 33945
L61587 33926
" />
<path d="M61778 34040
L61663 34040
" />
<path d="M61721 34040
L61721 33840
L61702 33868
L61682 33888
L61663 33897
" />
<path d="M61873 34040
L61911 34040
L61930 34030
L61940 34021
L61959 33992
L61968 33954
L61968 33878
L61959 33859
L61949 33849
L61930 33840
L61892 33840
L61873 33849
L61863 33859
L61854 33878
L61854 33926
L61863 33945
L61873 33954
L61892 33964
L61930 33964
L61949 33954
L61959 33945
L61968 33926
" />
<path d="M62054 34040
L62054 33840
" />
<path d="M62054 33916
L62073 33907
L62111 33907
L62130 33916
L62140 33926
L62149 33945
L62149 34002
L62140 34021
L62130 34030
L62111 34040
L62073 34040
L62054 34030
" />
<path d="M62235 34040
L62235 33907
" />
<path d="M62235 33945
L62244 33926
L62254 33916
L62273 33907
L62292 33907
" />
<path d="M62387 34040
L62368 34030
L62359 34011
L62359 33840
" />
</g></g>
</g>
<g style="fill:#008484; fill-opacity:0.0; 
stroke:#008484; stroke-width:60.000000; stroke-opacity:1; 
stroke-linecap:round; stroke-linejoin:round;">
<g >
</g>
<g style="fill:#840000; fill-opacity:0.0; 
stroke:#840000; stroke-width:60.000000; stroke-opacity:1; 
stroke-linecap:round; stroke-linejoin:round;">
</g>
<g style="fill:#840000; fill-opacity:0.0; 
stroke:#840000; stroke-width:8.346457; stroke-opacity:1; 
stroke-linecap:round; stroke-linejoin:round;">
<rect x="49500.000000" y="28600.000000" width="3000.000000" height="800.000000" rx="0.000000" />
</g>
<g style="fill:#840000; fill-opacity:0.0; 
stroke:#840000; stroke-width:60.000000; stroke-opacity:1; 
stroke-linecap:round; stroke-linejoin:round;">
<path d="M52500 29000
L53000 29000
" />
<text x="52750.000000" y="29200.000000"
textLength="128.582677" font-size="133.307087" lengthAdjust="spacingAndGlyphs"
text-anchor="middle" opacity="0">1</text>
<g class="stroked-text"><desc>1</desc>
<path d="M52778 29195
L52721 29195
" />
<path d="M52750 29195
L52750 29095
L52740 29109
L52730 29119
L52721 29123
" />
</g><path d="M49500 29000
L49000 29000
" />
<text x="49250.000000" y="29200.000000"
textLength="155.236220" font-size="133.307087" lengthAdjust="spacingAndGlyphs"
text-anchor="middle" opacity="0">2</text>
<g class="stroked-text"><desc>2</desc>
<path d="M49221 29104
L49226 29100
L49235 29095
L49259 29095
L49269 29100
L49273 29104
L49278 29114
L49278 29123
L49273 29138
L49216 29195
L49278 29195
" />
</g></g>
<g style="fill:#008484; fill-opacity:0.0; 
stroke:#008484; stroke-width:60.000000; stroke-opacity:1; 
stroke-linecap:round; stroke-linejoin:round;">
<text x="51000.000000" y="27200.000000"
textLength="1726.653543" font-size="666.653543" lengthAdjust="spacingAndGlyphs"
text-anchor="middle" opacity="0">Rin1</text>
<g class="stroked-text"><desc>Rin1</desc>
<path d="M50571 27176
L50404 26938
" />
<path d="M50285 27176
L50285 26676
L50476 26676
L50523 26700
L50547 26723
L50571 26771
L50571 26842
L50547 26890
L50523 26914
L50476 26938
L50285 26938
" />
<path d="M50785 27176
L50785 26842
" />
<path d="M50785 26676
L50761 26700
L50785 26723
L50809 26700
L50785 26676
L50785 26723
" />
<path d="M51023 26842
L51023 27176
" />
<path d="M51023 26890
L51047 26866
L51095 26842
L51166 26842
L51214 26866
L51238 26914
L51238 27176
" />
<path d="M51738 27176
L51452 27176
" />
<path d="M51595 27176
L51595 26676
L51547 26747
L51500 26795
L51452 26819
" />
</g><text x="51000.000000" y="28110.000000"
textLength="1012.362205" font-size="666.653543" lengthAdjust="spacingAndGlyphs"
text-anchor="middle" opacity="0">94</text>
<g class="stroked-text"><desc>94</desc>
<path d="M50666 28086
L50761 28086
L50809 28062
L50833 28038
L50880 27967
L50904 27871
L50904 27681
L50880 27633
L50857 27610
L50809 27586
L50714 27586
L50666 27610
L50642 27633
L50619 27681
L50619 27800
L50642 27848
L50666 27871
L50714 27895
L50809 27895
L50857 27871
L50880 27848
L50904 27800
" />
<path d="M51333 27752
L51333 28086
" />
<path d="M51214 27562
L51095 27919
L51404 27919
" />
</g></g>
</g>
<g style="fill:#008484; fill-opacity:0.0; 
stroke:#008484; stroke-width:60.000000; stroke-opacity:1; 
stroke-linecap:round; stroke-linejoin:round;">
<g >
</g>
<g style="fill:#840000; fill-opacity:0.0; 
stroke:#840000; stroke-width:60.000000; stroke-opacity:1; 
stroke-linecap:round; stroke-linejoin:round;">
</g>
<g style="fill:#840000; fill-opacity:0.0; 
stroke:#840000; stroke-width:8.346457; stroke-opacity:1; 
stroke-linecap:round; stroke-linejoin:round;">
<rect x="68600.000000" y="32000.000000" width="800.000000" height="3000.000000" rx="0.000000" />
</g>
<g style="fill:#840000; fill-opacity:0.0; 
stroke:#840000; stroke-width:60.000000; stroke-opacity:1; 
stroke-linecap:round; stroke-linejoin:round;">
<path d="M69000 35000
L69000 35500
" />
<g transform="rotate(-90.000000 69100.000000 35250.000000)">
<text x="69100.000000" y="35350.000000"
textLength="155.236220" font-size="133.307087" lengthAdjust="spacingAndGlyphs"
text-anchor="middle" opacity="0">1</text>
</g>
<g class="stroked-text"><desc>1</desc>
<path d="M69195 35221
L69195 35278
" />
<path d="M69195 35250
L69095 35250
L69109 35259
L69119 35269
L69123 35278
" />
</g><path d="M69000 32000
L69000 31500
" />
<g transform="rotate(-90.000000 69100.000000 31750.000000)">
<text x="69100.000000" y="31850.000000"
textLength="155.236220" font-size="133.307087" lengthAdjust="spacingAndGlyphs"
text-anchor="middle" opacity="0">2</text>
</g>
<g class="stroked-text"><desc>2</desc>
<path d="M69104 31778
L69100 31773
L69095 31764
L69095 31740
L69100 31730
L69104 31726
L69114 31721
L69123 31721
L69138 31726
L69195 31783
L69195 31721
" />
</g></g>
<g style="fill:#008484; fill-opacity:0.0; 
stroke:#008484; stroke-width:60.000000; stroke-opacity:1; 
stroke-linecap:round; stroke-linejoin:round;">
<text x="71008.858268" y="33289.960630"
textLength="2655.236220" font-size="666.653543" lengthAdjust="spacingAndGlyphs"
text-anchor="middle" opacity="0">Rload1</text>
<g class="stroked-text"><desc>Rload1</desc>
<path d="M70115 33266
L69949 33028
" />
<path d="M69830 33266
L69830 32766
L70020 32766
L70068 32789
L70092 32813
L70115 32861
L70115 32932
L70092 32980
L70068 33004
L70020 33028
L69830 33028
" />
<path d="M70401 33266
L70354 33242
L70330 33194
L70330 32766
" />
<path d="M70663 33266
L70615 33242
L70592 33218
L70568 33170
L70568 33028
L70592 32980
L70615 32956
L70663 32932
L70735 32932
L70782 32956
L70806 32980
L70830 33028
L70830 33170
L70806 33218
L70782 33242
L70735 33266
L70663 33266
" />
<path d="M71258 33266
L71258 33004
L71235 32956
L71187 32932
L71092 32932
L71044 32956
" />
<path d="M71258 33242
L71211 33266
L71092 33266
L71044 33242
L71020 33194
L71020 33147
L71044 33099
L71092 33075
L71211 33075
L71258 33051
" />
<path d="M71711 33266
L71711 32766
" />
<path d="M71711 33242
L71663 33266
L71568 33266
L71520 33242
L71496 33218
L71473 33170
L71473 33028
L71496 32980
L71520 32956
L71568 32932
L71663 32932
L71711 32956
" />
<path d="M72211 33266
L71925 33266
" />
<path d="M72068 33266
L72068 32766
L72020 32837
L71973 32885
L71925 32908
" />
</g><text x="70151.732283" y="34199.960630"
textLength="940.944882" font-size="666.653543" lengthAdjust="spacingAndGlyphs"
text-anchor="middle" opacity="0">1k</text>
<g class="stroked-text"><desc>1k</desc>
<path d="M70092 34176
L69806 34176
" />
<path d="M69949 34176
L69949 33676
L69901 33747
L69854 33795
L69806 33818
" />
<path d="M70306 34176
L70306 33676
" />
<path d="M70354 33985
L70496 34176
" />
<path d="M70496 33842
L70306 34033
" />
</g></g>
</g>
<g style="fill:#008484; fill-opacity:0.0; 
stroke:#008484; stroke-width:60.000000; stroke-opacity:1; 
stroke-linecap:round; stroke-linejoin:round;">
<g >
</g>
<g style="fill:#840000; fill-opacity:0.0; 
stroke:#840000; stroke-width:60.000000; stroke-opacity:1; 
stroke-linecap:round; stroke-linejoin:round;">
<path style="fill:#840000; fill-opacity:0.0; 
stroke:#840000; stroke-width:60.000000; stroke-opacity:1; 
stroke-linecap:round; stroke-linejoin:round;fill:none"
d="M 64500.000000,33250.000000
62500.000000,33250.000000
" /> 
<path style="fill:#840000; fill-opacity:0.0; 
stroke:#840000; stroke-width:60.000000; stroke-opacity:1; 
stroke-linecap:round; stroke-linejoin:round;fill:none"
d="M 64500.000000,33750.000000
62500.000000,33750.000000
" /> 
<path d="M63500 33750
L63500 34500
" />
<g transform="rotate(-90.000000 63400.000000 34125.000000)">
<text x="63400.000000" y="34125.000000"
textLength="155.236220" font-size="133.307087" lengthAdjust="spacingAndGlyphs"
text-anchor="middle" opacity="0">1</text>
</g>
<g class="stroked-text"><desc>1</desc>
<path d="M63395 34096
L63395 34153
" />
<path d="M63395 34125
L63295 34125
L63309 34134
L63319 34144
L63323 34153
" />
</g><path d="M63500 33250
L63500 32500
" />
<g transform="rotate(-90.000000 63400.000000 32875.000000)">
<text x="63400.000000" y="32875.000000"
textLength="155.236220" font-size="133.307087" lengthAdjust="spacingAndGlyphs"
text-anchor="middle" opacity="0">2</text>
</g>
<g class="stroked-text"><desc>2</desc>
<path d="M63304 32903
L63300 32898
L63295 32889
L63295 32865
L63300 32855
L63304 32851
L63314 32846
L63323 32846
L63338 32851
L63395 32908
L63395 32846
" />
</g></g>
<g style="fill:#008484; fill-opacity:0.0; 
stroke:#008484; stroke-width:60.000000; stroke-opacity:1; 
stroke-linecap:round; stroke-linejoin:round;">
<text x="65299.330709" y="33289.960630"
textLength="1036.181102" font-size="666.653543" lengthAdjust="spacingAndGlyphs"
text-anchor="middle" opacity="0">C1</text>
<g class="stroked-text"><desc>C1</desc>
<path d="M65215 33218
L65192 33242
L65120 33266
L65073 33266
L65001 33242
L64954 33194
L64930 33147
L64906 33051
L64906 32980
L64930 32885
L64954 32837
L65001 32789
L65073 32766
L65120 32766
L65192 32789
L65215 32813
" />
<path d="M65692 33266
L65406 33266
" />
<path d="M65549 33266
L65549 32766
L65501 32837
L65454 32885
L65406 32908
" />
</g><text x="65751.732283" y="34199.960630"
textLength="1940.944882" font-size="666.653543" lengthAdjust="spacingAndGlyphs"
text-anchor="middle" opacity="0">250u</text>
<g class="stroked-text"><desc>250u</desc>
<path d="M64906 33723
L64930 33699
L64977 33676
L65096 33676
L65144 33699
L65168 33723
L65192 33771
L65192 33818
L65168 33890
L64882 34176
L65192 34176
" />
<path d="M65644 33676
L65406 33676
L65382 33914
L65406 33890
L65454 33866
L65573 33866
L65620 33890
L65644 33914
L65668 33961
L65668 34080
L65644 34128
L65620 34152
L65573 34176
L65454 34176
L65406 34152
L65382 34128
" />
<path d="M65977 33676
L66025 33676
L66073 33699
L66096 33723
L66120 33771
L66144 33866
L66144 33985
L66120 34080
L66096 34128
L66073 34152
L66025 34176
L65977 34176
L65930 34152
L65906 34128
L65882 34080
L65858 33985
L65858 33866
L65882 33771
L65906 33723
L65930 33699
L65977 33676
" />
<path d="M66573 33842
L66573 34176
" />
<path d="M66358 33842
L66358 34104
L66382 34152
L66430 34176
L66501 34176
L66549 34152
L66573 34128
" />
</g></g>
</g>
<g style="fill:#008484; fill-opacity:0.0; 
stroke:#008484; stroke-width:60.000000; stroke-opacity:1; 
stroke-linecap:round; stroke-linejoin:round;">
<g >
</g>
<g style="fill:#840000; fill-opacity:0.0; 
stroke:#840000; stroke-width:60.000000; stroke-opacity:1; 
stroke-linecap:round; stroke-linejoin:round;">
<path style="fill:#840000; fill-opacity:0.0; 
stroke:#840000; stroke-width:60.000000; stroke-opacity:1; 
stroke-linecap:round; stroke-linejoin:round;fill:none"
d="M 55500.000000,32000.000000
54500.000000,32000.000000
" /> 
<path style="fill:#840000; fill-opacity:0.0; 
stroke:#840000; stroke-width:60.000000; stroke-opacity:1; 
stroke-linecap:round; stroke-linejoin:round;fill:none"
d="M 54700.000000,32400.000000
54700.000000,31600.000000
" /> 
</g>
<g style="fill:#840000; fill-opacity:1.0; 
stroke:#840000; stroke-width:60.000000; stroke-opacity:1; 
stroke-linecap:round; stroke-linejoin:round;">
<path style="fill:#840000; fill-opacity:1.0; 
stroke:#840000; stroke-width:60.000000; stroke-opacity:1; 
stroke-linecap:round; stroke-linejoin:round;fill-rule:evenodd;"
d="M 55300.000000,32400.000000
55300.000000,31600.000000
54700.000000,32000.000000
Z" /> 
</g>
<g style="fill:#840000; fill-opacity:0.0; 
stroke:#840000; stroke-width:60.000000; stroke-opacity:1; 
stroke-linecap:round; stroke-linejoin:round;">
<path d="M55500 32000
L55500 32000
" />
<text x="55500.000000" y="31900.000000"
textLength="155.236220" font-size="133.307087" lengthAdjust="spacingAndGlyphs"
text-anchor="middle" opacity="0">1</text>
<g class="stroked-text"><desc>1</desc>
<path d="M55528 31895
L55471 31895
" />
<path d="M55500 31895
L55500 31795
L55490 31809
L55480 31819
L55471 31823
" />
</g><path d="M54500 32000
L54500 32000
" />
<text x="54500.000000" y="31900.000000"
textLength="155.236220" font-size="133.307087" lengthAdjust="spacingAndGlyphs"
text-anchor="middle" opacity="0">2</text>
<g class="stroked-text"><desc>2</desc>
<path d="M54471 31804
L54476 31800
L54485 31795
L54509 31795
L54519 31800
L54523 31804
L54528 31814
L54528 31823
L54523 31838
L54466 31895
L54528 31895
" />
</g></g>
<g style="fill:#008484; fill-opacity:0.0; 
stroke:#008484; stroke-width:60.000000; stroke-opacity:1; 
stroke-linecap:round; stroke-linejoin:round;">
<text x="55000.000000" y="30679.960630"
textLength="1512.362205" font-size="666.653543" lengthAdjust="spacingAndGlyphs"
text-anchor="middle" opacity="0">XD2</text>
<g class="stroked-text"><desc>XD2</desc>
<path d="M54345 30156
L54678 30656
" />
<path d="M54678 30156
L54345 30656
" />
<path d="M54869 30656
L54869 30156
L54988 30156
L55059 30179
L55107 30227
L55130 30275
L55154 30370
L55154 30441
L55130 30537
L55107 30584
L55059 30632
L54988 30656
L54869 30656
" />
<path d="M55345 30203
L55369 30179
L55416 30156
L55535 30156
L55583 30179
L55607 30203
L55630 30251
L55630 30298
L55607 30370
L55321 30656
L55630 30656
" />
</g></g>
<g style="fill:#008484; fill-opacity:0.0; 
stroke:#008484; stroke-width:33.346457; stroke-opacity:1; 
stroke-linecap:round; stroke-linejoin:round;">
<text x="54999.960630" y="31199.960630"
textLength="1221.889764" font-size="266.653543" lengthAdjust="spacingAndGlyphs"
text-anchor="middle" opacity="0">1N4148</text>
<g class="stroked-text"><desc>1N4148</desc>
<path d="M54571 31190
L54457 31190
" />
<path d="M54514 31190
L54514 30990
L54495 31018
L54476 31038
L54457 31047
" />
<path d="M54657 31190
L54657 30990
L54771 31190
L54771 30990
" />
<path d="M54952 31057
L54952 31190
" />
<path d="M54904 30980
L54857 31123
L54980 31123
" />
<path d="M55161 31190
L55047 31190
" />
<path d="M55104 31190
L55104 30990
L55085 31018
L55066 31038
L55047 31047
" />
<path d="M55333 31057
L55333 31190
" />
<path d="M55285 30980
L55238 31123
L55361 31123
" />
<path d="M55466 31076
L55447 31066
L55438 31057
L55428 31038
L55428 31028
L55438 31009
L55447 30999
L55466 30990
L55504 30990
L55523 30999
L55533 31009
L55542 31028
L55542 31038
L55533 31057
L55523 31066
L55504 31076
L55466 31076
L55447 31085
L55438 31095
L55428 31114
L55428 31152
L55438 31171
L55447 31180
L55466 31190
L55504 31190
L55523 31180
L55533 31171
L55542 31152
L55542 31114
L55533 31095
L55523 31085
L55504 31076
" />
</g></g>
</g>
<g style="fill:#008484; fill-opacity:0.0; 
stroke:#008484; stroke-width:60.000000; stroke-opacity:1; 
stroke-linecap:round; stroke-linejoin:round;">
<g >
</g>
<g style="fill:#840000; fill-opacity:0.0; 
stroke:#840000; stroke-width:60.000000; stroke-opacity:1; 
stroke-linecap:round; stroke-linejoin:round;">
<path style="fill:#840000; fill-opacity:0.0; 
stroke:#840000; stroke-width:60.000000; stroke-opacity:1; 
stroke-linecap:round; stroke-linejoin:round;fill:none"
d="M 54500.000000,29000.000000
55500.000000,29000.000000
" /> 
<path style="fill:#840000; fill-opacity:0.0; 
stroke:#840000; stroke-width:60.000000; stroke-opacity:1; 
stroke-linecap:round; stroke-linejoin:round;fill:none"
d="M 55300.000000,28600.000000
55300.000000,29400.000000
" /> 
</g>
<g style="fill:#840000; fill-opacity:1.0; 
stroke:#840000; stroke-width:60.000000; stroke-opacity:1; 
stroke-linecap:round; stroke-linejoin:round;">
<path style="fill:#840000; fill-opacity:1.0; 
stroke:#840000; stroke-width:60.000000; stroke-opacity:1; 
stroke-linecap:round; stroke-linejoin:round;fill-rule:evenodd;"
d="M 54700.000000,28600.000000
54700.000000,29400.000000
55300.000000,29000.000000
Z" /> 
</g>
<g style="fill:#840000; fill-opacity:0.0; 
stroke:#840000; stroke-width:60.000000; stroke-opacity:1; 
stroke-linecap:round; stroke-linejoin:round;">
<path d="M54500 29000
L54500 29000
" />
<text x="54500.000000" y="28900.000000"
textLength="128.582677" font-size="133.307087" lengthAdjust="spacingAndGlyphs"
text-anchor="middle" opacity="0">1</text>
<g class="stroked-text"><desc>1</desc>
<path d="M54528 28895
L54471 28895
" />
<path d="M54500 28895
L54500 28795
L54490 28809
L54480 28819
L54471 28823
" />
</g><path d="M55500 29000
L55500 29000
" />
<text x="55500.000000" y="28900.000000"
textLength="155.236220" font-size="133.307087" lengthAdjust="spacingAndGlyphs"
text-anchor="middle" opacity="0">2</text>
<g class="stroked-text"><desc>2</desc>
<path d="M55471 28804
L55476 28800
L55485 28795
L55509 28795
L55519 28800
L55523 28804
L55528 28814
L55528 28823
L55523 28838
L55466 28895
L55528 28895
" />
</g></g>
<g style="fill:#008484; fill-opacity:0.0; 
stroke:#008484; stroke-width:60.000000; stroke-opacity:1; 
stroke-linecap:round; stroke-linejoin:round;">
<text x="55000.000000" y="27680.000000"
textLength="1512.362205" font-size="666.653543" lengthAdjust="spacingAndGlyphs"
text-anchor="middle" opacity="0">XD1</text>
<g class="stroked-text"><desc>XD1</desc>
<path d="M54345 27156
L54678 27656
" />
<path d="M54678 27156
L54345 27656
" />
<path d="M54869 27656
L54869 27156
L54988 27156
L55059 27180
L55107 27227
L55130 27275
L55154 27370
L55154 27441
L55130 27537
L55107 27584
L55059 27632
L54988 27656
L54869 27656
" />
<path d="M55630 27656
L55345 27656
" />
<path d="M55488 27656
L55488 27156
L55440 27227
L55392 27275
L55345 27299
" />
</g></g>
<g style="fill:#008484; fill-opacity:0.0; 
stroke:#008484; stroke-width:33.346457; stroke-opacity:1; 
stroke-linecap:round; stroke-linejoin:round;">
<text x="55000.000000" y="28200.000000"
textLength="1221.889764" font-size="266.653543" lengthAdjust="spacingAndGlyphs"
text-anchor="middle" opacity="0">1N4148</text>
<g class="stroked-text"><desc>1N4148</desc>
<path d="M54571 28190
L54457 28190
" />
<path d="M54514 28190
L54514 27990
L54495 28019
L54476 28038
L54457 28047
" />
<path d="M54657 28190
L54657 27990
L54771 28190
L54771 27990
" />
<path d="M54952 28057
L54952 28190
" />
<path d="M54904 27980
L54857 28123
L54980 28123
" />
<path d="M55161 28190
L55047 28190
" />
<path d="M55104 28190
L55104 27990
L55085 28019
L55066 28038
L55047 28047
" />
<path d="M55333 28057
L55333 28190
" />
<path d="M55285 27980
L55238 28123
L55361 28123
" />
<path d="M55466 28076
L55447 28066
L55438 28057
L55428 28038
L55428 28028
L55438 28009
L55447 28000
L55466 27990
L55504 27990
L55523 28000
L55533 28009
L55542 28028
L55542 28038
L55533 28057
L55523 28066
L55504 28076
L55466 28076
L55447 28085
L55438 28095
L55428 28114
L55428 28152
L55438 28171
L55447 28180
L55466 28190
L55504 28190
L55523 28180
L55533 28171
L55542 28152
L55542 28114
L55533 28095
L55523 28085
L55504 28076
" />
</g></g>
</g>
<g style="fill:#008484; fill-opacity:0.0; 
stroke:#008484; stroke-width:60.000000; stroke-opacity:1; 
stroke-linecap:round; stroke-linejoin:round;">
<g >
</g>
<g style="fill:#840000; fill-opacity:0.0; 
stroke:#840000; stroke-width:60.000000; stroke-opacity:1; 
stroke-linecap:round; stroke-linejoin:round;">
<path style="fill:#840000; fill-opacity:0.0; 
stroke:#840000; stroke-width:60.000000; stroke-opacity:1; 
stroke-linecap:round; stroke-linejoin:round;fill:none"
d="M 58000.000000,30250.000000
56000.000000,30250.000000
" /> 
<path style="fill:#840000; fill-opacity:0.0; 
stroke:#840000; stroke-width:60.000000; stroke-opacity:1; 
stroke-linecap:round; stroke-linejoin:round;fill:none"
d="M 58000.000000,30750.000000
56000.000000,30750.000000
" /> 
<path d="M57000 30750
L57000 31500
" />
<g transform="rotate(-90.000000 56900.000000 31125.000000)">
<text x="56900.000000" y="31125.000000"
textLength="128.582677" font-size="133.307087" lengthAdjust="spacingAndGlyphs"
text-anchor="middle" opacity="0">1</text>
</g>
<g class="stroked-text"><desc>1</desc>
<path d="M56895 31096
L56895 31153
" />
<path d="M56895 31125
L56795 31125
L56809 31134
L56819 31144
L56823 31153
" />
</g><path d="M57000 30250
L57000 29500
" />
<g transform="rotate(-90.000000 56900.000000 29875.000000)">
<text x="56900.000000" y="29875.000000"
textLength="155.236220" font-size="133.307087" lengthAdjust="spacingAndGlyphs"
text-anchor="middle" opacity="0">2</text>
</g>
<g class="stroked-text"><desc>2</desc>
<path d="M56804 29903
L56800 29898
L56795 29889
L56795 29865
L56800 29855
L56804 29851
L56814 29846
L56823 29846
L56838 29851
L56895 29908
L56895 29846
" />
</g></g>
<g style="fill:#008484; fill-opacity:0.0; 
stroke:#008484; stroke-width:60.000000; stroke-opacity:1; 
stroke-linecap:round; stroke-linejoin:round;">
<text x="58799.330709" y="30289.960630"
textLength="1036.181102" font-size="666.653543" lengthAdjust="spacingAndGlyphs"
text-anchor="middle" opacity="0">C2</text>
<g class="stroked-text"><desc>C2</desc>
<path d="M58715 30218
L58692 30242
L58620 30266
L58573 30266
L58501 30242
L58454 30194
L58430 30147
L58406 30051
L58406 29980
L58430 29885
L58454 29837
L58501 29789
L58573 29766
L58620 29766
L58692 29789
L58715 29813
" />
<path d="M58906 29813
L58930 29789
L58977 29766
L59096 29766
L59144 29789
L59168 29813
L59192 29861
L59192 29908
L59168 29980
L58882 30266
L59192 30266
" />
</g><text x="58561.259843" y="31199.960630"
textLength="560.000000" font-size="666.653543" lengthAdjust="spacingAndGlyphs"
text-anchor="middle" opacity="0">C</text>
<g class="stroked-text"><desc>C</desc>
<path d="M58715 31128
L58692 31152
L58620 31176
L58573 31176
L58501 31152
L58454 31104
L58430 31057
L58406 30961
L58406 30890
L58430 30795
L58454 30747
L58501 30699
L58573 30676
L58620 30676
L58692 30699
L58715 30723
" />
</g></g>
</g>
<g style="fill:#008484; fill-opacity:0.0; 
stroke:#008484; stroke-width:60.000000; stroke-opacity:1; 
stroke-linecap:round; stroke-linejoin:round;">
<g >
</g>
<g style="fill:#840000; fill-opacity:0.0; 
stroke:#840000; stroke-width:60.000000; stroke-opacity:1; 
stroke-linecap:round; stroke-linejoin:round;">
<path style="fill:#840000; fill-opacity:0.0; 
stroke:#840000; stroke-width:60.000000; stroke-opacity:1; 
stroke-linecap:round; stroke-linejoin:round;fill:none"
d="M 45750.000000,28000.000000
45750.000000,30000.000000
" /> 
<path style="fill:#840000; fill-opacity:0.0; 
stroke:#840000; stroke-width:60.000000; stroke-opacity:1; 
stroke-linecap:round; stroke-linejoin:round;fill:none"
d="M 46250.000000,28000.000000
46250.000000,30000.000000
" /> 
<path d="M46250 29000
L47000 29000
" />
<text x="46625.000000" y="28900.000000"
textLength="155.236220" font-size="133.307087" lengthAdjust="spacingAndGlyphs"
text-anchor="middle" opacity="0">1</text>
<g class="stroked-text"><desc>1</desc>
<path d="M46653 28895
L46596 28895
" />
<path d="M46625 28895
L46625 28795
L46615 28809
L46605 28819
L46596 28823
" />
</g><path d="M45750 29000
L45000 29000
" />
<text x="45375.000000" y="28900.000000"
textLength="155.236220" font-size="133.307087" lengthAdjust="spacingAndGlyphs"
text-anchor="middle" opacity="0">2</text>
<g class="stroked-text"><desc>2</desc>
<path d="M45346 28804
L45351 28800
L45360 28795
L45384 28795
L45394 28800
L45398 28804
L45403 28814
L45403 28823
L45398 28838
L45341 28895
L45403 28895
" />
</g></g>
<g style="fill:#008484; fill-opacity:0.0; 
stroke:#008484; stroke-width:60.000000; stroke-opacity:1; 
stroke-linecap:round; stroke-linejoin:round;">
<text x="46000.000000" y="26600.000000"
textLength="1726.653543" font-size="666.653543" lengthAdjust="spacingAndGlyphs"
text-anchor="middle" opacity="0">Cin1</text>
<g class="stroked-text"><desc>Cin1</desc>
<path d="M45571 26528
L45547 26552
L45476 26576
L45428 26576
L45357 26552
L45309 26504
L45285 26457
L45261 26361
L45261 26290
L45285 26195
L45309 26147
L45357 26100
L45428 26076
L45476 26076
L45547 26100
L45571 26123
" />
<path d="M45785 26576
L45785 26242
" />
<path d="M45785 26076
L45761 26100
L45785 26123
L45809 26100
L45785 26076
L45785 26123
" />
<path d="M46023 26242
L46023 26576
" />
<path d="M46023 26290
L46047 26266
L46095 26242
L46166 26242
L46214 26266
L46238 26314
L46238 26576
" />
<path d="M46738 26576
L46452 26576
" />
<path d="M46595 26576
L46595 26076
L46547 26147
L46500 26195
L46452 26219
" />
</g><text x="46000.000000" y="27510.000000"
textLength="1940.944882" font-size="666.653543" lengthAdjust="spacingAndGlyphs"
text-anchor="middle" opacity="0">330u</text>
<g class="stroked-text"><desc>330u</desc>
<path d="M45130 26986
L45440 26986
L45273 27176
L45345 27176
L45392 27200
L45416 27224
L45440 27271
L45440 27390
L45416 27438
L45392 27462
L45345 27486
L45202 27486
L45154 27462
L45130 27438
" />
<path d="M45607 26986
L45916 26986
L45750 27176
L45821 27176
L45869 27200
L45892 27224
L45916 27271
L45916 27390
L45892 27438
L45869 27462
L45821 27486
L45678 27486
L45630 27462
L45607 27438
" />
<path d="M46226 26986
L46273 26986
L46321 27010
L46345 27033
L46369 27081
L46392 27176
L46392 27295
L46369 27390
L46345 27438
L46321 27462
L46273 27486
L46226 27486
L46178 27462
L46154 27438
L46130 27390
L46107 27295
L46107 27176
L46130 27081
L46154 27033
L46178 27010
L46226 26986
" />
<path d="M46821 27152
L46821 27486
" />
<path d="M46607 27152
L46607 27414
L46630 27462
L46678 27486
L46750 27486
L46797 27462
L46821 27438
" />
</g></g>
</g>
<g style="fill:#008484; fill-opacity:0.0; 
stroke:#008484; stroke-width:60.000000; stroke-opacity:1; 
stroke-linecap:round; stroke-linejoin:round;">
<g >
</g>
<g style="fill:#840000; fill-opacity:0.0; 
stroke:#840000; stroke-width:60.000000; stroke-opacity:1; 
stroke-linecap:round; stroke-linejoin:round;">
</g>
<g style="fill:#840000; fill-opacity:0.0; 
stroke:#840000; stroke-width:8.346457; stroke-opacity:1; 
stroke-linecap:round; stroke-linejoin:round;">
<circle cx="42000.000000" cy="33500.000000" r="360.000000" /> 
</g>
<g style="fill:#840000; fill-opacity:0.0; 
stroke:#840000; stroke-width:25.000000; stroke-opacity:1; 
stroke-linecap:round; stroke-linejoin:round;">
<text x="42000.000000" y="33400.039370"
textLength="307.637795" font-size="266.653543" lengthAdjust="spacingAndGlyphs"
text-anchor="middle" opacity="0">+</text>
<g class="stroked-text"><desc>+</desc>
<path d="M41923 33314
L42076 33314
" />
<path d="M42000 33390
L42000 33238
" />
</g><text x="42000.000000" y="33800.039370"
textLength="272.637795" font-size="266.653543" lengthAdjust="spacingAndGlyphs"
text-anchor="middle" opacity="0">-</text>
<g class="stroked-text"><desc>-</desc>
<path d="M41923 33714
L42076 33714
" />
</g></g>
<g style="fill:#840000; fill-opacity:0.0; 
stroke:#840000; stroke-width:60.000000; stroke-opacity:1; 
stroke-linecap:round; stroke-linejoin:round;">
<path d="M42000 33100
L42000 33000
" />
<path d="M42000 33900
L42000 34000
" />
</g>
<g style="fill:#008484; fill-opacity:0.0; 
stroke:#008484; stroke-width:60.000000; stroke-opacity:1; 
stroke-linecap:round; stroke-linejoin:round;">
<text x="43748.937008" y="33590.000000"
textLength="2167.874016" font-size="800.000000" lengthAdjust="spacingAndGlyphs"
text-anchor="middle" opacity="0">Vac1</text>
<g class="stroked-text"><desc>Vac1</desc>
<path d="M42734 32961
L42934 33561
L43134 32961
" />
<path d="M43591 33561
L43591 33247
L43563 33190
L43506 33161
L43391 33161
L43334 33190
" />
<path d="M43591 33532
L43534 33561
L43391 33561
L43334 33532
L43306 33475
L43306 33418
L43334 33361
L43391 33332
L43534 33332
L43591 33304
" />
<path d="M44134 33532
L44077 33561
L43963 33561
L43906 33532
L43877 33504
L43848 33447
L43848 33275
L43877 33218
L43906 33190
L43963 33161
L44077 33161
L44134 33190
" />
<path d="M44706 33561
L44363 33561
" />
<path d="M44534 33561
L44534 32961
L44477 33047
L44420 33104
L44363 33132
" />
</g></g>
<g style="fill:#008484; fill-opacity:0.0; 
stroke:#008484; stroke-width:33.346457; stroke-opacity:1; 
stroke-linecap:round; stroke-linejoin:round;">
<text x="42966.771654" y="34130.000000"
textLength="688.582677" font-size="266.653543" lengthAdjust="spacingAndGlyphs"
text-anchor="middle" opacity="0">Vsrc</text>
<g class="stroked-text"><desc>Vsrc</desc>
<path d="M42671 33920
L42738 34120
L42804 33920
" />
<path d="M42862 34110
L42881 34120
L42919 34120
L42938 34110
L42947 34091
L42947 34082
L42938 34063
L42919 34053
L42890 34053
L42871 34044
L42862 34025
L42862 34015
L42871 33996
L42890 33987
L42919 33987
L42938 33996
" />
<path d="M43033 34120
L43033 33987
" />
<path d="M43033 34025
L43042 34006
L43052 33996
L43071 33987
L43090 33987
" />
<path d="M43242 34110
L43223 34120
L43185 34120
L43166 34110
L43157 34101
L43147 34082
L43147 34025
L43157 34006
L43166 33996
L43185 33987
L43223 33987
L43242 33996
" />
</g></g>
</g>
<g style="fill:#008484; fill-opacity:0.0; 
stroke:#008484; stroke-width:60.000000; stroke-opacity:1; 
stroke-linecap:round; stroke-linejoin:round;">
<g >
</g>
<g style="fill:#840000; fill-opacity:0.0; 
stroke:#840000; stroke-width:60.000000; stroke-opacity:1; 
stroke-linecap:round; stroke-linejoin:round;">
</g>
<g style="fill:#840000; fill-opacity:0.0; 
stroke:#840000; stroke-width:8.346457; stroke-opacity:1; 
stroke-linecap:round; stroke-linejoin:round;">
<rect x="44500.000000" y="30600.000000" width="3000.000000" height="800.000000" rx="0.000000" />
</g>
<g style="fill:#840000; fill-opacity:0.0; 
stroke:#840000; stroke-width:60.000000; stroke-opacity:1; 
stroke-linecap:round; stroke-linejoin:round;">
<path d="M47500 31000
L48000 31000
" />
<text x="47750.000000" y="31200.000000"
textLength="128.582677" font-size="133.307087" lengthAdjust="spacingAndGlyphs"
text-anchor="middle" opacity="0">1</text>
<g class="stroked-text"><desc>1</desc>
<path d="M47778 31195
L47721 31195
" />
<path d="M47750 31195
L47750 31095
L47740 31109
L47730 31119
L47721 31123
" />
</g><path d="M44500 31000
L44000 31000
" />
<text x="44250.000000" y="31200.000000"
textLength="155.236220" font-size="133.307087" lengthAdjust="spacingAndGlyphs"
text-anchor="middle" opacity="0">2</text>
<g class="stroked-text"><desc>2</desc>
<path d="M44221 31104
L44226 31100
L44235 31095
L44259 31095
L44269 31100
L44273 31104
L44278 31114
L44278 31123
L44273 31138
L44216 31195
L44278 31195
" />
</g></g>
<g style="fill:#008484; fill-opacity:0.0; 
stroke:#008484; stroke-width:60.000000; stroke-opacity:1; 
stroke-linecap:round; stroke-linejoin:round;">
<text x="46000.000000" y="32749.960630"
textLength="2369.527559" font-size="666.653543" lengthAdjust="spacingAndGlyphs"
text-anchor="middle" opacity="0">Remi1</text>
<g class="stroked-text"><desc>Remi1</desc>
<path d="M45250 32726
L45083 32488
" />
<path d="M44964 32726
L44964 32226
L45154 32226
L45202 32249
L45226 32273
L45250 32321
L45250 32392
L45226 32440
L45202 32464
L45154 32488
L44964 32488
" />
<path d="M45654 32702
L45607 32726
L45511 32726
L45464 32702
L45440 32654
L45440 32464
L45464 32416
L45511 32392
L45607 32392
L45654 32416
L45678 32464
L45678 32511
L45440 32559
" />
<path d="M45892 32726
L45892 32392
" />
<path d="M45892 32440
L45916 32416
L45964 32392
L46035 32392
L46083 32416
L46107 32464
L46107 32726
" />
<path d="M46107 32464
L46130 32416
L46178 32392
L46250 32392
L46297 32416
L46321 32464
L46321 32726
" />
<path d="M46559 32726
L46559 32392
" />
<path d="M46559 32226
L46535 32249
L46559 32273
L46583 32249
L46559 32226
L46559 32273
" />
<path d="M47059 32726
L46773 32726
" />
<path d="M46916 32726
L46916 32226
L46869 32297
L46821 32345
L46773 32368
" />
</g><text x="46000.000000" y="33749.960630"
textLength="1893.346457" font-size="666.653543" lengthAdjust="spacingAndGlyphs"
text-anchor="middle" opacity="0">165k</text>
<g class="stroked-text"><desc>165k</desc>
<path d="M45464 33726
L45178 33726
" />
<path d="M45321 33726
L45321 33226
L45273 33297
L45226 33345
L45178 33368
" />
<path d="M45892 33226
L45797 33226
L45750 33249
L45726 33273
L45678 33345
L45654 33440
L45654 33630
L45678 33678
L45702 33702
L45750 33726
L45845 33726
L45892 33702
L45916 33678
L45940 33630
L45940 33511
L45916 33464
L45892 33440
L45845 33416
L45750 33416
L45702 33440
L45678 33464
L45654 33511
" />
<path d="M46392 33226
L46154 33226
L46130 33464
L46154 33440
L46202 33416
L46321 33416
L46369 33440
L46392 33464
L46416 33511
L46416 33630
L46392 33678
L46369 33702
L46321 33726
L46202 33726
L46154 33702
L46130 33678
" />
<path d="M46630 33726
L46630 33226
" />
<path d="M46678 33535
L46821 33726
" />
<path d="M46821 33392
L46630 33583
" />
</g></g>
</g>
<g style="fill:#008484; fill-opacity:0.0; 
stroke:#008484; stroke-width:60.000000; stroke-opacity:1; 
stroke-linecap:round; stroke-linejoin:round;">
<g >
</g>
<g style="fill:#840000; fill-opacity:0.0; 
stroke:#840000; stroke-width:60.000000; stroke-opacity:1; 
stroke-linecap:round; stroke-linejoin:round;">
</g>
<g style="fill:#840000; fill-opacity:0.0; 
stroke:#840000; stroke-width:8.346457; stroke-opacity:1; 
stroke-linecap:round; stroke-linejoin:round;">
<rect x="56600.000000" y="33500.000000" width="800.000000" height="3000.000000" rx="0.000000" />
</g>
<g style="fill:#840000; fill-opacity:0.0; 
stroke:#840000; stroke-width:60.000000; stroke-opacity:1; 
stroke-linecap:round; stroke-linejoin:round;">
<path d="M57000 36500
L57000 37000
" />
<g transform="rotate(-90.000000 57100.000000 36750.000000)">
<text x="57100.000000" y="36850.000000"
textLength="155.236220" font-size="133.307087" lengthAdjust="spacingAndGlyphs"
text-anchor="middle" opacity="0">1</text>
</g>
<g class="stroked-text"><desc>1</desc>
<path d="M57195 36721
L57195 36778
" />
<path d="M57195 36750
L57095 36750
L57109 36759
L57119 36769
L57123 36778
" />
</g><path d="M57000 33500
L57000 33000
" />
<g transform="rotate(-90.000000 57100.000000 33250.000000)">
<text x="57100.000000" y="33350.000000"
textLength="155.236220" font-size="133.307087" lengthAdjust="spacingAndGlyphs"
text-anchor="middle" opacity="0">2</text>
</g>
<g class="stroked-text"><desc>2</desc>
<path d="M57104 33278
L57100 33273
L57095 33264
L57095 33240
L57100 33230
L57104 33226
L57114 33221
L57123 33221
L57138 33226
L57195 33283
L57195 33221
" />
</g></g>
<g style="fill:#008484; fill-opacity:0.0; 
stroke:#008484; stroke-width:60.000000; stroke-opacity:1; 
stroke-linecap:round; stroke-linejoin:round;">
<text x="58199.330709" y="34789.960630"
textLength="1036.181102" font-size="666.653543" lengthAdjust="spacingAndGlyphs"
text-anchor="middle" opacity="0">R2</text>
<g class="stroked-text"><desc>R2</desc>
<path d="M58115 34766
L57949 34528
" />
<path d="M57830 34766
L57830 34266
L58020 34266
L58068 34289
L58092 34313
L58115 34361
L58115 34432
L58092 34480
L58068 34504
L58020 34528
L57830 34528
" />
<path d="M58306 34313
L58330 34289
L58377 34266
L58496 34266
L58544 34289
L58568 34313
L58592 34361
L58592 34408
L58568 34480
L58282 34766
L58592 34766
" />
</g><text x="58151.732283" y="35699.960630"
textLength="940.944882" font-size="666.653543" lengthAdjust="spacingAndGlyphs"
text-anchor="middle" opacity="0">1k</text>
<g class="stroked-text"><desc>1k</desc>
<path d="M58092 35676
L57806 35676
" />
<path d="M57949 35676
L57949 35176
L57901 35247
L57854 35295
L57806 35318
" />
<path d="M58306 35676
L58306 35176
" />
<path d="M58354 35485
L58496 35676
" />
<path d="M58496 35342
L58306 35533
" />
</g></g>
</g>
<g style="fill:#008484; fill-opacity:0.0; 
stroke:#008484; stroke-width:60.000000; stroke-opacity:1; 
stroke-linecap:round; stroke-linejoin:round;">
</g>
<g style="fill:#008400; fill-opacity:0.0; 
stroke:#008400; stroke-width:60.000000; stroke-opacity:1; 
stroke-linecap:round; stroke-linejoin:round;">
<path d="M63500 32500
L63500 29000
" />
<path d="M57000 31500
L57000 32000
" />
<path d="M60000 38000
L63500 38000
" />
<path d="M60000 34000
L60000 38000
" />
<path d="M57000 38000
L60000 38000
" />
<path d="M60000 29000
L63500 29000
" />
<path d="M60000 29000
L60000 33000
" />
<path d="M57000 29000
L60000 29000
" />
<path d="M69000 38000
L69000 35500
" />
<path d="M63500 34500
L63500 38000
" />
<path d="M63500 38000
L69000 38000
" />
<path d="M69000 29000
L69000 31500
" />
<path d="M53500 29000
L54500 29000
" />
<path d="M53500 32000
L53500 29000
" />
<path d="M44000 29000
L42000 29000
" />
<path d="M45000 29000
L44000 29000
" />
<path d="M44000 31000
L44000 29000
" />
<path d="M47000 29000
L48000 29000
" />
<path d="M48000 29000
L49000 29000
" />
<path d="M48000 29000
L48000 31000
" />
<path d="M57000 29000
L57000 29500
" />
<path d="M55500 29000
L57000 29000
" />
<path d="M63500 29000
L69000 29000
" />
<path d="M54500 32000
L53500 32000
" />
<path d="M57000 32000
L57000 33000
" />
<path d="M55500 32000
L57000 32000
" />
<path d="M57000 37000
L57000 38000
" />
<path d="M57000 38000
L42000 38000
" />
<path d="M42000 38000
L42000 34000
" />
<path d="M42000 29000
L42000 33000
" />
<path d="M53000 29000
L53500 29000
" />
</g>
<g style="fill:#008400; fill-opacity:1.0; 
stroke:#008400; stroke-width:60.000000; stroke-opacity:1; 
stroke-linecap:round; stroke-linejoin:round;">
<circle cx="44000.000000" cy="29000.000000" r="200.000000" /> 
<circle cx="48000.000000" cy="29000.000000" r="200.000000" /> 
<circle cx="57000.000000" cy="38000.000000" r="200.000000" /> 
<circle cx="57000.000000" cy="32000.000000" r="200.000000" /> 
<circle cx="53500.000000" cy="29000.000000" r="200.000000" /> 
<circle cx="63500.000000" cy="29000.000000" r="200.000000" /> 
<circle cx="60000.000000" cy="29000.000000" r="200.000000" /> 
<circle cx="57000.000000" cy="29000.000000" r="200.000000" /> 
<circle cx="60000.000000" cy="38000.000000" r="200.000000" /> 
<circle cx="63500.000000" cy="38000.000000" r="200.000000" /> 
</g> 
</svg>
