<?xml version="1.0" encoding="utf-8" standalone="no"?>
<!DOCTYPE svg PUBLIC "-//W3C//DTD SVG 1.1//EN"
  "http://www.w3.org/Graphics/SVG/1.1/DTD/svg11.dtd">
<svg height="694.8pt" version="1.1" viewBox="0 0 1382.4 694.8" width="1382.4pt" xmlns="http://www.w3.org/2000/svg" xmlns:xlink="http://www.w3.org/1999/xlink">
 <metadata>
  <rdf:RDF xmlns:cc="http://creativecommons.org/ns#" xmlns:dc="http://purl.org/dc/elements/1.1/" xmlns:rdf="http://www.w3.org/1999/02/22-rdf-syntax-ns#">
   <cc:Work>
    <dc:type rdf:resource="http://purl.org/dc/dcmitype/StillImage"/>
    <dc:date>2021-05-18T15:11:59.218754</dc:date>
    <dc:format>image/svg+xml</dc:format>
    <dc:creator>
     <cc:Agent>
      <dc:title>Matplotlib v3.4.2, https://matplotlib.org/</dc:title>
     </cc:Agent>
    </dc:creator>
   </cc:Work>
  </rdf:RDF>
 </metadata>
 <defs>
  <style type="text/css">*{stroke-linecap:butt;stroke-linejoin:round;}</style>
 </defs>
 <g id="figure_1">
  <g id="patch_1">
   <path d="M 0 694.8 
L 1382.4 694.8 
L 1382.4 0 
L 0 0 
z
" style="fill:#ffffff;"/>
  </g>
  <g id="axes_1">
   <g id="patch_2">
    <path d="M 50.8224 654.3086 
L 1372.032 654.3086 
L 1372.032 25.9392 
L 50.8224 25.9392 
z
" style="fill:#ffffff;"/>
   </g>
   <g id="matplotlib.axis_1">
    <g id="xtick_1">
     <g id="line2d_1">
      <path clip-path="url(#p10735cb103)" d="M 90.210747 654.3086 
L 90.210747 25.9392 
" style="fill:none;stroke:#b0b0b0;stroke-linecap:square;stroke-width:0.8;"/>
     </g>
     <g id="line2d_2">
      <defs>
       <path d="M 0 0 
L 0 3.5 
" id="m664becdce0" style="stroke:#000000;stroke-width:0.8;"/>
      </defs>
      <g>
       <use style="stroke:#000000;stroke-width:0.8;" x="90.210747" xlink:href="#m664becdce0" y="654.3086"/>
      </g>
     </g>
     <g id="text_1">
      <!-- 0 -->
      <g transform="translate(87.029497 668.907038)scale(0.1 -0.1)">
       <defs>
        <path d="M 2034 4250 
Q 1547 4250 1301 3770 
Q 1056 3291 1056 2328 
Q 1056 1369 1301 889 
Q 1547 409 2034 409 
Q 2525 409 2770 889 
Q 3016 1369 3016 2328 
Q 3016 3291 2770 3770 
Q 2525 4250 2034 4250 
z
M 2034 4750 
Q 2819 4750 3233 4129 
Q 3647 3509 3647 2328 
Q 3647 1150 3233 529 
Q 2819 -91 2034 -91 
Q 1250 -91 836 529 
Q 422 1150 422 2328 
Q 422 3509 836 4129 
Q 1250 4750 2034 4750 
z
" id="DejaVuSans-30" transform="scale(0.015625)"/>
       </defs>
       <use xlink:href="#DejaVuSans-30"/>
      </g>
     </g>
    </g>
    <g id="xtick_2">
     <g id="line2d_3">
      <path clip-path="url(#p10735cb103)" d="M 255.706531 654.3086 
L 255.706531 25.9392 
" style="fill:none;stroke:#b0b0b0;stroke-linecap:square;stroke-width:0.8;"/>
     </g>
     <g id="line2d_4">
      <g>
       <use style="stroke:#000000;stroke-width:0.8;" x="255.706531" xlink:href="#m664becdce0" y="654.3086"/>
      </g>
     </g>
     <g id="text_2">
      <!-- 100 -->
      <g transform="translate(246.162781 668.907038)scale(0.1 -0.1)">
       <defs>
        <path d="M 794 531 
L 1825 531 
L 1825 4091 
L 703 3866 
L 703 4441 
L 1819 4666 
L 2450 4666 
L 2450 531 
L 3481 531 
L 3481 0 
L 794 0 
L 794 531 
z
" id="DejaVuSans-31" transform="scale(0.015625)"/>
       </defs>
       <use xlink:href="#DejaVuSans-31"/>
       <use x="63.623047" xlink:href="#DejaVuSans-30"/>
       <use x="127.246094" xlink:href="#DejaVuSans-30"/>
      </g>
     </g>
    </g>
    <g id="xtick_3">
     <g id="line2d_5">
      <path clip-path="url(#p10735cb103)" d="M 421.202315 654.3086 
L 421.202315 25.9392 
" style="fill:none;stroke:#b0b0b0;stroke-linecap:square;stroke-width:0.8;"/>
     </g>
     <g id="line2d_6">
      <g>
       <use style="stroke:#000000;stroke-width:0.8;" x="421.202315" xlink:href="#m664becdce0" y="654.3086"/>
      </g>
     </g>
     <g id="text_3">
      <!-- 200 -->
      <g transform="translate(411.658565 668.907038)scale(0.1 -0.1)">
       <defs>
        <path d="M 1228 531 
L 3431 531 
L 3431 0 
L 469 0 
L 469 531 
Q 828 903 1448 1529 
Q 2069 2156 2228 2338 
Q 2531 2678 2651 2914 
Q 2772 3150 2772 3378 
Q 2772 3750 2511 3984 
Q 2250 4219 1831 4219 
Q 1534 4219 1204 4116 
Q 875 4013 500 3803 
L 500 4441 
Q 881 4594 1212 4672 
Q 1544 4750 1819 4750 
Q 2544 4750 2975 4387 
Q 3406 4025 3406 3419 
Q 3406 3131 3298 2873 
Q 3191 2616 2906 2266 
Q 2828 2175 2409 1742 
Q 1991 1309 1228 531 
z
" id="DejaVuSans-32" transform="scale(0.015625)"/>
       </defs>
       <use xlink:href="#DejaVuSans-32"/>
       <use x="63.623047" xlink:href="#DejaVuSans-30"/>
       <use x="127.246094" xlink:href="#DejaVuSans-30"/>
      </g>
     </g>
    </g>
    <g id="xtick_4">
     <g id="line2d_7">
      <path clip-path="url(#p10735cb103)" d="M 586.698099 654.3086 
L 586.698099 25.9392 
" style="fill:none;stroke:#b0b0b0;stroke-linecap:square;stroke-width:0.8;"/>
     </g>
     <g id="line2d_8">
      <g>
       <use style="stroke:#000000;stroke-width:0.8;" x="586.698099" xlink:href="#m664becdce0" y="654.3086"/>
      </g>
     </g>
     <g id="text_4">
      <!-- 300 -->
      <g transform="translate(577.154349 668.907038)scale(0.1 -0.1)">
       <defs>
        <path d="M 2597 2516 
Q 3050 2419 3304 2112 
Q 3559 1806 3559 1356 
Q 3559 666 3084 287 
Q 2609 -91 1734 -91 
Q 1441 -91 1130 -33 
Q 819 25 488 141 
L 488 750 
Q 750 597 1062 519 
Q 1375 441 1716 441 
Q 2309 441 2620 675 
Q 2931 909 2931 1356 
Q 2931 1769 2642 2001 
Q 2353 2234 1838 2234 
L 1294 2234 
L 1294 2753 
L 1863 2753 
Q 2328 2753 2575 2939 
Q 2822 3125 2822 3475 
Q 2822 3834 2567 4026 
Q 2313 4219 1838 4219 
Q 1578 4219 1281 4162 
Q 984 4106 628 3988 
L 628 4550 
Q 988 4650 1302 4700 
Q 1616 4750 1894 4750 
Q 2613 4750 3031 4423 
Q 3450 4097 3450 3541 
Q 3450 3153 3228 2886 
Q 3006 2619 2597 2516 
z
" id="DejaVuSans-33" transform="scale(0.015625)"/>
       </defs>
       <use xlink:href="#DejaVuSans-33"/>
       <use x="63.623047" xlink:href="#DejaVuSans-30"/>
       <use x="127.246094" xlink:href="#DejaVuSans-30"/>
      </g>
     </g>
    </g>
    <g id="xtick_5">
     <g id="line2d_9">
      <path clip-path="url(#p10735cb103)" d="M 752.193883 654.3086 
L 752.193883 25.9392 
" style="fill:none;stroke:#b0b0b0;stroke-linecap:square;stroke-width:0.8;"/>
     </g>
     <g id="line2d_10">
      <g>
       <use style="stroke:#000000;stroke-width:0.8;" x="752.193883" xlink:href="#m664becdce0" y="654.3086"/>
      </g>
     </g>
     <g id="text_5">
      <!-- 400 -->
      <g transform="translate(742.650133 668.907038)scale(0.1 -0.1)">
       <defs>
        <path d="M 2419 4116 
L 825 1625 
L 2419 1625 
L 2419 4116 
z
M 2253 4666 
L 3047 4666 
L 3047 1625 
L 3713 1625 
L 3713 1100 
L 3047 1100 
L 3047 0 
L 2419 0 
L 2419 1100 
L 313 1100 
L 313 1709 
L 2253 4666 
z
" id="DejaVuSans-34" transform="scale(0.015625)"/>
       </defs>
       <use xlink:href="#DejaVuSans-34"/>
       <use x="63.623047" xlink:href="#DejaVuSans-30"/>
       <use x="127.246094" xlink:href="#DejaVuSans-30"/>
      </g>
     </g>
    </g>
    <g id="xtick_6">
     <g id="line2d_11">
      <path clip-path="url(#p10735cb103)" d="M 917.689667 654.3086 
L 917.689667 25.9392 
" style="fill:none;stroke:#b0b0b0;stroke-linecap:square;stroke-width:0.8;"/>
     </g>
     <g id="line2d_12">
      <g>
       <use style="stroke:#000000;stroke-width:0.8;" x="917.689667" xlink:href="#m664becdce0" y="654.3086"/>
      </g>
     </g>
     <g id="text_6">
      <!-- 500 -->
      <g transform="translate(908.145917 668.907038)scale(0.1 -0.1)">
       <defs>
        <path d="M 691 4666 
L 3169 4666 
L 3169 4134 
L 1269 4134 
L 1269 2991 
Q 1406 3038 1543 3061 
Q 1681 3084 1819 3084 
Q 2600 3084 3056 2656 
Q 3513 2228 3513 1497 
Q 3513 744 3044 326 
Q 2575 -91 1722 -91 
Q 1428 -91 1123 -41 
Q 819 9 494 109 
L 494 744 
Q 775 591 1075 516 
Q 1375 441 1709 441 
Q 2250 441 2565 725 
Q 2881 1009 2881 1497 
Q 2881 1984 2565 2268 
Q 2250 2553 1709 2553 
Q 1456 2553 1204 2497 
Q 953 2441 691 2322 
L 691 4666 
z
" id="DejaVuSans-35" transform="scale(0.015625)"/>
       </defs>
       <use xlink:href="#DejaVuSans-35"/>
       <use x="63.623047" xlink:href="#DejaVuSans-30"/>
       <use x="127.246094" xlink:href="#DejaVuSans-30"/>
      </g>
     </g>
    </g>
    <g id="xtick_7">
     <g id="line2d_13">
      <path clip-path="url(#p10735cb103)" d="M 1083.185451 654.3086 
L 1083.185451 25.9392 
" style="fill:none;stroke:#b0b0b0;stroke-linecap:square;stroke-width:0.8;"/>
     </g>
     <g id="line2d_14">
      <g>
       <use style="stroke:#000000;stroke-width:0.8;" x="1083.185451" xlink:href="#m664becdce0" y="654.3086"/>
      </g>
     </g>
     <g id="text_7">
      <!-- 600 -->
      <g transform="translate(1073.641701 668.907038)scale(0.1 -0.1)">
       <defs>
        <path d="M 2113 2584 
Q 1688 2584 1439 2293 
Q 1191 2003 1191 1497 
Q 1191 994 1439 701 
Q 1688 409 2113 409 
Q 2538 409 2786 701 
Q 3034 994 3034 1497 
Q 3034 2003 2786 2293 
Q 2538 2584 2113 2584 
z
M 3366 4563 
L 3366 3988 
Q 3128 4100 2886 4159 
Q 2644 4219 2406 4219 
Q 1781 4219 1451 3797 
Q 1122 3375 1075 2522 
Q 1259 2794 1537 2939 
Q 1816 3084 2150 3084 
Q 2853 3084 3261 2657 
Q 3669 2231 3669 1497 
Q 3669 778 3244 343 
Q 2819 -91 2113 -91 
Q 1303 -91 875 529 
Q 447 1150 447 2328 
Q 447 3434 972 4092 
Q 1497 4750 2381 4750 
Q 2619 4750 2861 4703 
Q 3103 4656 3366 4563 
z
" id="DejaVuSans-36" transform="scale(0.015625)"/>
       </defs>
       <use xlink:href="#DejaVuSans-36"/>
       <use x="63.623047" xlink:href="#DejaVuSans-30"/>
       <use x="127.246094" xlink:href="#DejaVuSans-30"/>
      </g>
     </g>
    </g>
    <g id="xtick_8">
     <g id="line2d_15">
      <path clip-path="url(#p10735cb103)" d="M 1248.681234 654.3086 
L 1248.681234 25.9392 
" style="fill:none;stroke:#b0b0b0;stroke-linecap:square;stroke-width:0.8;"/>
     </g>
     <g id="line2d_16">
      <g>
       <use style="stroke:#000000;stroke-width:0.8;" x="1248.681234" xlink:href="#m664becdce0" y="654.3086"/>
      </g>
     </g>
     <g id="text_8">
      <!-- 700 -->
      <g transform="translate(1239.137484 668.907038)scale(0.1 -0.1)">
       <defs>
        <path d="M 525 4666 
L 3525 4666 
L 3525 4397 
L 1831 0 
L 1172 0 
L 2766 4134 
L 525 4134 
L 525 4666 
z
" id="DejaVuSans-37" transform="scale(0.015625)"/>
       </defs>
       <use xlink:href="#DejaVuSans-37"/>
       <use x="63.623047" xlink:href="#DejaVuSans-30"/>
       <use x="127.246094" xlink:href="#DejaVuSans-30"/>
      </g>
     </g>
    </g>
    <g id="text_9">
     <!-- Time [s] -->
     <g transform="translate(691.098294 682.585163)scale(0.1 -0.1)">
      <defs>
       <path d="M -19 4666 
L 3928 4666 
L 3928 4134 
L 2272 4134 
L 2272 0 
L 1638 0 
L 1638 4134 
L -19 4134 
L -19 4666 
z
" id="DejaVuSans-54" transform="scale(0.015625)"/>
       <path d="M 603 3500 
L 1178 3500 
L 1178 0 
L 603 0 
L 603 3500 
z
M 603 4863 
L 1178 4863 
L 1178 4134 
L 603 4134 
L 603 4863 
z
" id="DejaVuSans-69" transform="scale(0.015625)"/>
       <path d="M 3328 2828 
Q 3544 3216 3844 3400 
Q 4144 3584 4550 3584 
Q 5097 3584 5394 3201 
Q 5691 2819 5691 2113 
L 5691 0 
L 5113 0 
L 5113 2094 
Q 5113 2597 4934 2840 
Q 4756 3084 4391 3084 
Q 3944 3084 3684 2787 
Q 3425 2491 3425 1978 
L 3425 0 
L 2847 0 
L 2847 2094 
Q 2847 2600 2669 2842 
Q 2491 3084 2119 3084 
Q 1678 3084 1418 2786 
Q 1159 2488 1159 1978 
L 1159 0 
L 581 0 
L 581 3500 
L 1159 3500 
L 1159 2956 
Q 1356 3278 1631 3431 
Q 1906 3584 2284 3584 
Q 2666 3584 2933 3390 
Q 3200 3197 3328 2828 
z
" id="DejaVuSans-6d" transform="scale(0.015625)"/>
       <path d="M 3597 1894 
L 3597 1613 
L 953 1613 
Q 991 1019 1311 708 
Q 1631 397 2203 397 
Q 2534 397 2845 478 
Q 3156 559 3463 722 
L 3463 178 
Q 3153 47 2828 -22 
Q 2503 -91 2169 -91 
Q 1331 -91 842 396 
Q 353 884 353 1716 
Q 353 2575 817 3079 
Q 1281 3584 2069 3584 
Q 2775 3584 3186 3129 
Q 3597 2675 3597 1894 
z
M 3022 2063 
Q 3016 2534 2758 2815 
Q 2500 3097 2075 3097 
Q 1594 3097 1305 2825 
Q 1016 2553 972 2059 
L 3022 2063 
z
" id="DejaVuSans-65" transform="scale(0.015625)"/>
       <path id="DejaVuSans-20" transform="scale(0.015625)"/>
       <path d="M 550 4863 
L 1875 4863 
L 1875 4416 
L 1125 4416 
L 1125 -397 
L 1875 -397 
L 1875 -844 
L 550 -844 
L 550 4863 
z
" id="DejaVuSans-5b" transform="scale(0.015625)"/>
       <path d="M 2834 3397 
L 2834 2853 
Q 2591 2978 2328 3040 
Q 2066 3103 1784 3103 
Q 1356 3103 1142 2972 
Q 928 2841 928 2578 
Q 928 2378 1081 2264 
Q 1234 2150 1697 2047 
L 1894 2003 
Q 2506 1872 2764 1633 
Q 3022 1394 3022 966 
Q 3022 478 2636 193 
Q 2250 -91 1575 -91 
Q 1294 -91 989 -36 
Q 684 19 347 128 
L 347 722 
Q 666 556 975 473 
Q 1284 391 1588 391 
Q 1994 391 2212 530 
Q 2431 669 2431 922 
Q 2431 1156 2273 1281 
Q 2116 1406 1581 1522 
L 1381 1569 
Q 847 1681 609 1914 
Q 372 2147 372 2553 
Q 372 3047 722 3315 
Q 1072 3584 1716 3584 
Q 2034 3584 2315 3537 
Q 2597 3491 2834 3397 
z
" id="DejaVuSans-73" transform="scale(0.015625)"/>
       <path d="M 1947 4863 
L 1947 -844 
L 622 -844 
L 622 -397 
L 1369 -397 
L 1369 4416 
L 622 4416 
L 622 4863 
L 1947 4863 
z
" id="DejaVuSans-5d" transform="scale(0.015625)"/>
      </defs>
      <use xlink:href="#DejaVuSans-54"/>
      <use x="57.958984" xlink:href="#DejaVuSans-69"/>
      <use x="85.742188" xlink:href="#DejaVuSans-6d"/>
      <use x="183.154297" xlink:href="#DejaVuSans-65"/>
      <use x="244.677734" xlink:href="#DejaVuSans-20"/>
      <use x="276.464844" xlink:href="#DejaVuSans-5b"/>
      <use x="315.478516" xlink:href="#DejaVuSans-73"/>
      <use x="367.578125" xlink:href="#DejaVuSans-5d"/>
     </g>
    </g>
   </g>
   <g id="matplotlib.axis_2">
    <g id="ytick_1">
     <g id="line2d_17">
      <path clip-path="url(#p10735cb103)" d="M 50.8224 588.267446 
L 1372.032 588.267446 
" style="fill:none;stroke:#b0b0b0;stroke-linecap:square;stroke-width:0.8;"/>
     </g>
     <g id="line2d_18">
      <defs>
       <path d="M 0 0 
L -3.5 0 
" id="mef437365e7" style="stroke:#000000;stroke-width:0.8;"/>
      </defs>
      <g>
       <use style="stroke:#000000;stroke-width:0.8;" x="50.8224" xlink:href="#mef437365e7" y="588.267446"/>
      </g>
     </g>
     <g id="text_10">
      <!-- −25 -->
      <g transform="translate(22.717712 592.066664)scale(0.1 -0.1)">
       <defs>
        <path d="M 678 2272 
L 4684 2272 
L 4684 1741 
L 678 1741 
L 678 2272 
z
" id="DejaVuSans-2212" transform="scale(0.015625)"/>
       </defs>
       <use xlink:href="#DejaVuSans-2212"/>
       <use x="83.789062" xlink:href="#DejaVuSans-32"/>
       <use x="147.412109" xlink:href="#DejaVuSans-35"/>
      </g>
     </g>
    </g>
    <g id="ytick_2">
     <g id="line2d_19">
      <path clip-path="url(#p10735cb103)" d="M 50.8224 510.1663 
L 1372.032 510.1663 
" style="fill:none;stroke:#b0b0b0;stroke-linecap:square;stroke-width:0.8;"/>
     </g>
     <g id="line2d_20">
      <g>
       <use style="stroke:#000000;stroke-width:0.8;" x="50.8224" xlink:href="#mef437365e7" y="510.1663"/>
      </g>
     </g>
     <g id="text_11">
      <!-- −20 -->
      <g transform="translate(22.717712 513.965519)scale(0.1 -0.1)">
       <use xlink:href="#DejaVuSans-2212"/>
       <use x="83.789062" xlink:href="#DejaVuSans-32"/>
       <use x="147.412109" xlink:href="#DejaVuSans-30"/>
      </g>
     </g>
    </g>
    <g id="ytick_3">
     <g id="line2d_21">
      <path clip-path="url(#p10735cb103)" d="M 50.8224 432.065155 
L 1372.032 432.065155 
" style="fill:none;stroke:#b0b0b0;stroke-linecap:square;stroke-width:0.8;"/>
     </g>
     <g id="line2d_22">
      <g>
       <use style="stroke:#000000;stroke-width:0.8;" x="50.8224" xlink:href="#mef437365e7" y="432.065155"/>
      </g>
     </g>
     <g id="text_12">
      <!-- −15 -->
      <g transform="translate(22.717712 435.864374)scale(0.1 -0.1)">
       <use xlink:href="#DejaVuSans-2212"/>
       <use x="83.789062" xlink:href="#DejaVuSans-31"/>
       <use x="147.412109" xlink:href="#DejaVuSans-35"/>
      </g>
     </g>
    </g>
    <g id="ytick_4">
     <g id="line2d_23">
      <path clip-path="url(#p10735cb103)" d="M 50.8224 353.96401 
L 1372.032 353.96401 
" style="fill:none;stroke:#b0b0b0;stroke-linecap:square;stroke-width:0.8;"/>
     </g>
     <g id="line2d_24">
      <g>
       <use style="stroke:#000000;stroke-width:0.8;" x="50.8224" xlink:href="#mef437365e7" y="353.96401"/>
      </g>
     </g>
     <g id="text_13">
      <!-- −10 -->
      <g transform="translate(22.717712 357.763229)scale(0.1 -0.1)">
       <use xlink:href="#DejaVuSans-2212"/>
       <use x="83.789062" xlink:href="#DejaVuSans-31"/>
       <use x="147.412109" xlink:href="#DejaVuSans-30"/>
      </g>
     </g>
    </g>
    <g id="ytick_5">
     <g id="line2d_25">
      <path clip-path="url(#p10735cb103)" d="M 50.8224 275.862865 
L 1372.032 275.862865 
" style="fill:none;stroke:#b0b0b0;stroke-linecap:square;stroke-width:0.8;"/>
     </g>
     <g id="line2d_26">
      <g>
       <use style="stroke:#000000;stroke-width:0.8;" x="50.8224" xlink:href="#mef437365e7" y="275.862865"/>
      </g>
     </g>
     <g id="text_14">
      <!-- −5 -->
      <g transform="translate(29.080212 279.662083)scale(0.1 -0.1)">
       <use xlink:href="#DejaVuSans-2212"/>
       <use x="83.789062" xlink:href="#DejaVuSans-35"/>
      </g>
     </g>
    </g>
    <g id="ytick_6">
     <g id="line2d_27">
      <path clip-path="url(#p10735cb103)" d="M 50.8224 197.761719 
L 1372.032 197.761719 
" style="fill:none;stroke:#b0b0b0;stroke-linecap:square;stroke-width:0.8;"/>
     </g>
     <g id="line2d_28">
      <g>
       <use style="stroke:#000000;stroke-width:0.8;" x="50.8224" xlink:href="#mef437365e7" y="197.761719"/>
      </g>
     </g>
     <g id="text_15">
      <!-- 0 -->
      <g transform="translate(37.4599 201.560938)scale(0.1 -0.1)">
       <use xlink:href="#DejaVuSans-30"/>
      </g>
     </g>
    </g>
    <g id="ytick_7">
     <g id="line2d_29">
      <path clip-path="url(#p10735cb103)" d="M 50.8224 119.660574 
L 1372.032 119.660574 
" style="fill:none;stroke:#b0b0b0;stroke-linecap:square;stroke-width:0.8;"/>
     </g>
     <g id="line2d_30">
      <g>
       <use style="stroke:#000000;stroke-width:0.8;" x="50.8224" xlink:href="#mef437365e7" y="119.660574"/>
      </g>
     </g>
     <g id="text_16">
      <!-- 5 -->
      <g transform="translate(37.4599 123.459793)scale(0.1 -0.1)">
       <use xlink:href="#DejaVuSans-35"/>
      </g>
     </g>
    </g>
    <g id="ytick_8">
     <g id="line2d_31">
      <path clip-path="url(#p10735cb103)" d="M 50.8224 41.559429 
L 1372.032 41.559429 
" style="fill:none;stroke:#b0b0b0;stroke-linecap:square;stroke-width:0.8;"/>
     </g>
     <g id="line2d_32">
      <g>
       <use style="stroke:#000000;stroke-width:0.8;" x="50.8224" xlink:href="#mef437365e7" y="41.559429"/>
      </g>
     </g>
     <g id="text_17">
      <!-- 10 -->
      <g transform="translate(31.0974 45.358648)scale(0.1 -0.1)">
       <use xlink:href="#DejaVuSans-31"/>
       <use x="63.623047" xlink:href="#DejaVuSans-30"/>
      </g>
     </g>
    </g>
    <g id="text_18">
     <!-- Voltage [V] -->
     <g transform="translate(16.638025 367.791088)rotate(-90)scale(0.1 -0.1)">
      <defs>
       <path d="M 1831 0 
L 50 4666 
L 709 4666 
L 2188 738 
L 3669 4666 
L 4325 4666 
L 2547 0 
L 1831 0 
z
" id="DejaVuSans-56" transform="scale(0.015625)"/>
       <path d="M 1959 3097 
Q 1497 3097 1228 2736 
Q 959 2375 959 1747 
Q 959 1119 1226 758 
Q 1494 397 1959 397 
Q 2419 397 2687 759 
Q 2956 1122 2956 1747 
Q 2956 2369 2687 2733 
Q 2419 3097 1959 3097 
z
M 1959 3584 
Q 2709 3584 3137 3096 
Q 3566 2609 3566 1747 
Q 3566 888 3137 398 
Q 2709 -91 1959 -91 
Q 1206 -91 779 398 
Q 353 888 353 1747 
Q 353 2609 779 3096 
Q 1206 3584 1959 3584 
z
" id="DejaVuSans-6f" transform="scale(0.015625)"/>
       <path d="M 603 4863 
L 1178 4863 
L 1178 0 
L 603 0 
L 603 4863 
z
" id="DejaVuSans-6c" transform="scale(0.015625)"/>
       <path d="M 1172 4494 
L 1172 3500 
L 2356 3500 
L 2356 3053 
L 1172 3053 
L 1172 1153 
Q 1172 725 1289 603 
Q 1406 481 1766 481 
L 2356 481 
L 2356 0 
L 1766 0 
Q 1100 0 847 248 
Q 594 497 594 1153 
L 594 3053 
L 172 3053 
L 172 3500 
L 594 3500 
L 594 4494 
L 1172 4494 
z
" id="DejaVuSans-74" transform="scale(0.015625)"/>
       <path d="M 2194 1759 
Q 1497 1759 1228 1600 
Q 959 1441 959 1056 
Q 959 750 1161 570 
Q 1363 391 1709 391 
Q 2188 391 2477 730 
Q 2766 1069 2766 1631 
L 2766 1759 
L 2194 1759 
z
M 3341 1997 
L 3341 0 
L 2766 0 
L 2766 531 
Q 2569 213 2275 61 
Q 1981 -91 1556 -91 
Q 1019 -91 701 211 
Q 384 513 384 1019 
Q 384 1609 779 1909 
Q 1175 2209 1959 2209 
L 2766 2209 
L 2766 2266 
Q 2766 2663 2505 2880 
Q 2244 3097 1772 3097 
Q 1472 3097 1187 3025 
Q 903 2953 641 2809 
L 641 3341 
Q 956 3463 1253 3523 
Q 1550 3584 1831 3584 
Q 2591 3584 2966 3190 
Q 3341 2797 3341 1997 
z
" id="DejaVuSans-61" transform="scale(0.015625)"/>
       <path d="M 2906 1791 
Q 2906 2416 2648 2759 
Q 2391 3103 1925 3103 
Q 1463 3103 1205 2759 
Q 947 2416 947 1791 
Q 947 1169 1205 825 
Q 1463 481 1925 481 
Q 2391 481 2648 825 
Q 2906 1169 2906 1791 
z
M 3481 434 
Q 3481 -459 3084 -895 
Q 2688 -1331 1869 -1331 
Q 1566 -1331 1297 -1286 
Q 1028 -1241 775 -1147 
L 775 -588 
Q 1028 -725 1275 -790 
Q 1522 -856 1778 -856 
Q 2344 -856 2625 -561 
Q 2906 -266 2906 331 
L 2906 616 
Q 2728 306 2450 153 
Q 2172 0 1784 0 
Q 1141 0 747 490 
Q 353 981 353 1791 
Q 353 2603 747 3093 
Q 1141 3584 1784 3584 
Q 2172 3584 2450 3431 
Q 2728 3278 2906 2969 
L 2906 3500 
L 3481 3500 
L 3481 434 
z
" id="DejaVuSans-67" transform="scale(0.015625)"/>
      </defs>
      <use xlink:href="#DejaVuSans-56"/>
      <use x="60.658203" xlink:href="#DejaVuSans-6f"/>
      <use x="121.839844" xlink:href="#DejaVuSans-6c"/>
      <use x="149.623047" xlink:href="#DejaVuSans-74"/>
      <use x="188.832031" xlink:href="#DejaVuSans-61"/>
      <use x="250.111328" xlink:href="#DejaVuSans-67"/>
      <use x="313.587891" xlink:href="#DejaVuSans-65"/>
      <use x="375.111328" xlink:href="#DejaVuSans-20"/>
      <use x="406.898438" xlink:href="#DejaVuSans-5b"/>
      <use x="445.912109" xlink:href="#DejaVuSans-56"/>
      <use x="514.320312" xlink:href="#DejaVuSans-5d"/>
     </g>
    </g>
   </g>
   <g id="line2d_33">
    <path clip-path="url(#p10735cb103)" d="M 90.210747 197.761719 
L 96.830579 197.539446 
L 98.485537 197.341503 
L 100.140494 196.945618 
L 101.795452 196.300953 
L 103.45041 195.513791 
L 106.760326 193.490032 
L 110.070242 191.003955 
L 113.380157 188.138614 
L 116.690073 184.930764 
L 118.345031 183.113679 
L 119.999989 180.808868 
L 121.654946 178.082733 
L 126.61982 163.776233 
L 133.239651 144.935877 
L 138.204525 131.33653 
L 143.169398 118.326778 
L 148.134272 106.022097 
L 151.444187 98.264903 
L 154.754103 90.900377 
L 158.064019 83.957585 
L 161.373935 77.463925 
L 164.68385 71.445026 
L 167.993766 65.924641 
L 171.303682 60.924557 
L 174.613597 56.464507 
L 177.923513 52.562092 
L 181.233429 49.232714 
L 182.888386 47.78711 
L 184.543344 46.489512 
L 186.198302 45.341202 
L 187.85326 44.343312 
L 189.508218 43.496828 
L 191.163176 42.802585 
L 192.818133 42.261267 
L 194.473091 41.87341 
L 196.128049 41.639396 
L 197.783007 41.559456 
L 199.437965 41.633668 
L 201.092923 41.86196 
L 202.74788 42.244106 
L 204.402838 42.77973 
L 206.057796 43.468301 
L 207.712754 44.309142 
L 209.367712 45.301422 
L 211.02267 46.444162 
L 212.677627 47.736234 
L 214.332585 49.176363 
L 219.297459 52.016712 
L 220.952417 53.502145 
L 224.262332 57.548128 
L 227.572248 62.147471 
L 230.882164 67.282021 
L 234.192079 72.931515 
L 237.501995 79.073656 
L 240.811911 85.684205 
L 244.121826 92.737073 
L 247.431742 100.204425 
L 252.396616 112.117727 
L 257.361489 124.79121 
L 262.326363 138.112385 
L 268.946194 156.676409 
L 277.220983 180.757255 
L 297.080477 239.111527 
L 303.700309 257.664396 
L 308.665182 270.974571 
L 313.630056 283.634904 
L 318.594929 295.53302 
L 321.904845 302.989184 
L 325.214761 310.030064 
L 328.524676 316.627872 
L 331.834592 322.756569 
L 335.144508 328.391969 
L 338.454423 333.511831 
L 341.764339 338.095949 
L 345.074255 342.126232 
L 348.38417 345.586774 
L 351.694086 348.463919 
L 353.349044 349.680077 
L 355.004002 350.74631 
L 356.658959 351.661566 
L 358.313917 352.424941 
L 359.968875 353.035683 
L 361.623833 353.493188 
L 363.278791 353.797004 
L 364.933749 353.946833 
L 366.588706 353.942526 
L 368.243664 353.784087 
L 369.898622 353.471673 
L 371.55358 353.005592 
L 373.208538 352.386304 
L 374.863496 351.61442 
L 378.173411 349.770778 
L 381.483327 348.569036 
L 386.448201 346.341611 
L 388.103158 345.413411 
L 389.758116 344.106614 
L 391.413074 342.4861 
L 394.72299 338.51027 
L 398.032905 333.978969 
L 401.342821 328.91008 
L 404.652737 323.323609 
L 407.962652 317.241603 
L 411.272568 310.688064 
L 414.582484 303.688857 
L 417.892399 296.271603 
L 422.857273 284.426343 
L 427.822147 271.811842 
L 432.78702 258.540066 
L 439.406851 240.026256 
L 447.681641 215.981961 
L 467.541135 157.593101 
L 474.160966 138.990901 
L 479.12584 125.63196 
L 484.090713 112.913249 
L 489.055587 100.947658 
L 492.365502 93.441751 
L 495.675418 86.347546 
L 498.985334 79.693043 
L 502.295249 73.504502 
L 505.605165 67.806348 
L 508.915081 62.621069 
L 512.224996 57.969128 
L 515.534912 53.868884 
L 518.844828 50.33652 
L 522.154743 47.385975 
L 523.809701 46.132615 
L 527.119617 44.247943 
L 530.429533 42.873988 
L 532.08449 42.315214 
L 533.739448 41.909847 
L 535.394406 41.658288 
L 537.049364 41.560783 
L 538.704322 41.61743 
L 540.35928 41.828172 
L 542.014237 42.192803 
L 543.669195 42.71096 
L 545.324153 43.382135 
L 546.979111 44.205663 
L 548.634069 45.180732 
L 550.289027 46.306381 
L 551.943984 47.581497 
L 553.598942 49.004824 
L 558.563816 53.65762 
L 561.873731 57.726721 
L 565.183647 62.348476 
L 568.493563 67.504645 
L 571.803478 73.17488 
L 575.113394 79.336802 
L 578.42331 85.966093 
L 581.733225 93.03659 
L 585.043141 100.52039 
L 590.008015 112.456005 
L 594.972888 125.1488 
L 599.937762 138.486113 
L 606.557593 157.066473 
L 618.142298 190.58713 
L 633.036918 234.405063 
L 639.65675 253.147145 
L 644.621623 266.646186 
L 649.586497 279.533804 
L 654.55137 291.695607 
L 657.861286 299.346643 
L 661.171202 306.596769 
L 664.481117 313.417374 
L 667.791033 319.781538 
L 671.100949 325.664145 
L 674.410864 331.041981 
L 677.72078 335.893819 
L 681.030696 340.200514 
L 684.340611 343.945068 
L 687.650527 347.112703 
L 689.305485 348.476179 
L 690.960443 349.690918 
L 692.615401 350.755721 
L 694.270359 351.669537 
L 695.925316 352.431465 
L 697.580274 353.040753 
L 699.235232 353.496799 
L 700.89019 353.799153 
L 702.545148 353.947518 
L 704.200106 353.941745 
L 705.855063 353.781842 
L 707.510021 353.467966 
L 709.164979 353.000427 
L 710.819937 352.379685 
L 712.474895 351.606355 
L 714.129853 350.681198 
L 715.78481 349.605129 
L 719.094726 347.691243 
L 722.404642 344.643838 
L 725.714557 341.016757 
L 729.024473 336.824314 
L 732.334389 332.083054 
L 735.644304 326.811689 
L 738.95422 321.031023 
L 742.264136 314.763869 
L 745.574052 308.034961 
L 748.883967 300.870855 
L 752.193883 293.299824 
L 757.158756 281.246066 
L 762.12363 268.451295 
L 767.088503 255.029078 
L 773.708335 236.363348 
L 781.983124 212.21058 
L 800.18766 158.671589 
L 806.807492 140.025431 
L 811.772365 126.622768 
L 816.737239 113.851539 
L 821.702112 101.825103 
L 823.35707 98.000459 
L 825.012028 94.897072 
L 826.666986 92.080421 
L 829.976901 85.066516 
L 833.286817 78.497367 
L 836.596733 72.398899 
L 839.906648 66.795182 
L 843.216564 61.70833 
L 846.52648 57.158418 
L 849.836395 53.163403 
L 853.146311 49.739052 
L 856.456227 46.898878 
L 858.111185 45.701452 
L 859.766142 44.654092 
L 861.4211 43.75783 
L 863.076058 43.013551 
L 864.731016 42.42199 
L 866.385974 41.98373 
L 868.040932 41.699205 
L 869.695889 41.568694 
L 871.350847 41.592327 
L 873.005805 41.770081 
L 874.660763 42.101779 
L 876.315721 42.587095 
L 877.970679 43.225549 
L 879.625636 44.016513 
L 881.280594 44.959204 
L 882.935552 46.052692 
L 884.59051 47.295899 
L 886.245468 48.687598 
L 889.555383 51.910832 
L 892.865299 55.709672 
L 896.175215 60.069126 
L 899.485131 64.971991 
L 902.795046 70.398916 
L 906.104962 76.328483 
L 909.414878 82.737293 
L 912.724793 89.600051 
L 916.034709 96.889673 
L 919.344625 104.577392 
L 924.309498 116.788631 
L 929.274372 129.718593 
L 934.239245 143.25251 
L 940.859076 162.028951 
L 949.133866 186.256348 
L 965.683444 234.957507 
L 975.613191 262.631588 
L 980.578065 275.716036 
L 985.542938 288.108556 
L 990.507812 299.699151 
L 993.817727 306.929576 
L 997.127643 313.729164 
L 1000.437559 320.071082 
L 1003.747474 325.930301 
L 1007.05739 331.283697 
L 1010.367306 336.110143 
L 1013.677221 340.390591 
L 1016.987137 344.108147 
L 1020.297053 347.248142 
L 1021.952011 348.59759 
L 1023.606968 349.798181 
L 1025.261926 350.848731 
L 1026.916884 351.748203 
L 1028.571842 352.495708 
L 1030.2268 353.090509 
L 1031.881758 353.53202 
L 1033.536715 353.819805 
L 1035.191673 353.953578 
L 1036.846631 353.93321 
L 1038.501589 353.758719 
L 1040.156547 353.430277 
L 1041.811505 352.94821 
L 1043.466462 352.312992 
L 1045.12142 351.525251 
L 1046.776378 350.585764 
L 1050.086294 348.348054 
L 1051.741252 346.997976 
L 1055.051167 343.807157 
L 1058.361083 340.039964 
L 1061.670999 335.711263 
L 1064.980914 330.838139 
L 1068.29083 325.439823 
L 1071.600746 319.53762 
L 1074.910661 313.154823 
L 1078.220577 306.316621 
L 1083.185451 295.471642 
L 1088.150324 283.569165 
L 1093.115198 270.905055 
L 1098.080071 257.591719 
L 1104.699902 239.035643 
L 1112.974692 214.960538 
L 1132.834186 156.600499 
L 1139.454017 138.03967 
L 1144.418891 124.721647 
L 1149.383764 112.051933 
L 1154.348638 100.142986 
L 1157.658553 92.678842 
L 1160.968469 85.629411 
L 1164.278385 79.022516 
L 1167.5883 72.884231 
L 1170.898216 67.238779 
L 1174.208132 62.108443 
L 1177.518047 57.513467 
L 1180.827963 53.471988 
L 1184.137879 49.999954 
L 1187.447794 47.111068 
L 1189.102752 45.88896 
L 1190.75771 44.816732 
L 1192.412668 43.895442 
L 1194.067626 43.125999 
L 1195.722584 42.509163 
L 1197.377541 42.045543 
L 1199.032499 41.735596 
L 1200.687457 41.579628 
L 1202.342415 41.577793 
L 1203.997373 41.730092 
L 1205.652331 42.036376 
L 1207.307288 42.496342 
L 1208.962246 43.109536 
L 1210.617204 43.875353 
L 1212.272162 44.793037 
L 1213.92712 45.861683 
L 1215.582078 47.080236 
L 1217.237036 48.447493 
L 1220.546951 51.622579 
L 1223.856867 55.374409 
L 1227.166783 59.688176 
L 1230.476698 64.546857 
L 1233.786614 69.931276 
L 1237.09653 75.820183 
L 1240.406445 82.190338 
L 1243.716361 89.0166 
L 1247.026277 96.272029 
L 1250.336192 103.927992 
L 1255.301066 115.999165 
L 1260.265939 128.887291 
L 1265.230813 142.386752 
L 1271.850644 161.129249 
L 1280.125433 185.334208 
L 1296.675012 234.058605 
L 1303.294843 252.813845 
L 1308.259717 266.326219 
L 1313.22459 279.23001 
L 1318.189464 291.410683 
L 1321.499379 299.075714 
L 1324.809295 306.340906 
L 1328.119211 313.177585 
L 1331.429126 319.55877 
L 1334.739042 325.459278 
L 1338.048958 330.855822 
L 1341.358873 335.727105 
L 1344.668789 340.053901 
L 1347.978705 343.819135 
L 1351.28862 347.007947 
L 1352.943578 348.382171 
L 1354.598536 349.607752 
L 1356.253494 350.683479 
L 1357.908452 351.60829 
L 1359.56341 352.381274 
L 1361.218367 353.001667 
L 1362.873325 353.468856 
L 1364.528283 353.782382 
L 1366.183241 353.941934 
L 1367.838199 353.947355 
L 1369.493157 353.798639 
L 1371.148114 353.495934 
L 1372.803072 353.039538 
L 1372.803072 353.039538 
" style="fill:none;stroke:#1f77b4;stroke-linecap:square;stroke-width:1.5;"/>
   </g>
   <g id="line2d_34">
    <path clip-path="url(#p10735cb103)" d="M 90.210747 197.761719 
L 116.690073 197.810151 
L 118.345031 197.94869 
L 119.999989 198.323966 
L 121.654946 199.042638 
L 123.309904 200.786408 
L 124.964862 203.077934 
L 126.61982 205.6911 
L 129.929736 211.590496 
L 133.239651 218.143269 
L 136.549567 225.156363 
L 141.51444 236.220113 
L 156.409061 270.014577 
L 161.373935 280.656291 
L 166.338808 290.718661 
L 169.648724 297.04577 
L 172.958639 303.020887 
L 176.268555 308.601049 
L 179.578471 313.74674 
L 182.888386 318.424172 
L 186.198302 322.605352 
L 189.508218 326.267593 
L 192.818133 329.393175 
L 196.128049 331.96936 
L 197.783007 333.048929 
L 199.437965 333.988911 
L 201.092923 334.789317 
L 202.74788 335.450058 
L 204.402838 335.969301 
L 206.057796 336.34086 
L 207.712754 336.556688 
L 209.367712 336.618244 
L 212.677627 336.367741 
L 215.987543 335.935723 
L 219.297459 335.571996 
L 222.607375 334.864713 
L 227.572248 333.416652 
L 230.882164 332.249942 
L 234.192079 330.771909 
L 237.501995 328.828861 
L 240.811911 326.467014 
L 244.121826 323.753547 
L 247.431742 320.732638 
L 250.741658 317.436664 
L 254.051573 313.892696 
L 259.016447 308.165106 
L 263.98132 302.012012 
L 268.946194 295.507041 
L 275.566025 286.409536 
L 283.840815 274.588006 
L 303.700309 245.964084 
L 310.32014 236.878611 
L 315.285013 230.363292 
L 320.249887 224.168419 
L 325.214761 218.351033 
L 330.179634 212.965798 
L 333.48955 209.640715 
L 336.799465 206.543549 
L 340.109381 203.686522 
L 343.419297 201.080604 
L 346.729212 198.735479 
L 350.039128 196.659464 
L 353.349044 194.859387 
L 356.658959 193.340343 
L 359.968875 192.10527 
L 363.278791 191.15407 
L 366.588706 190.481632 
L 369.898622 190.072645 
L 373.208538 189.887332 
L 379.828369 189.835722 
L 391.413074 189.891008 
L 394.72299 190.241578 
L 398.032905 190.921824 
L 401.342821 191.805984 
L 404.652737 192.843697 
L 407.962652 194.111638 
L 411.272568 195.69318 
L 414.582484 197.542591 
L 417.892399 199.610613 
L 422.857273 203.058718 
L 427.822147 206.861434 
L 432.78702 210.960791 
L 439.406851 216.797251 
L 446.026683 222.949846 
L 455.95643 232.525607 
L 470.85105 246.946779 
L 479.12584 254.779239 
L 480.780797 256.630093 
L 482.435755 258.698735 
L 485.745671 263.362919 
L 489.055587 268.527461 
L 494.02046 276.806062 
L 505.605165 296.508809 
L 510.570038 304.438122 
L 513.879954 309.40447 
L 517.18987 314.069825 
L 520.499785 318.402956 
L 523.809701 322.367035 
L 527.119617 325.594883 
L 533.739448 331.126721 
L 537.049364 333.328636 
L 538.704322 334.233806 
L 540.35928 335.007083 
L 542.014237 335.648574 
L 543.669195 336.159672 
L 545.324153 336.543731 
L 548.634069 336.964719 
L 551.943984 337.063193 
L 560.218774 337.012931 
L 561.873731 336.867667 
L 565.183647 336.214746 
L 568.493563 335.202708 
L 571.803478 333.963539 
L 576.768352 331.80726 
L 581.733225 329.361713 
L 586.698099 326.663853 
L 591.662973 323.741337 
L 598.282804 319.542247 
L 604.902635 315.059696 
L 613.177424 309.16701 
L 619.797256 304.214318 
L 623.107171 301.025527 
L 626.417087 297.39662 
L 631.381961 291.476297 
L 638.001792 283.116743 
L 651.241455 266.226001 
L 657.861286 258.226618 
L 662.82616 252.583291 
L 667.791033 247.316396 
L 672.755907 242.484839 
L 676.065822 239.534436 
L 679.375738 236.819435 
L 682.685654 234.353843 
L 685.995569 232.149294 
L 689.305485 230.215071 
L 692.615401 228.558193 
L 695.925316 227.183342 
L 699.235232 226.092421 
L 702.545148 225.283365 
L 705.855063 224.747063 
L 709.164979 224.458517 
L 714.129853 224.343333 
L 735.644304 224.387244 
L 737.299262 224.558571 
L 738.95422 224.890107 
L 742.264136 225.880364 
L 747.229009 227.765574 
L 752.193883 229.90311 
L 758.813714 233.040138 
L 763.778588 235.586243 
L 767.088503 237.532059 
L 770.398419 239.843438 
L 773.708335 242.411683 
L 778.673208 246.580705 
L 785.29304 252.529876 
L 795.222787 261.874384 
L 806.807492 272.785243 
L 813.427323 278.776413 
L 820.047154 284.455372 
L 823.35707 287.150132 
L 826.666986 289.322978 
L 828.321943 290.830284 
L 831.631859 294.285425 
L 834.941775 298.162034 
L 841.561606 306.449176 
L 848.181438 314.624478 
L 851.491353 318.453975 
L 854.801269 322.028703 
L 858.111185 325.304989 
L 861.4211 328.252221 
L 864.731016 330.842129 
L 868.040932 333.037399 
L 871.350847 334.798333 
L 874.660763 336.09589 
L 876.315721 336.567066 
L 879.625636 337.164961 
L 882.935552 337.377185 
L 892.865299 337.40612 
L 909.414878 337.367712 
L 911.069835 337.178291 
L 912.724793 336.762455 
L 914.379751 336.16068 
L 917.689667 334.613613 
L 920.999582 332.810494 
L 925.964456 329.845614 
L 932.584287 325.571816 
L 939.204119 321.027547 
L 947.478908 315.084078 
L 967.338402 300.41402 
L 970.648318 297.483926 
L 973.958233 294.148008 
L 978.923107 288.762789 
L 993.817727 272.280267 
L 998.782601 267.165824 
L 1003.747474 262.403474 
L 1008.712348 258.059228 
L 1012.022264 255.423541 
L 1015.332179 253.015916 
L 1018.642095 250.852967 
L 1021.952011 248.949217 
L 1025.261926 247.315858 
L 1028.571842 245.960362 
L 1031.881758 244.886285 
L 1035.191673 244.092381 
L 1038.501589 243.56967 
L 1041.811505 243.292325 
L 1046.776378 243.185109 
L 1078.220577 243.181986 
L 1079.875535 243.232291 
L 1081.530493 243.436393 
L 1083.185451 243.868217 
L 1086.495366 245.143079 
L 1091.46024 247.478325 
L 1098.080071 250.904254 
L 1106.35486 255.48752 
L 1109.664776 257.463305 
L 1112.974692 259.778221 
L 1116.284607 262.38352 
L 1121.249481 266.596545 
L 1127.869312 272.523261 
L 1144.418891 287.523374 
L 1151.038722 293.185857 
L 1156.003595 297.194284 
L 1160.968469 300.95297 
L 1165.933343 304.635326 
L 1169.243258 307.530936 
L 1172.553174 310.760961 
L 1184.137879 322.468543 
L 1187.447794 325.501467 
L 1190.75771 328.270129 
L 1194.067626 330.733244 
L 1197.377541 332.863631 
L 1200.687457 334.636258 
L 1203.997373 336.018224 
L 1207.307288 336.980346 
L 1210.617204 337.520291 
L 1213.92712 337.708299 
L 1223.856867 337.733488 
L 1251.99115 337.721403 
L 1253.646108 337.573474 
L 1255.301066 337.166785 
L 1256.956024 336.503342 
L 1260.265939 334.731636 
L 1265.230813 331.576097 
L 1271.850644 327.01092 
L 1281.780391 319.818804 
L 1303.294843 304.08442 
L 1306.604759 301.704846 
L 1309.914674 298.976434 
L 1313.22459 295.889826 
L 1319.844421 289.277923 
L 1328.119211 281.015201 
L 1333.084084 276.336681 
L 1338.048958 271.996981 
L 1341.358873 269.329964 
L 1344.668789 266.864606 
L 1347.978705 264.61666 
L 1351.28862 262.602175 
L 1354.598536 260.837211 
L 1357.908452 259.335604 
L 1361.218367 258.107004 
L 1364.528283 257.15584 
L 1367.838199 256.479899 
L 1371.148114 256.065875 
L 1372.803072 255.946873 
L 1372.803072 255.946873 
" style="fill:none;stroke:#ff7f0e;stroke-linecap:square;stroke-width:1.5;"/>
   </g>
   <g id="line2d_35">
    <path clip-path="url(#p10735cb103)" d="M 90.210747 197.761719 
L 116.690073 197.729976 
L 118.345031 197.641669 
L 119.999989 197.41184 
L 121.654946 196.996219 
L 123.309904 196.085666 
L 128.274778 193.038275 
L 131.584693 191.30594 
L 134.894609 189.849444 
L 138.204525 188.640783 
L 141.51444 187.651644 
L 144.824356 186.858377 
L 148.134272 186.241174 
L 153.099145 185.604421 
L 158.064019 185.25339 
L 164.68385 185.085939 
L 182.888386 185.061147 
L 207.712754 185.162275 
L 211.02267 185.437808 
L 220.952417 186.761823 
L 224.262332 187.612848 
L 229.227206 189.174936 
L 232.537122 190.467299 
L 235.847037 192.174772 
L 239.156953 194.337193 
L 242.466869 196.881526 
L 245.776784 199.753298 
L 249.0867 202.915354 
L 252.396616 206.338516 
L 255.706531 209.997162 
L 260.671405 215.874961 
L 265.636278 222.153392 
L 270.601152 228.759713 
L 277.220983 237.955933 
L 287.15073 252.247995 
L 302.045351 273.740537 
L 308.665182 282.921003 
L 315.285013 291.669326 
L 320.249887 297.864199 
L 325.214761 303.681585 
L 330.179634 309.06682 
L 333.48955 312.391902 
L 336.799465 315.489068 
L 340.109381 318.346096 
L 343.419297 320.952013 
L 346.729212 323.297139 
L 350.039128 325.373153 
L 353.349044 327.173231 
L 356.658959 328.692274 
L 359.968875 329.927347 
L 363.278791 330.878548 
L 366.588706 331.550985 
L 369.898622 331.959973 
L 373.208538 332.145286 
L 379.828369 332.196895 
L 391.413074 332.141609 
L 394.72299 331.791039 
L 398.032905 331.110793 
L 401.342821 330.226633 
L 404.652737 329.18892 
L 407.962652 327.92098 
L 411.272568 326.339438 
L 414.582484 324.490026 
L 417.892399 322.422004 
L 422.857273 318.973899 
L 427.822147 315.171183 
L 432.78702 311.071826 
L 439.406851 305.235367 
L 446.026683 299.082771 
L 455.95643 289.50701 
L 470.85105 275.085838 
L 477.470882 268.923199 
L 480.780797 266.000671 
L 484.090713 263.363755 
L 487.400629 261.104667 
L 490.710544 259.234164 
L 494.02046 257.725922 
L 497.330376 256.540465 
L 500.640291 255.636296 
L 503.950207 254.973822 
L 507.260123 254.515884 
L 512.224996 254.133287 
L 517.18987 253.998398 
L 532.08449 253.969934 
L 560.218774 254.026678 
L 561.873731 254.171943 
L 565.183647 254.824864 
L 568.493563 255.836902 
L 571.803478 257.076071 
L 576.768352 259.23235 
L 581.733225 261.677897 
L 586.698099 264.375757 
L 591.662973 267.298273 
L 598.282804 271.497362 
L 604.902635 275.979914 
L 613.177424 281.8726 
L 619.797256 286.825291 
L 623.107171 290.014083 
L 626.417087 293.642989 
L 631.381961 299.563313 
L 638.001792 307.922867 
L 651.241455 324.813608 
L 657.861286 332.812991 
L 662.82616 338.456319 
L 667.791033 343.723213 
L 672.755907 348.554771 
L 676.065822 351.505173 
L 679.375738 354.220175 
L 682.685654 356.685766 
L 685.995569 358.890315 
L 689.305485 360.824539 
L 692.615401 362.481416 
L 695.925316 363.856267 
L 699.235232 364.947188 
L 702.545148 365.756244 
L 705.855063 366.292546 
L 709.164979 366.581092 
L 714.129853 366.696276 
L 735.644304 366.652365 
L 737.299262 366.481038 
L 738.95422 366.149502 
L 742.264136 365.159245 
L 747.229009 363.274035 
L 752.193883 361.136499 
L 758.813714 357.999471 
L 763.778588 355.453366 
L 767.088503 353.50755 
L 770.398419 351.196171 
L 773.708335 348.627925 
L 778.673208 344.458904 
L 785.29304 338.509733 
L 795.222787 329.165225 
L 806.807492 318.254366 
L 813.427323 312.263196 
L 820.047154 306.584241 
L 823.35707 303.892188 
L 833.286817 297.364235 
L 836.596733 295.655544 
L 839.906648 294.297127 
L 843.216564 293.255064 
L 846.52648 292.488852 
L 849.836395 291.957415 
L 853.146311 291.620031 
L 858.111185 291.38372 
L 866.385974 291.321756 
L 909.414878 291.35916 
L 911.069835 291.548581 
L 912.724793 291.964417 
L 914.379751 292.566192 
L 917.689667 294.113259 
L 920.999582 295.916378 
L 925.964456 298.881258 
L 932.584287 303.155056 
L 939.204119 307.699326 
L 947.478908 313.642794 
L 967.338402 328.312852 
L 970.648318 331.242946 
L 973.958233 334.578864 
L 978.923107 339.964083 
L 993.817727 356.446605 
L 998.782601 361.561047 
L 1003.747474 366.323398 
L 1008.712348 370.667643 
L 1012.022264 373.303331 
L 1015.332179 375.710955 
L 1018.642095 377.873905 
L 1021.952011 379.777655 
L 1025.261926 381.411014 
L 1028.571842 382.766509 
L 1031.881758 383.840587 
L 1035.191673 384.634491 
L 1038.501589 385.157201 
L 1041.811505 385.434547 
L 1046.776378 385.541762 
L 1078.220577 385.544886 
L 1079.875535 385.49458 
L 1081.530493 385.290479 
L 1083.185451 384.858654 
L 1086.495366 383.583793 
L 1091.46024 381.248547 
L 1098.080071 377.822617 
L 1106.35486 373.239351 
L 1109.664776 371.263567 
L 1112.974692 368.948651 
L 1116.284607 366.343351 
L 1121.249481 362.130326 
L 1127.869312 356.20361 
L 1144.418891 341.203497 
L 1151.038722 335.541014 
L 1156.003595 331.532587 
L 1160.968469 327.774346 
L 1165.933343 324.323793 
L 1169.243258 322.305029 
L 1172.553174 320.60628 
L 1175.86309 319.243313 
L 1179.173005 318.195058 
L 1182.482921 317.425763 
L 1185.792837 316.895373 
L 1189.102752 316.562467 
L 1194.067626 316.335347 
L 1202.342415 316.27987 
L 1251.99115 316.291197 
L 1253.646108 316.439126 
L 1255.301066 316.845815 
L 1256.956024 317.509258 
L 1260.265939 319.280964 
L 1265.230813 322.436503 
L 1271.850644 327.00168 
L 1281.780391 334.193796 
L 1303.294843 349.92818 
L 1306.604759 352.307754 
L 1309.914674 355.036166 
L 1313.22459 358.122773 
L 1319.844421 364.734676 
L 1328.119211 372.997399 
L 1333.084084 377.675919 
L 1338.048958 382.015618 
L 1341.358873 384.682636 
L 1344.668789 387.147993 
L 1347.978705 389.395939 
L 1351.28862 391.410424 
L 1354.598536 393.175388 
L 1357.908452 394.676996 
L 1361.218367 395.905595 
L 1364.528283 396.856759 
L 1367.838199 397.5327 
L 1371.148114 397.946724 
L 1372.803072 398.065726 
L 1372.803072 398.065726 
" style="fill:none;stroke:#2ca02c;stroke-linecap:square;stroke-width:1.5;"/>
   </g>
   <g id="line2d_36">
    <path clip-path="url(#p10735cb103)" d="M 90.210747 197.761719 
L 116.690073 197.841895 
L 118.345031 198.068741 
L 119.999989 198.673846 
L 121.654946 199.808138 
L 123.309904 202.462462 
L 124.964862 205.799648 
L 128.274778 213.267323 
L 133.239651 225.360163 
L 151.444187 270.909916 
L 156.409061 282.432968 
L 161.373935 293.279529 
L 166.338808 303.406434 
L 169.648724 309.743491 
L 172.958639 315.720948 
L 176.268555 321.301546 
L 179.578471 326.447304 
L 182.888386 331.124745 
L 186.198302 335.305925 
L 189.508218 338.968167 
L 192.818133 342.093748 
L 196.128049 344.669916 
L 197.783007 345.749439 
L 199.437965 346.689249 
L 201.092923 347.489005 
L 202.74788 348.147283 
L 204.402838 348.657721 
L 206.057796 349.002548 
L 207.712754 349.156133 
L 209.367712 349.106214 
L 211.02267 348.86846 
L 212.677627 348.478133 
L 214.332585 347.97085 
L 219.297459 346.87323 
L 220.952417 346.270663 
L 224.262332 344.56867 
L 227.572248 342.563201 
L 230.882164 340.253132 
L 234.192079 337.532846 
L 237.501995 334.351503 
L 240.811911 330.83751 
L 245.776784 325.132283 
L 250.741658 319.010675 
L 255.706531 312.532166 
L 260.671405 305.7445 
L 267.291236 296.298834 
L 275.566025 284.035476 
L 300.390393 246.802899 
L 307.010224 237.415702 
L 311.975098 230.673621 
L 316.939971 224.237703 
L 321.904845 218.15429 
L 326.869718 212.472479 
L 331.834592 207.242014 
L 335.144508 204.029155 
L 338.454423 201.050563 
L 341.764339 198.317784 
L 345.074255 195.84113 
L 348.38417 193.629608 
L 351.694086 191.69081 
L 355.004002 190.030733 
L 358.313917 188.653469 
L 361.623833 187.56059 
L 364.933749 186.74986 
L 368.243664 186.212105 
L 371.55358 185.922382 
L 376.518454 185.806364 
L 389.758116 185.825368 
L 391.413074 185.913155 
L 393.068032 186.166489 
L 394.72299 186.614296 
L 396.377948 187.230152 
L 399.687863 188.818512 
L 402.997779 190.740347 
L 406.307695 193.010645 
L 407.962652 194.354415 
L 411.272568 197.517498 
L 414.582484 201.216322 
L 417.892399 205.352365 
L 421.202315 209.864849 
L 424.512231 214.710938 
L 427.822147 219.854007 
L 432.78702 228.052722 
L 437.751894 236.739152 
L 444.371725 248.907715 
L 452.646514 264.742703 
L 472.506008 303.150813 
L 480.780797 318.793179 
L 485.745671 329.34162 
L 494.02046 347.243896 
L 498.985334 357.43656 
L 502.295249 363.864926 
L 505.605165 369.951026 
L 508.915081 375.66464 
L 512.224996 380.987316 
L 515.534912 385.915757 
L 518.844828 390.460103 
L 522.154743 394.625085 
L 523.809701 396.559869 
L 527.119617 399.788552 
L 533.739448 405.320548 
L 537.049364 407.522465 
L 538.704322 408.427635 
L 540.35928 409.200912 
L 542.014237 409.842403 
L 543.669195 410.353502 
L 545.324153 410.73756 
L 548.634069 411.158548 
L 551.943984 411.257018 
L 558.563816 411.246706 
L 560.218774 411.150009 
L 561.873731 410.859479 
L 563.528689 410.318852 
L 565.183647 409.553637 
L 566.838605 408.610851 
L 570.148521 406.336815 
L 573.458436 403.684833 
L 576.768352 400.738666 
L 580.078268 397.536945 
L 583.388183 394.102232 
L 588.353057 388.550784 
L 593.31793 382.567952 
L 598.282804 376.208641 
L 603.247677 369.53027 
L 609.867509 360.233357 
L 619.797256 345.772228 
L 624.762129 337.593977 
L 631.381961 326.690113 
L 636.346834 318.849249 
L 641.311708 311.346726 
L 646.276581 304.205449 
L 651.241455 297.449844 
L 656.206328 291.104403 
L 661.171202 285.189639 
L 666.136075 279.7204 
L 671.100949 274.713088 
L 674.410864 271.645734 
L 677.72078 268.80925 
L 681.030696 266.216716 
L 684.340611 263.880145 
L 687.650527 261.809684 
L 690.960443 260.013382 
L 694.270359 258.497085 
L 697.580274 257.264167 
L 700.89019 256.314768 
L 704.200106 255.643893 
L 707.510021 255.236237 
L 710.819937 255.051893 
L 717.439768 255.000274 
L 735.644304 255.098072 
L 737.299262 255.440725 
L 738.95422 256.103796 
L 740.609178 257.012484 
L 743.919094 259.266604 
L 747.229009 261.854731 
L 752.193883 266.129803 
L 757.158756 270.780094 
L 762.12363 275.754147 
L 765.433546 279.349923 
L 767.088503 281.387701 
L 770.398419 286.010458 
L 773.708335 291.14695 
L 777.01825 296.636725 
L 781.983124 305.347005 
L 788.602955 317.544838 
L 811.772365 360.931502 
L 816.737239 369.64576 
L 821.702112 377.953579 
L 823.35707 380.621136 
L 826.666986 384.861752 
L 829.976901 390.42029 
L 838.25169 404.69494 
L 841.561606 410.073336 
L 844.871522 415.121683 
L 848.181438 419.791342 
L 851.491353 424.050128 
L 854.801269 427.880879 
L 858.111185 431.28446 
L 861.4211 434.279476 
L 864.731016 436.881905 
L 868.040932 439.079481 
L 871.350847 440.840733 
L 874.660763 442.138326 
L 876.315721 442.609503 
L 879.625636 443.2074 
L 882.935552 443.419624 
L 892.865299 443.448558 
L 909.414878 443.371743 
L 911.069835 442.992901 
L 912.724793 442.161229 
L 914.379751 440.957679 
L 916.034709 439.497922 
L 919.344625 436.105879 
L 922.65454 432.337397 
L 927.619414 426.250766 
L 932.584287 419.779951 
L 939.204119 410.691412 
L 945.82395 401.216083 
L 957.408655 384.159808 
L 970.648318 364.40739 
L 977.268149 354.0613 
L 982.233022 346.800085 
L 987.197896 340.058122 
L 992.162769 333.847364 
L 995.472685 330.005385 
L 998.782601 326.403736 
L 1002.092516 323.042166 
L 1005.402432 319.91858 
L 1008.712348 317.030078 
L 1012.022264 314.376105 
L 1015.332179 311.961538 
L 1018.642095 309.796267 
L 1021.952011 307.891816 
L 1025.261926 306.258263 
L 1028.571842 304.902717 
L 1031.881758 303.828627 
L 1035.191673 303.03472 
L 1038.501589 302.512009 
L 1041.811505 302.234664 
L 1046.776378 302.127448 
L 1078.220577 302.125758 
L 1079.875535 302.226369 
L 1081.530493 302.634572 
L 1083.185451 303.498222 
L 1084.840408 304.677692 
L 1088.150324 307.535148 
L 1091.46024 310.718436 
L 1096.425113 315.810181 
L 1103.044945 323.003694 
L 1108.009818 328.655063 
L 1109.664776 330.688396 
L 1111.319734 332.910217 
L 1114.62965 337.86969 
L 1117.939565 343.273229 
L 1122.904439 351.869776 
L 1131.179228 366.858169 
L 1142.763933 387.886287 
L 1149.383764 399.363895 
L 1154.348638 407.529794 
L 1159.313511 415.221727 
L 1164.278385 422.412872 
L 1169.243258 429.714565 
L 1174.208132 437.049826 
L 1177.518047 441.663093 
L 1180.827963 445.939494 
L 1184.137879 449.823939 
L 1187.447794 453.283233 
L 1190.75771 456.302309 
L 1194.067626 458.886554 
L 1197.377541 461.060388 
L 1200.687457 462.843713 
L 1203.997373 464.227513 
L 1207.307288 465.189867 
L 1210.617204 465.729835 
L 1213.92712 465.917845 
L 1223.856867 465.943034 
L 1251.99115 465.918864 
L 1253.646108 465.623006 
L 1255.301066 464.809627 
L 1256.956024 463.482742 
L 1258.610981 461.818752 
L 1261.920897 457.920529 
L 1265.230813 453.628251 
L 1270.195686 446.827732 
L 1276.815518 437.375917 
L 1288.400223 420.329215 
L 1299.984927 403.36334 
L 1311.569632 386.629491 
L 1316.534506 379.444229 
L 1319.844421 374.946849 
L 1323.154337 370.713878 
L 1326.464253 366.749506 
L 1329.774169 363.054123 
L 1333.084084 359.626875 
L 1336.394 356.465673 
L 1339.703916 353.566484 
L 1343.013831 350.923076 
L 1346.323747 348.528863 
L 1349.633663 346.381248 
L 1352.943578 344.484634 
L 1356.253494 342.848341 
L 1359.56341 341.481924 
L 1362.873325 340.391749 
L 1366.183241 339.578972 
L 1369.493157 339.036714 
L 1372.803072 338.741893 
L 1372.803072 338.741893 
" style="fill:none;stroke:#d62728;stroke-linecap:square;stroke-width:1.5;"/>
   </g>
   <g id="line2d_37">
    <path clip-path="url(#p10735cb103)" d="M 90.210747 197.761719 
L 116.690073 197.714263 
L 118.345031 197.582964 
L 119.999989 197.243948 
L 121.654946 196.637949 
L 123.309904 195.338159 
L 126.61982 192.509869 
L 129.929736 190.128238 
L 133.239651 188.237115 
L 136.549567 186.747456 
L 139.859483 185.573627 
L 143.169398 184.650498 
L 146.479314 183.933323 
L 149.78923 183.391466 
L 154.754103 182.855211 
L 159.718977 182.581457 
L 166.338808 182.468957 
L 196.128049 182.456176 
L 206.057796 182.533913 
L 209.367712 182.881348 
L 212.677627 183.636504 
L 214.332585 184.154679 
L 219.297459 185.25482 
L 220.952417 185.857494 
L 224.262332 187.559517 
L 227.572248 189.564987 
L 230.882164 191.875055 
L 234.192079 194.595341 
L 237.501995 197.776685 
L 240.811911 201.290678 
L 245.776784 206.995904 
L 250.741658 213.117512 
L 255.706531 219.596021 
L 260.671405 226.383688 
L 267.291236 235.829354 
L 275.566025 248.092711 
L 300.390393 285.325288 
L 307.010224 294.712484 
L 311.975098 301.454566 
L 316.939971 307.890483 
L 321.904845 313.973897 
L 326.869718 319.655708 
L 331.834592 324.886173 
L 335.144508 328.099031 
L 338.454423 331.077623 
L 341.764339 333.810402 
L 345.074255 336.287056 
L 348.38417 338.498578 
L 351.694086 340.437377 
L 355.004002 342.097453 
L 358.313917 343.474717 
L 361.623833 344.567596 
L 364.933749 345.378326 
L 368.243664 345.916081 
L 371.55358 346.205804 
L 376.518454 346.321822 
L 389.758116 346.302818 
L 391.413074 346.215031 
L 393.068032 345.961698 
L 394.72299 345.513891 
L 396.377948 344.898042 
L 399.687863 343.309884 
L 402.997779 341.392754 
L 406.307695 339.193772 
L 409.61761 336.681095 
L 414.582484 332.52473 
L 421.202315 326.623299 
L 427.822147 320.428675 
L 436.096936 312.342297 
L 446.026683 302.284811 
L 465.886177 282.028869 
L 474.160966 273.977781 
L 479.12584 269.3793 
L 482.435755 266.563428 
L 485.745671 264.106116 
L 489.055587 262.04231 
L 492.365502 260.357316 
L 495.675418 259.015657 
L 498.985334 257.975948 
L 502.295249 257.197408 
L 505.605165 256.641729 
L 508.915081 256.272564 
L 513.879954 255.988039 
L 520.499785 255.896244 
L 558.563816 255.906921 
L 560.218774 256.00362 
L 561.873731 256.29415 
L 563.528689 256.834777 
L 565.183647 257.599992 
L 566.838605 258.542778 
L 570.148521 260.816814 
L 573.458436 263.468796 
L 576.768352 266.414963 
L 580.078268 269.616684 
L 583.388183 273.051397 
L 588.353057 278.602845 
L 593.31793 284.585677 
L 598.282804 290.944988 
L 603.247677 297.623359 
L 609.867509 306.920272 
L 619.797256 321.381401 
L 624.762129 329.559652 
L 631.381961 340.463516 
L 636.346834 348.304379 
L 641.311708 355.806903 
L 646.276581 362.948179 
L 651.241455 369.703785 
L 656.206328 376.049226 
L 661.171202 381.96399 
L 666.136075 387.433228 
L 671.100949 392.44054 
L 674.410864 395.507894 
L 677.72078 398.344378 
L 681.030696 400.936912 
L 684.340611 403.273483 
L 687.650527 405.343944 
L 690.960443 407.140246 
L 694.270359 408.656542 
L 697.580274 409.889461 
L 700.89019 410.83886 
L 704.200106 411.509735 
L 707.510021 411.917391 
L 710.819937 412.101734 
L 717.439768 412.153353 
L 735.644304 412.055556 
L 737.299262 411.712902 
L 738.95422 411.049831 
L 740.609178 410.141143 
L 743.919094 407.887023 
L 747.229009 405.298897 
L 752.193883 401.023825 
L 757.158756 396.373535 
L 762.12363 391.401124 
L 765.433546 387.883858 
L 770.398419 382.150475 
L 778.673208 372.527655 
L 786.947997 363.285149 
L 795.222787 354.419206 
L 801.842618 347.626216 
L 808.462449 341.149763 
L 815.082281 335.045642 
L 820.047154 330.745808 
L 823.35707 328.024794 
L 833.286817 321.471668 
L 836.596733 319.76258 
L 839.906648 318.404092 
L 843.216564 317.362014 
L 846.52648 316.595799 
L 849.836395 316.064362 
L 853.146311 315.726977 
L 858.111185 315.490666 
L 866.385974 315.428702 
L 909.414878 315.504514 
L 911.069835 315.883356 
L 912.724793 316.715028 
L 914.379751 317.918579 
L 916.034709 319.378335 
L 919.344625 322.770378 
L 922.65454 326.53886 
L 927.619414 332.625491 
L 932.584287 339.096306 
L 939.204119 348.184845 
L 945.82395 357.660174 
L 957.408655 374.716449 
L 970.648318 394.468866 
L 977.268149 404.814956 
L 982.233022 412.076171 
L 987.197896 418.818135 
L 992.162769 425.028892 
L 995.472685 428.870871 
L 998.782601 432.47252 
L 1002.092516 435.83409 
L 1005.402432 438.957676 
L 1008.712348 441.846178 
L 1012.022264 444.500151 
L 1015.332179 446.914717 
L 1018.642095 449.079989 
L 1021.952011 450.984439 
L 1025.261926 452.617993 
L 1028.571842 453.973539 
L 1031.881758 455.047629 
L 1035.191673 455.841535 
L 1038.501589 456.364247 
L 1041.811505 456.641592 
L 1046.776378 456.748808 
L 1078.220577 456.750497 
L 1079.875535 456.649886 
L 1081.530493 456.241683 
L 1083.185451 455.378034 
L 1084.840408 454.198563 
L 1088.150324 451.341107 
L 1091.46024 448.157819 
L 1096.425113 443.066074 
L 1103.044945 435.872573 
L 1109.664776 428.284916 
L 1122.904439 412.180571 
L 1127.869312 406.57319 
L 1132.834186 401.224087 
L 1137.799059 396.125637 
L 1142.763933 391.280736 
L 1147.728806 386.699214 
L 1152.69368 382.394309 
L 1157.658553 378.380299 
L 1162.623427 374.672694 
L 1165.933343 372.39957 
L 1169.243258 370.376191 
L 1172.553174 368.676361 
L 1175.86309 367.313182 
L 1179.173005 366.264884 
L 1182.482921 365.49558 
L 1185.792837 364.965187 
L 1189.102752 364.63228 
L 1194.067626 364.405161 
L 1202.342415 364.349683 
L 1251.99115 364.373096 
L 1253.646108 364.668953 
L 1255.301066 365.482332 
L 1256.956024 366.809217 
L 1258.610981 368.473207 
L 1261.920897 372.37143 
L 1265.230813 376.663708 
L 1270.195686 383.464227 
L 1276.815518 392.916041 
L 1288.400223 409.962744 
L 1299.984927 426.928618 
L 1311.569632 443.662467 
L 1316.534506 450.84773 
L 1319.844421 455.345109 
L 1323.154337 459.57808 
L 1326.464253 463.542452 
L 1329.774169 467.237835 
L 1333.084084 470.665083 
L 1336.394 473.826285 
L 1339.703916 476.725474 
L 1343.013831 479.368882 
L 1346.323747 481.763095 
L 1349.633663 483.91071 
L 1352.943578 485.807324 
L 1356.253494 487.443617 
L 1359.56341 488.810034 
L 1362.873325 489.900209 
L 1366.183241 490.712986 
L 1369.493157 491.255243 
L 1372.803072 491.550064 
L 1372.803072 491.550064 
" style="fill:none;stroke:#9467bd;stroke-linecap:square;stroke-width:1.5;"/>
   </g>
   <g id="line2d_38">
    <path clip-path="url(#p10735cb103)" d="M 90.210747 197.761719 
L 116.690073 197.857608 
L 118.345031 198.127445 
L 119.999989 198.841737 
L 121.654946 200.166408 
L 123.309904 203.209969 
L 126.61982 210.94295 
L 133.239651 227.667873 
L 146.479314 261.412134 
L 151.444187 273.51262 
L 156.409061 285.037441 
L 161.373935 295.884429 
L 166.338808 306.011423 
L 169.648724 312.348492 
L 172.958639 318.325952 
L 176.268555 323.90655 
L 179.578471 329.052308 
L 182.888386 333.729749 
L 186.198302 337.910929 
L 189.508218 341.573171 
L 192.818133 344.698752 
L 196.128049 347.27492 
L 197.783007 348.354443 
L 199.437965 349.294253 
L 201.092923 350.094009 
L 202.74788 350.752287 
L 204.402838 351.262725 
L 206.057796 351.607551 
L 207.712754 351.761136 
L 209.367712 351.711218 
L 211.02267 351.473464 
L 212.677627 351.083137 
L 214.332585 350.575853 
L 219.297459 349.478234 
L 220.952417 348.875667 
L 224.262332 347.173674 
L 227.572248 345.168204 
L 230.882164 342.858136 
L 234.192079 340.13785 
L 237.501995 336.956507 
L 240.811911 333.442513 
L 245.776784 327.737287 
L 250.741658 321.615679 
L 255.706531 315.13717 
L 260.671405 308.349503 
L 267.291236 298.903837 
L 275.566025 286.64048 
L 300.390393 249.407902 
L 307.010224 240.020706 
L 311.975098 233.278624 
L 316.939971 226.842707 
L 321.904845 220.759293 
L 326.869718 215.077482 
L 331.834592 209.847017 
L 335.144508 206.634158 
L 338.454423 203.655566 
L 341.764339 200.922787 
L 345.074255 198.446134 
L 348.38417 196.234611 
L 351.694086 194.295813 
L 355.004002 192.635737 
L 358.313917 191.258473 
L 361.623833 190.165594 
L 364.933749 189.354863 
L 368.243664 188.817109 
L 371.55358 188.527385 
L 376.518454 188.411371 
L 389.758116 188.442385 
L 391.413074 188.574066 
L 393.068032 188.954067 
L 394.72299 189.625777 
L 396.377948 190.549554 
L 398.032905 191.666473 
L 401.342821 194.317977 
L 404.652737 197.410423 
L 407.962652 201.035694 
L 411.272568 205.258391 
L 414.582484 209.91595 
L 417.892399 214.894487 
L 422.857273 222.856531 
L 427.822147 231.330848 
L 432.78702 240.241734 
L 439.406851 252.672676 
L 447.681641 268.835252 
L 470.85105 314.694367 
L 482.435755 337.033396 
L 489.055587 351.383239 
L 495.675418 365.520522 
L 500.640291 375.505381 
L 503.950207 381.767034 
L 507.260123 387.670002 
L 510.570038 393.189586 
L 513.879954 398.314519 
L 517.18987 403.049326 
L 520.499785 407.4048 
L 523.809701 411.374011 
L 527.119617 414.602695 
L 533.739448 420.134691 
L 537.049364 422.336608 
L 538.704322 423.241777 
L 540.35928 424.015054 
L 542.014237 424.656546 
L 543.669195 425.167644 
L 545.324153 425.551702 
L 548.634069 425.97269 
L 551.943984 426.07116 
L 558.563816 426.060848 
L 560.218774 425.964151 
L 561.873731 425.673621 
L 563.528689 425.132994 
L 565.183647 424.367779 
L 566.838605 423.424993 
L 570.148521 421.150958 
L 573.458436 418.498975 
L 576.768352 415.552808 
L 580.078268 412.351088 
L 583.388183 408.916374 
L 588.353057 403.364926 
L 593.31793 397.382094 
L 598.282804 391.022783 
L 603.247677 384.344412 
L 609.867509 375.047499 
L 619.797256 360.58637 
L 624.762129 352.408119 
L 631.381961 341.504255 
L 636.346834 333.663391 
L 641.311708 326.160868 
L 646.276581 319.019591 
L 651.241455 312.263985 
L 656.206328 305.918544 
L 661.171202 300.00378 
L 666.136075 294.534541 
L 671.100949 289.52723 
L 674.410864 286.459875 
L 677.72078 283.623391 
L 681.030696 281.030858 
L 684.340611 278.694287 
L 687.650527 276.623826 
L 690.960443 274.827523 
L 694.270359 273.311227 
L 697.580274 272.078309 
L 700.89019 271.12891 
L 704.200106 270.458034 
L 707.510021 270.050378 
L 710.819937 269.866035 
L 717.439768 269.814416 
L 733.989347 269.824543 
L 735.644304 269.961278 
L 737.299262 270.475258 
L 738.95422 271.469865 
L 740.609178 272.832897 
L 742.264136 274.440637 
L 745.574052 278.108017 
L 748.883967 282.164299 
L 752.193883 286.508874 
L 757.158756 293.48431 
L 762.12363 300.943748 
L 765.433546 306.258901 
L 768.743461 312.180012 
L 773.708335 321.781032 
L 783.638082 341.704025 
L 798.532702 371.6625 
L 805.152534 384.535354 
L 811.772365 396.88595 
L 816.737239 405.706249 
L 821.702112 414.074533 
L 823.35707 416.754926 
L 826.666986 421.010094 
L 829.976901 426.577115 
L 838.25169 440.854351 
L 841.561606 446.232778 
L 844.871522 451.281132 
L 848.181438 455.950792 
L 851.491353 460.209578 
L 854.801269 464.04033 
L 858.111185 467.443911 
L 861.4211 470.438926 
L 864.731016 473.041356 
L 868.040932 475.238932 
L 871.350847 477.000184 
L 874.660763 478.297776 
L 876.315721 478.768954 
L 879.625636 479.36685 
L 882.935552 479.579074 
L 892.865299 479.608009 
L 909.414878 479.531193 
L 911.069835 479.152351 
L 912.724793 478.320679 
L 914.379751 477.117129 
L 916.034709 475.657373 
L 919.344625 472.26533 
L 922.65454 468.496848 
L 927.619414 462.410216 
L 932.584287 455.939401 
L 939.204119 446.850862 
L 945.82395 437.375533 
L 957.408655 420.319258 
L 970.648318 400.56684 
L 977.268149 390.22075 
L 982.233022 382.959535 
L 987.197896 376.217572 
L 992.162769 370.006814 
L 995.472685 366.164835 
L 998.782601 362.563186 
L 1002.092516 359.201616 
L 1005.402432 356.07803 
L 1008.712348 353.189528 
L 1012.022264 350.535555 
L 1015.332179 348.120988 
L 1018.642095 345.955717 
L 1021.952011 344.051266 
L 1025.261926 342.417713 
L 1028.571842 341.062167 
L 1031.881758 339.988076 
L 1035.191673 339.19417 
L 1038.501589 338.671459 
L 1041.811505 338.394113 
L 1046.776378 338.286897 
L 1078.220577 338.286642 
L 1079.875535 338.437558 
L 1081.530493 339.049863 
L 1083.185451 340.345337 
L 1084.840408 342.114542 
L 1088.150324 346.400727 
L 1091.46024 351.175659 
L 1096.425113 358.813276 
L 1101.389987 366.851597 
L 1108.009818 378.062695 
L 1111.319734 384.164738 
L 1116.284607 394.151667 
L 1129.52427 421.126395 
L 1136.144101 434.151283 
L 1142.763933 446.636666 
L 1147.728806 455.550509 
L 1152.69368 464.008203 
L 1157.658553 471.951597 
L 1162.623427 479.332059 
L 1167.5883 486.53441 
L 1174.208132 496.346387 
L 1177.518047 500.959749 
L 1180.827963 505.236169 
L 1184.137879 509.120618 
L 1187.447794 512.579914 
L 1190.75771 515.59899 
L 1194.067626 518.183236 
L 1197.377541 520.357069 
L 1200.687457 522.140395 
L 1203.997373 523.524194 
L 1207.307288 524.486548 
L 1210.617204 525.026516 
L 1213.92712 525.214526 
L 1223.856867 525.239715 
L 1251.99115 525.215544 
L 1253.646108 524.919687 
L 1255.301066 524.106308 
L 1256.956024 522.779423 
L 1258.610981 521.115433 
L 1261.920897 517.21721 
L 1265.230813 512.924932 
L 1270.195686 506.124413 
L 1276.815518 496.672598 
L 1288.400223 479.625895 
L 1299.984927 462.660021 
L 1311.569632 445.926172 
L 1316.534506 438.740909 
L 1319.844421 434.243529 
L 1323.154337 430.010559 
L 1326.464253 426.046187 
L 1329.774169 422.350804 
L 1333.084084 418.923556 
L 1336.394 415.762354 
L 1339.703916 412.863165 
L 1343.013831 410.219757 
L 1346.323747 407.825543 
L 1349.633663 405.677928 
L 1352.943578 403.781314 
L 1356.253494 402.145021 
L 1359.56341 400.778604 
L 1362.873325 399.688429 
L 1366.183241 398.875652 
L 1369.493157 398.333395 
L 1372.803072 398.038574 
L 1372.803072 398.038574 
" style="fill:none;stroke:#8c564b;stroke-linecap:square;stroke-width:1.5;"/>
   </g>
   <g id="patch_3">
    <path d="M 50.8224 654.3086 
L 50.8224 25.9392 
" style="fill:none;stroke:#000000;stroke-linecap:square;stroke-linejoin:miter;stroke-width:0.8;"/>
   </g>
   <g id="patch_4">
    <path d="M 1372.032 654.3086 
L 1372.032 25.9392 
" style="fill:none;stroke:#000000;stroke-linecap:square;stroke-linejoin:miter;stroke-width:0.8;"/>
   </g>
   <g id="patch_5">
    <path d="M 50.8224 654.3086 
L 1372.032 654.3086 
" style="fill:none;stroke:#000000;stroke-linecap:square;stroke-linejoin:miter;stroke-width:0.8;"/>
   </g>
   <g id="patch_6">
    <path d="M 50.8224 25.9392 
L 1372.032 25.9392 
" style="fill:none;stroke:#000000;stroke-linecap:square;stroke-linejoin:miter;stroke-width:0.8;"/>
   </g>
   <g id="text_19">
    <!-- Voltage Multiplier -->
    <g transform="translate(659.046262 19.9392)scale(0.12 -0.12)">
     <defs>
      <path d="M 628 4666 
L 1569 4666 
L 2759 1491 
L 3956 4666 
L 4897 4666 
L 4897 0 
L 4281 0 
L 4281 4097 
L 3078 897 
L 2444 897 
L 1241 4097 
L 1241 0 
L 628 0 
L 628 4666 
z
" id="DejaVuSans-4d" transform="scale(0.015625)"/>
      <path d="M 544 1381 
L 544 3500 
L 1119 3500 
L 1119 1403 
Q 1119 906 1312 657 
Q 1506 409 1894 409 
Q 2359 409 2629 706 
Q 2900 1003 2900 1516 
L 2900 3500 
L 3475 3500 
L 3475 0 
L 2900 0 
L 2900 538 
Q 2691 219 2414 64 
Q 2138 -91 1772 -91 
Q 1169 -91 856 284 
Q 544 659 544 1381 
z
M 1991 3584 
L 1991 3584 
z
" id="DejaVuSans-75" transform="scale(0.015625)"/>
      <path d="M 1159 525 
L 1159 -1331 
L 581 -1331 
L 581 3500 
L 1159 3500 
L 1159 2969 
Q 1341 3281 1617 3432 
Q 1894 3584 2278 3584 
Q 2916 3584 3314 3078 
Q 3713 2572 3713 1747 
Q 3713 922 3314 415 
Q 2916 -91 2278 -91 
Q 1894 -91 1617 61 
Q 1341 213 1159 525 
z
M 3116 1747 
Q 3116 2381 2855 2742 
Q 2594 3103 2138 3103 
Q 1681 3103 1420 2742 
Q 1159 2381 1159 1747 
Q 1159 1113 1420 752 
Q 1681 391 2138 391 
Q 2594 391 2855 752 
Q 3116 1113 3116 1747 
z
" id="DejaVuSans-70" transform="scale(0.015625)"/>
      <path d="M 2631 2963 
Q 2534 3019 2420 3045 
Q 2306 3072 2169 3072 
Q 1681 3072 1420 2755 
Q 1159 2438 1159 1844 
L 1159 0 
L 581 0 
L 581 3500 
L 1159 3500 
L 1159 2956 
Q 1341 3275 1631 3429 
Q 1922 3584 2338 3584 
Q 2397 3584 2469 3576 
Q 2541 3569 2628 3553 
L 2631 2963 
z
" id="DejaVuSans-72" transform="scale(0.015625)"/>
     </defs>
     <use xlink:href="#DejaVuSans-56"/>
     <use x="60.658203" xlink:href="#DejaVuSans-6f"/>
     <use x="121.839844" xlink:href="#DejaVuSans-6c"/>
     <use x="149.623047" xlink:href="#DejaVuSans-74"/>
     <use x="188.832031" xlink:href="#DejaVuSans-61"/>
     <use x="250.111328" xlink:href="#DejaVuSans-67"/>
     <use x="313.587891" xlink:href="#DejaVuSans-65"/>
     <use x="375.111328" xlink:href="#DejaVuSans-20"/>
     <use x="406.898438" xlink:href="#DejaVuSans-4d"/>
     <use x="493.177734" xlink:href="#DejaVuSans-75"/>
     <use x="556.556641" xlink:href="#DejaVuSans-6c"/>
     <use x="584.339844" xlink:href="#DejaVuSans-74"/>
     <use x="623.548828" xlink:href="#DejaVuSans-69"/>
     <use x="651.332031" xlink:href="#DejaVuSans-70"/>
     <use x="714.808594" xlink:href="#DejaVuSans-6c"/>
     <use x="742.591797" xlink:href="#DejaVuSans-69"/>
     <use x="770.375" xlink:href="#DejaVuSans-65"/>
     <use x="831.898438" xlink:href="#DejaVuSans-72"/>
    </g>
   </g>
   <g id="legend_1">
    <g id="patch_7">
     <path d="M 317.06432 151.61308 
L 374.786195 151.61308 
Q 376.786195 151.61308 376.786195 149.61308 
L 376.786195 62.54433 
Q 376.786195 60.54433 374.786195 60.54433 
L 317.06432 60.54433 
Q 315.06432 60.54433 315.06432 62.54433 
L 315.06432 149.61308 
Q 315.06432 151.61308 317.06432 151.61308 
z
" style="fill:#ffffff;opacity:0.8;stroke:#cccccc;stroke-linejoin:miter;"/>
    </g>
    <g id="line2d_39">
     <path d="M 319.06432 68.642768 
L 339.06432 68.642768 
" style="fill:none;stroke:#1f77b4;stroke-linecap:square;stroke-width:1.5;"/>
    </g>
    <g id="line2d_40"/>
    <g id="text_20">
     <!-- input -->
     <g transform="translate(347.06432 72.142768)scale(0.1 -0.1)">
      <defs>
       <path d="M 3513 2113 
L 3513 0 
L 2938 0 
L 2938 2094 
Q 2938 2591 2744 2837 
Q 2550 3084 2163 3084 
Q 1697 3084 1428 2787 
Q 1159 2491 1159 1978 
L 1159 0 
L 581 0 
L 581 3500 
L 1159 3500 
L 1159 2956 
Q 1366 3272 1645 3428 
Q 1925 3584 2291 3584 
Q 2894 3584 3203 3211 
Q 3513 2838 3513 2113 
z
" id="DejaVuSans-6e" transform="scale(0.015625)"/>
      </defs>
      <use xlink:href="#DejaVuSans-69"/>
      <use x="27.783203" xlink:href="#DejaVuSans-6e"/>
      <use x="91.162109" xlink:href="#DejaVuSans-70"/>
      <use x="154.638672" xlink:href="#DejaVuSans-75"/>
      <use x="218.017578" xlink:href="#DejaVuSans-74"/>
     </g>
    </g>
    <g id="line2d_41">
     <path d="M 319.06432 83.320893 
L 339.06432 83.320893 
" style="fill:none;stroke:#ff7f0e;stroke-linecap:square;stroke-width:1.5;"/>
    </g>
    <g id="line2d_42"/>
    <g id="text_21">
     <!-- *1 -->
     <g transform="translate(347.06432 86.820893)scale(0.1 -0.1)">
      <defs>
       <path d="M 3009 3897 
L 1888 3291 
L 3009 2681 
L 2828 2375 
L 1778 3009 
L 1778 1831 
L 1422 1831 
L 1422 3009 
L 372 2375 
L 191 2681 
L 1313 3291 
L 191 3897 
L 372 4206 
L 1422 3572 
L 1422 4750 
L 1778 4750 
L 1778 3572 
L 2828 4206 
L 3009 3897 
z
" id="DejaVuSans-2a" transform="scale(0.015625)"/>
      </defs>
      <use xlink:href="#DejaVuSans-2a"/>
      <use x="50" xlink:href="#DejaVuSans-31"/>
     </g>
    </g>
    <g id="line2d_43">
     <path d="M 319.06432 97.999018 
L 339.06432 97.999018 
" style="fill:none;stroke:#2ca02c;stroke-linecap:square;stroke-width:1.5;"/>
    </g>
    <g id="line2d_44"/>
    <g id="text_22">
     <!-- *2 -->
     <g transform="translate(347.06432 101.499018)scale(0.1 -0.1)">
      <use xlink:href="#DejaVuSans-2a"/>
      <use x="50" xlink:href="#DejaVuSans-32"/>
     </g>
    </g>
    <g id="line2d_45">
     <path d="M 319.06432 112.677143 
L 339.06432 112.677143 
" style="fill:none;stroke:#d62728;stroke-linecap:square;stroke-width:1.5;"/>
    </g>
    <g id="line2d_46"/>
    <g id="text_23">
     <!-- *3 -->
     <g transform="translate(347.06432 116.177143)scale(0.1 -0.1)">
      <use xlink:href="#DejaVuSans-2a"/>
      <use x="50" xlink:href="#DejaVuSans-33"/>
     </g>
    </g>
    <g id="line2d_47">
     <path d="M 319.06432 127.355268 
L 339.06432 127.355268 
" style="fill:none;stroke:#9467bd;stroke-linecap:square;stroke-width:1.5;"/>
    </g>
    <g id="line2d_48"/>
    <g id="text_24">
     <!-- *4 -->
     <g transform="translate(347.06432 130.855268)scale(0.1 -0.1)">
      <use xlink:href="#DejaVuSans-2a"/>
      <use x="50" xlink:href="#DejaVuSans-34"/>
     </g>
    </g>
    <g id="line2d_49">
     <path d="M 319.06432 142.033393 
L 339.06432 142.033393 
" style="fill:none;stroke:#8c564b;stroke-linecap:square;stroke-width:1.5;"/>
    </g>
    <g id="line2d_50"/>
    <g id="text_25">
     <!-- *5 -->
     <g transform="translate(347.06432 145.533393)scale(0.1 -0.1)">
      <use xlink:href="#DejaVuSans-2a"/>
      <use x="50" xlink:href="#DejaVuSans-35"/>
     </g>
    </g>
   </g>
  </g>
 </g>
 <defs>
  <clipPath id="p10735cb103">
   <rect height="628.3694" width="1321.2096" x="50.8224" y="25.9392"/>
  </clipPath>
 </defs>
</svg>
