<?xml version="1.0" encoding="UTF-8" standalone="no"?>
<!-- Created with Inkscape (http://www.inkscape.org/) -->

<svg
   xmlns:dc="http://purl.org/dc/elements/1.1/"
   xmlns:cc="http://creativecommons.org/ns#"
   xmlns:rdf="http://www.w3.org/1999/02/22-rdf-syntax-ns#"
   xmlns:svg="http://www.w3.org/2000/svg"
   xmlns="http://www.w3.org/2000/svg"
   xmlns:sodipodi="http://sodipodi.sourceforge.net/DTD/sodipodi-0.dtd"
   xmlns:inkscape="http://www.inkscape.org/namespaces/inkscape"
   width="172.17578mm"
   height="74.779366mm"
   viewBox="0 0 172.17578 74.779363"
   version="1.1"
   id="svg4337"
   inkscape:version="0.92+devel unknown"
   sodipodi:docname="logo.svg">
  <defs
     id="defs4331" />
  <sodipodi:namedview
     id="base"
     pagecolor="#ffffff"
     bordercolor="#666666"
     borderopacity="1.0"
     inkscape:pageopacity="0.0"
     inkscape:pageshadow="2"
     inkscape:zoom="2.6415954"
     inkscape:cx="325.37156"
     inkscape:cy="141.31534"
     inkscape:document-units="mm"
     inkscape:current-layer="layer2"
     inkscape:document-rotation="0"
     showgrid="true"
     fit-margin-top="10"
     fit-margin-left="10"
     fit-margin-bottom="10"
     fit-margin-right="10"
     inkscape:window-width="1920"
     inkscape:window-height="1007"
     inkscape:window-x="0"
     inkscape:window-y="0"
     inkscape:window-maximized="1"
     inkscape:lockguides="true"
     showguides="false" />
  <metadata
     id="metadata4334">
    <rdf:RDF>
      <cc:Work
         rdf:about="">
        <dc:format>image/svg+xml</dc:format>
        <dc:type
           rdf:resource="http://purl.org/dc/dcmitype/StillImage" />
        <dc:title></dc:title>
      </cc:Work>
    </rdf:RDF>
  </metadata>
  <g
     inkscape:label="text"
     inkscape:groupmode="layer"
     id="layer1"
     transform="translate(-47.154524,-45.910248)"
     style="display:inline">
    <text
       xml:space="preserve"
       style="font-style:normal;font-variant:normal;font-weight:normal;font-stretch:normal;font-size:50.79999924px;line-height:12.60999966px;font-family:'Liberation Sans';-inkscape-font-specification:'Liberation Sans';writing-mode:lr-tb;opacity:0.98999999;fill:#000000;fill-rule:evenodd;stroke-width:5.29166651;stroke-linecap:round;stroke-linejoin:bevel;stroke-opacity:0.39314521;paint-order:markers stroke fill"
       x="58.964287"
       y="91.380951"
       id="text4884"><tspan
         sodipodi:role="line"
         id="tspan4882"
         x="58.964287"
         y="91.380951"
         style="font-style:normal;font-variant:normal;font-weight:normal;font-stretch:normal;font-family:'Liberation Sans';-inkscape-font-specification:'Liberation Sans';stroke-width:5.29166651">SPICE</tspan></text>
  </g>
  <g
     inkscape:groupmode="layer"
     id="layer3"
     inkscape:label="black snake"
     transform="translate(-34.841604,-42.232422)"
     style="display:inline">
    <path
       style="stroke-width:0.79374999"
       d="m 145.76718,66.44858 c -0.006,0.0054 -0.012,0.0111 -0.0168,0.0168 z"
       id="path4297"
       inkscape:connector-curvature="0" />
    <path
       style="stroke-width:0.79374999"
       d="m 145.74408,66.47078 c -0.0168,0.012 -0.0333,0.0279 -0.05,0.04524 z"
       id="path4295"
       inkscape:connector-curvature="0" />
    <path
       style="stroke-width:0.79374999"
       d="m 145.69408,66.51602 c -0.006,0.0111 -0.0168,0.0168 -0.0222,0.0222 z"
       id="path4293"
       inkscape:connector-curvature="0" />
    <path
       style="stroke-width:3"
       d="m 459.76758,75.347656 c -0.88793,0.066 -1.64721,0.676772 -2.47266,2.134766 1.56291,-0.80098 4.04002,-1.034154 5.11719,0.339844 0.42327,0.573006 0.59229,1.817582 -0.88672,2.642578 -3.1079,-0.737995 -2.32619,-2.960825 -6.45117,-1.964844 -1.56541,0.36 -1.18764,0.06313 -1.92578,0.951172 -2.22305,2.559538 -6.32256,0.866108 -9.68555,2.537109 -4.40099,8.120999 -4.4019,8.122182 -7.04492,11.992188 -0.27598,1.691546 -1.27245,1.670527 -2.89844,-0.105469 -1.58698,-1.733998 -4.01858,1.205517 -6.72461,1.394531 -5.328,0.380999 -10.9781,-0.54978 -7.99609,-3.300781 0.0208,-0.01803 0.0449,-0.06282 0.38086,-0.632812 -0.0421,-0.72 -0.40247,-0.890012 -0.73242,-1.042969 -11.78102,0 -1.587,10.148011 -18.16797,11.207031 -2.51702,0.171 -2.93779,-0.14708 -4.96875,1.54492 -6.53704,5.43601 -7.29724,14.06395 -3.49024,22.37696 6.70802,10.55399 11.60033,11.57799 13.66407,19.14062 1.70275,6.23982 0.92877,13.41573 -1.68946,19.33008 -3.80107,8.58623 -10.27235,17.55629 -19.12695,20.68164 -4.47345,1.57896 -9.56517,-0.61222 -14.08008,-2.06836 -8.46735,-4.28486 -13.12093,-7.12384 -20.35963,-7.96623 -13.24026,-1.54081 -26.37988,3.85315 -39.59053,5.63003 -9.56217,1.28614 -16.22493,4.07339 -28.71487,3.64149 -8.69,-0.30063 -19.08393,-6.15474 -27.75859,-6.75204 -6.91542,-0.47617 -18.6087,0.72806 -26.27022,2.06832 -7.75841,2.99256 -20.42144,5.7711 -27.42782,8.00481 -15.927,3.84896 -29.47339,4.76985 -45.37639,2.57088 -4.22999,-0.88803 -8.46669,-1.66318 -12.66796,-2.64257 -4.6997,-1.09554 -9.27594,-2.72883 -14.01954,-3.61524 -27.47186,-5.13349 -55.396915,-11.86423 -83.267574,-9.79492 -4.590418,0.34082 -9.197311,1.58625 -13.326172,3.62109 -6.912862,3.4069 -14.846434,6.851 -18.398438,14 -1.96797,3.95399 -2.413522,7.06199 -1.228515,11.33399 3.425998,12.312 18.571841,13.09273 30.964843,11.88672 2.705998,-0.25198 4.693434,-0.69944 7.273438,-1.52149 6.516,-2.11498 7.351228,-3.23972 11.27539,-3.84765 4.208788,-0.65205 10.214433,0.35589 12.773438,0.27539 0.443906,-0.80398 0.443281,-0.80473 0.359375,-1.96875 -7.506006,-5.62485 -19.752176,-2.68822 -29.283203,-5.47657 -2.004575,-0.58643 -4.54811,-0.68427 -5.808594,-2.3496 -0.966882,-1.27745 -1.177549,-3.31486 -0.523437,-4.77735 0.990621,-2.21488 5.921875,-4.23242 5.921875,-4.23242 28.574997,-7.21501 55.881234,5.3318 83.267574,11.1875 5.44767,1.62792 11.06393,2.66527 16.66602,3.63672 12.19418,2.11461 24.36132,3.55379 36.82031,4.75976 9.98482,0.91114 19.07759,0.0993 28.50977,-1.11718 6.13257,-0.79087 20.61226,-2.91165 30.98429,-2.86432 12.99096,0.0593 25.79032,3.48687 38.77345,3.94159 12.34757,0.43246 24.76299,0.16169 37.04728,-1.15958 9.59988,-1.03254 22.31934,-7.22823 28.48209,-5.27123 13.57416,1.29843 23.6864,10.70861 32.20117,16.95703 9.78111,7.77906 16.99429,4.83183 24.18359,1.16406 11.52034,-5.87732 18.91603,-19.74792 21.23828,-32.4707 4.47024,-24.49037 3.05412,-16.36543 4.37696,-43.7539 1.81799,-7.06501 2.70524,-14.6578 10.49023,-17.2168 10.34102,-1.83899 20.74742,-1.20581 31.02539,-4.75781 1.14066,-3.21301 0.7653,-5.58332 0.69727,-8.82032 -1.73095,0.381 -1.83662,0.76161 -2.45117,2.47461 -0.59097,-0.12597 -1.18465,-0.25392 -1.77539,-0.35937 -0.36284,-0.72 -0.72493,-1.41621 -1.06055,-2.11524 -3.17401,0.423 -2.68627,1.05647 -3.51172,4.23047 -11.841,1.059 -23.60089,0.61073 -35.25586,-0.36133 v -0.69531 c 5.352,-0.31799 9.51872,-3.02297 14.80469,-4.41797 8.16601,-0.99599 17.74384,0.20955 25.3789,-2.81445 3.95399,0 7.82415,1.31104 11.99414,-0.16797 0.0113,-0.50999 0.0347,-1.01833 0.0801,-1.52539 -1.75498,-0.95097 -3.48622,-0.46499 -5.11523,0 -0.1474,-0.27598 -0.29791,-0.53115 -0.44531,-0.7832 0.144,-0.44396 0.29564,-0.88606 0.44531,-1.33008 0.25171,-0.081 0.52916,-0.16805 0.80469,-0.25195 v -0.69922 h 0.69531 c 0.61568,-1.224 0.85123,-1.71051 0.7832,-2.9375 -0.78281,-0.42599 -0.78233,-0.42578 -1.47851,-0.42578 -4.48804,4.485 -8.37656,6.34527 -14.8086,7.40429 -10.99495,0.51 -20.47117,0.0202 -30.32617,4.94922 h -1.39453 c 8.88302,-4.569 17.78586,-8.29173 24.13086,-16.052732 0.17121,0.570001 0.33994,1.162942 0.5293,1.753902 5.58289,-0.719996 2.70513,-6.260655 5.11718,-9.347652 0.23358,-0.06554 0.31506,-0.06552 0.84571,0.105468 0.19162,0.04501 0.3355,0.234814 0.38085,0.423828 0.10545,1.883997 0.23207,3.767446 0.36133,5.648438 0.82194,-0.234028 1.65061,-0.465191 2.47266,-0.699219 0.76207,-2.010002 1.5232,-4.016856 2.28516,-6.005859 0.77555,-3.365995 1.4788,-8.819506 0.69531,-12.4375 -0.0624,-0.255005 -0.12962,-0.506714 -0.20899,-0.761719 -0.2313,-0.761975 -0.39812,-0.992578 -1.07617,-1.394531 -1.22706,-0.72 -2.15767,-0.930684 -3.02734,-0.867188 z"
       transform="matrix(0.26458333,0,0,0.26458333,34.841604,42.232422)"
       id="path4"
       inkscape:connector-curvature="0"
       sodipodi:nodetypes="ccccccccccccccccccscaacsccccssccccccccccccccccaaacccccccccccccccccccccccccccccccccccccccccc" />
    <path
       inkscape:connector-curvature="0"
       id="path30"
       d="m 157.40037,74.758349 c 0.027,-0.03333 0.0555,-0.06666 0.0897,-0.09525 0,0.0279 0,0.06192 0,0.09525 -0.0342,0 -0.0618,0 -0.0897,0 z"
       fill="#A6C53D"
       clip-rule="evenodd"
       fill-rule="evenodd"
       style="stroke-width:0.79374999" />
    <path
       inkscape:connector-curvature="0"
       id="path32"
       d="m 157.49007,74.758349 c 0,-0.03333 0,-0.06666 0,-0.09525 0.027,0 0.0612,0 0.0945,0 0,0.0279 0,0.06192 0,0.09525 -0.0333,0 -0.0666,0 -0.0945,0 z"
       fill="#52773E"
       clip-rule="evenodd"
       fill-rule="evenodd"
       style="stroke-width:0.79374999" />
    <path
       inkscape:connector-curvature="0"
       id="path34"
       d="m 157.58454,74.758349 c 0,-0.03333 0,-0.06666 0,-0.09525 0.027,0 0.0618,0 0.0954,0 -0.0333,0.0279 -0.0675,0.06192 -0.0954,0.09525 z"
       fill="#2B3D29"
       clip-rule="evenodd"
       fill-rule="evenodd"
       style="stroke-width:0.79374999" />
    <path
       inkscape:connector-curvature="0"
       id="path36"
       d="m 157.77027,74.663099 c 0.027,-0.03333 0.0612,-0.06666 0.0954,-0.09525 0,0.0279 0,0.06111 0,0.09525 -0.0342,0 -0.0675,0 -0.0954,0 z"
       fill="#688F42"
       clip-rule="evenodd"
       fill-rule="evenodd"
       style="stroke-width:0.79374999" />
    <path
       inkscape:connector-curvature="0"
       id="path38"
       d="m 157.86552,74.663099 c 0,-0.03333 0,-0.06666 0,-0.09525 0.027,0 0.0612,0 0.0945,0 -0.0333,0.0285 -0.0666,0.06192 -0.0945,0.09525 z"
       fill="#2B3D29"
       clip-rule="evenodd"
       fill-rule="evenodd"
       style="stroke-width:0.79374999" />
    <path
       inkscape:connector-curvature="0"
       id="path40"
       d="m 158.14413,74.47895 c 0,-0.03333 0,-0.06747 0,-0.09525 0.03,0 0.0618,0 0.0954,0 -0.0327,0.0279 -0.066,0.06111 -0.0954,0.09525 z"
       fill="#405E36"
       clip-rule="evenodd"
       fill-rule="evenodd"
       style="stroke-width:0.79374999" />
    <path
       inkscape:connector-curvature="0"
       id="path42"
       d="m 158.14413,74.3837 c 0,-0.03333 0,-0.06666 0,-0.09525 0.03,0.0279 0.0618,0.06192 0.0954,0.09525 -0.0327,0 -0.066,0 -0.0954,0 z"
       fill="#1F3425"
       clip-rule="evenodd"
       fill-rule="evenodd"
       style="stroke-width:0.79374999" />
    <path
       inkscape:connector-curvature="0"
       id="path46"
       d="m 147.51264,69.71645 c 0,-0.03333 0,-0.06747 0,-0.09525 0.0279,0 0.0619,0 0.0953,0 -0.0333,0.0279 -0.0675,0.06192 -0.0953,0.09525 z"
       fill="#2B3D29"
       clip-rule="evenodd"
       fill-rule="evenodd"
       style="stroke-width:0.79374999" />
    <path
       inkscape:connector-curvature="0"
       id="path48"
       d="m 147.23244,69.4307 c 0,0.0285 0,0.06192 0,0.09525 -0.05,-0.0279 -0.05,-0.0279 0,-0.09525 z"
       fill="#19291F"
       clip-rule="evenodd"
       fill-rule="evenodd"
       style="stroke-width:0.79374999" />
    <path
       inkscape:connector-curvature="0"
       id="path50"
       d="m 147.88808,66.818468 c 0.53737,-0.660399 0.87789,-0.671511 1.67799,-0.464343 0.0619,0.12303 0.12303,0.24687 0.18495,0.369093 -0.012,0.352425 0.15081,0.48657 -0.24684,0.27465 -0.62072,0.10557 -2.19314,0.485775 -1.61608,-0.1794 z"
       clip-rule="evenodd"
       fill-rule="evenodd"
       style="stroke-width:0.79374999" />
    <path
       inkscape:connector-curvature="0"
       id="path54"
       d="m 146.23152,69.761693 c 0.2016,-0.1905 0.56515,0.11748 0.57071,0.324645 0.006,0.2016 -0.18414,0.26352 -0.41354,0.26352 -0.22938,0 -0.41355,-0.11748 -0.41355,-0.26352 -0.002,-0.15162 0.0548,-0.13494 0.25638,-0.324645 z"
       fill="#FFFFFF"
       clip-rule="evenodd"
       fill-rule="evenodd"
       style="stroke-width:0.79374999" />
    <path
       inkscape:connector-curvature="0"
       id="path56"
       d="m 144.45114,68.894126 c 0,-0.884238 0.46434,-1.930401 1.45494,-1.930401 h 0.0333 c 0.39767,0.09525 0.78899,-0.03333 1.14697,0.1794 0.31909,0.1905 0.5596,0.755649 -0.0389,0.559593 -0.35798,-0.11748 -0.43656,-0.22383 -0.85645,-0.22383 -0.45244,0 -0.77232,0.738189 -1.03505,0.996156 -0.0945,0.10002 -0.70485,1.085058 -0.70485,0.4191 z"
       clip-rule="evenodd"
       fill-rule="evenodd"
       style="stroke-width:0.79374999" />
  </g>
  <g
     inkscape:groupmode="layer"
     id="layer2"
     inkscape:label="green"
     style="display:inline"
     transform="translate(-34.841604,-42.232422)">
    <path
       inkscape:connector-curvature="0"
       id="path10"
       d="m 135.78784,99.394536 c -0.37545,-0.37465 -0.58183,-0.855665 -0.93425,-1.213643 -0.35243,-1.158082 -6.51986,-7.403309 -6.99531,-7.476335 v -0.08889 -0.09525 h 0.0945 c 0.0285,-0.03333 0.0619,-0.06747 0.0952,-0.09525 h 0.0897 0.0944 c 0.0279,-0.03333 0.0619,-0.06111 0.0953,-0.08889 1.01838,0 2.22726,-0.839787 3.16706,-0.839787 h 0.0952 c 0.30241,0.302421 0.81676,0.531813 1.21364,0.928689 0.0285,0.0279 0.0563,0.06192 0.0897,0.09525 v 0 c 0,0 0.54769,5.036346 1.95897,6.446046 0.22306,0.28497 1.01759,1.824831 1.02951,2.428875 -0.0317,-7.94e-4 -0.0659,-7.94e-4 -0.0937,-7.94e-4 z"
       fill="#B2CE3E"
       clip-rule="evenodd"
       fill-rule="evenodd"
       style="stroke-width:0.79374999"
       sodipodi:nodetypes="ccccccccccscccccccc" />
    <path
       sodipodi:nodetypes="cccaaaaac"
       inkscape:connector-curvature="0"
       id="path16"
       d="m 120.15579,90.39633 v -0.09525 h 0.0897 c 1.48273,-1.533525 3.57638,-1.375741 4.47675,-0.18414 0.75624,1.000852 -0.43661,2.561396 -1.1758,3.574904 -0.52346,0.717709 -1.36771,1.156938 -2.15609,1.566294 -0.83763,0.43493 -1.93345,1.495072 -2.67905,0.91639 -0.90112,-0.699387 -0.0346,-2.312011 0.26945,-3.411422 0.23478,-0.848936 1.17504,-2.366776 1.17504,-2.366776 z"
       fill="#B2CE3E"
       clip-rule="evenodd"
       fill-rule="evenodd"
       style="stroke-width:0.79374999" />
    <path
       inkscape:connector-curvature="0"
       id="path44"
       d="m 148.31651,70.756032 c 1.43272,-1.717677 3.52028,-2.809083 4.6609,-4.952208 0.0168,-0.14526 0.31909,-0.699294 0.55959,-0.464343 0.80646,0.805656 2.19393,-0.14604 1.90263,-0.839787 -0.0396,-0.0897 -0.14604,-0.2913 -0.20718,-0.369096 -0.0786,-0.11193 -0.2016,-0.22383 -0.2016,-0.380205 0.45322,0 0.86203,-0.27939 1.30414,-0.27939 0.43656,1.057275 0.55404,0.962025 1.32078,0.973929 0.0723,0 0.38022,-0.2016 0.54294,-0.414336 0,0.15636 0.2682,0.934242 -0.0897,0.934242 -0.49767,0.414339 -2.89798,0.577059 -2.89798,1.656558 -0.43101,2.305842 -2.54635,3.150393 -4.62836,4.062411 -1.50495,0.659607 -2.88131,0.586584 -2.26615,0.07224 z"
       fill="#B2CE3E"
       clip-rule="evenodd"
       fill-rule="evenodd"
       style="stroke-width:0.79374999" />
    <path
       sodipodi:nodetypes="ccscccccccccacccccccccccccccccccccccccccccccccccccccccccsccc"
       inkscape:connector-curvature="0"
       id="path52"
       d="m 142.74835,72.994407 c -0.006,0.503235 -0.40323,0.973929 -0.85645,1.33191 -0.26829,0.21828 -0.55325,0.464346 -0.8001,0.464346 -0.75565,0 0.69928,1.466055 0.8501,1.561305 0.48101,0.31353 1.05251,0.58182 1.54463,0.8001 0.48658,0.21273 0.89535,0.380205 0.86758,1.012824 l -0.12858,2.87655 c 1.7399,2.76384 3.52028,6.45795 1.76848,8.85825 -0.18973,0.26274 -0.47071,0.486569 -0.69931,0.715966 -0.5818,0.592928 -1.39381,1.069178 -2.30583,1.354137 -0.48101,0.15081 -1.31445,0.357981 -1.62242,0.469897 -0.27465,0.106352 -0.59928,0.28575 -0.61516,0.604841 0,0 -0.003,0.59583 -0.0452,0.889793 -0.0685,0.476608 -0.15637,1.0414 -0.33577,1.404935 -0.51513,1.051722 -0.99614,1.571625 -0.35797,2.534447 0.18969,0.296849 0.45244,0.431006 0.68817,0.638175 0.34688,0.307975 0.69931,0.638175 1.16364,0.744537 0.4707,0.106349 1.07474,-0.4699 1.651,-1.108075 0.4191,-0.464346 0.98425,-0.93504 1.11284,-1.208884 0.62151,-1.32556 1.29857,-2.456653 1.60576,-3.911597 0.1905,-0.89535 0.42545,-1.897065 0.70009,-2.847978 0.64849,-2.29473 0.48657,-4.756944 0.87789,-7.09533 l 0.49847,-2.959893 c 0.2175,-1.298577 0.97394,-2.697165 1.65656,-3.816351 0.21273,-0.341313 0.45244,-0.682626 1.15253,-0.912018 1.07473,-0.352425 2.54555,-0.407988 3.65918,-0.497682 0.48657,-0.03891 0.98504,0.0279 1.46051,-0.10635 0.7215,-0.21273 1.72956,-0.12858 2.45109,-0.369093 0.2016,-0.06666 0.55959,-0.15081 0.68262,-0.2913 0.1398,-0.16194 0.0555,-0.431007 -0.35799,-0.446883 -0.2412,-0.0057 -0.57069,0.335757 -1.42716,0.357981 l -3.86079,0.11748 -5.23795,-0.16272 c -0.0397,0 -0.38576,-0.05556 -0.48101,0 -0.1008,0.05556 -0.21828,0.12858 -0.34132,0.19605 -0.1905,0.1008 -0.12303,0.28497 -0.2913,0.27465 -0.28497,-0.0222 -0.36353,-0.392112 -0.0168,-0.70485 0.50403,-0.447675 1.06918,-1.058067 0.67786,-1.72323 -0.45323,-0.783432 -1.48272,-0.755649 -2.23838,-1.343025 -0.25161,-0.1905 -0.65405,-0.17304 -0.83979,-0.357981 -0.18413,-0.18414 -0.31829,-0.341313 0.0619,-0.475455 0.29608,-0.1008 0.99617,-0.11193 1.32002,-0.25161 0.2913,-0.11748 0.61039,-0.36354 0.67786,-0.503238 0.17937,-0.357981 1.90262,-1.192212 2.01454,-0.917577 0.0111,0.0168 0.0111,0.15636 -0.0611,0.25161 -0.25242,0.341313 -0.84534,0.939801 -0.16272,0.856458 0.88979,-0.11193 1.36604,-0.968376 1.34858,-1.66767 -0.0222,-1.130298 0.38021,-0.873123 0.59293,-0.341313 0.0222,0.04446 0.14604,0.16749 0.1794,0.09525 0,-0.0057 0.55404,-0.07302 0.34766,-0.604836 -0.0952,-0.24606 -0.52625,-0.27384 -0.94059,-0.20718 -0.29052,0.04524 -0.63262,-0.16749 -0.9406,0.11748 -0.25719,0.22938 -0.28497,-0.20718 -0.49768,-0.363537 -0.56594,-0.403227 -1.48352,-0.688182 -1.9812,-0.11748 -0.13971,0.15636 -0.66595,-0.0111 -0.84455,0.05001 -0.44211,0.145261 -0.67151,0.436563 -0.7493,1.069179 -0.12858,1.018384 -0.50403,1.992315 -1.86372,1.992315 -1.27079,0 -1.44383,0.576261 -1.29858,1.634332 0.26829,0.565944 0.52547,1.422398 0.58738,2.03835 z"
       fill="#B2CE3E"
       clip-rule="evenodd"
       fill-rule="evenodd"
       style="stroke-width:0.79374999" />
    <path
       sodipodi:nodetypes="acscassssscacca"
       inkscape:connector-curvature="0"
       id="path58"
       d="m 78.682863,94.943133 c 1.059562,-0.82096 2.305847,-1.62243 3.502822,-1.97486 2.053431,-0.61039 5.019675,2.8202 7.454106,2.8202 2.652712,0 4.133534,-4.633949 5.49878,-6.161919 2.197441,-1.408702 4.662194,2.496258 7.211709,2.55365 1.55311,0.03496 2.62152,0.07398 4.45877,-1.356361 0.84213,-0.655617 1.15185,0.901444 3.02917,0.161181 0.56596,-0.223166 1.55162,0.568762 1.39856,1.980836 -0.15823,1.459779 -1.3686,2.376003 -2.33006,3.329377 -2.68188,2.659295 -2.8618,-1.669241 -6.9395,-1.883285 -2.835959,-0.148864 -4.179561,0.424812 -7.850663,1.202692 -2.126457,0.45244 -2.676052,1.017374 -4.076124,1.275594 -1.695628,0.31273 -5.162904,0.317812 -5.162904,0.317812 -0.923925,-0.0389 -7.300602,-0.31909 -7.446655,-0.96282 0,0 0.776021,-0.933312 1.251989,-1.302097 z"
       fill="#B2CE3E"
       clip-rule="evenodd"
       fill-rule="evenodd"
       style="stroke-width:0.79374999" />
    <path
       sodipodi:nodetypes="accsccaaa"
       inkscape:connector-curvature="0"
       id="path60"
       d="m 44.13195,90.104798 c -1.63131,-0.357209 -3.155949,1.231107 -4.163217,2.786857 -0.788988,1.208087 -0.962025,2.753518 0.03888,3.749675 0.70485,0.711197 2.316162,1.600991 3.346452,1.600991 1.197768,0 3.48615,0.280201 6.748461,-1.069179 -2.120898,0 -2.9718,0.167489 -4.986336,-0.481012 -1.035051,-0.330203 -1.75385,-1.811941 -1.705565,-2.945455 0.03896,-0.914712 1.545911,-1.336114 1.573487,-2.25124 0.01637,-0.543409 -0.321089,-1.274348 -0.852162,-1.390637 z"
       fill="#B2CE3E"
       clip-rule="evenodd"
       fill-rule="evenodd"
       style="stroke-width:0.79374999" />
    <path
       sodipodi:nodetypes="accccaacaaa"
       inkscape:connector-curvature="0"
       id="path62"
       d="m 49.026235,88.560681 c 0.930259,-0.419333 3.044031,-0.32385 3.044031,-0.32385 2.344737,2.34474 5.752112,2.174963 8.5223,1.235163 0.357981,-0.123031 1.779781,1.758863 4.208656,2.648663 1.656558,0.61515 3.81635,0.18413 6.306344,-0.89535 0,0 1.095407,1.05036 1.071614,1.7276 -0.02142,0.60975 -0.500772,1.268503 -1.071614,1.48391 -3.439089,1.297741 -6.286994,-1.232608 -10.752629,-2.446258 -4.756152,-1.287459 -8.1153,1.214592 -11.400933,-0.709712 -0.571244,-0.334562 -1.161941,-1.01188 -1.077282,-1.668451 0.06642,-0.515082 0.676047,-0.83829 1.149513,-1.051715 z"
       fill="#B2CE3E"
       clip-rule="evenodd"
       fill-rule="evenodd"
       style="stroke-width:0.79374999" />
  </g>
</svg>
