<?xml version="1.0" encoding="UTF-8" standalone="no"?>
<!-- Created with Inkscape (http://www.inkscape.org/) -->

<svg
   xmlns:dc="http://purl.org/dc/elements/1.1/"
   xmlns:cc="http://creativecommons.org/ns#"
   xmlns:rdf="http://www.w3.org/1999/02/22-rdf-syntax-ns#"
   xmlns:svg="http://www.w3.org/2000/svg"
   xmlns="http://www.w3.org/2000/svg"
   xmlns:sodipodi="http://sodipodi.sourceforge.net/DTD/sodipodi-0.dtd"
   xmlns:inkscape="http://www.inkscape.org/namespaces/inkscape"
   width="172.17578mm"
   height="74.779366mm"
   viewBox="0 0 172.17578 74.779363"
   version="1.1"
   id="svg4337"
   inkscape:version="0.92+devel unknown"
   sodipodi:docname="logo-v1.svg">
  <defs
     id="defs4331" />
  <sodipodi:namedview
     id="base"
     pagecolor="#ffffff"
     bordercolor="#666666"
     borderopacity="1.0"
     inkscape:pageopacity="0.0"
     inkscape:pageshadow="2"
     inkscape:zoom="3.0417062"
     inkscape:cx="324.95157"
     inkscape:cy="139.63543"
     inkscape:document-units="mm"
     inkscape:current-layer="layer3"
     inkscape:document-rotation="0"
     showgrid="true"
     fit-margin-top="10"
     fit-margin-left="10"
     fit-margin-bottom="10"
     fit-margin-right="10"
     inkscape:window-width="1920"
     inkscape:window-height="1007"
     inkscape:window-x="0"
     inkscape:window-y="0"
     inkscape:window-maximized="1"
     inkscape:lockguides="true"
     showguides="false" />
  <metadata
     id="metadata4334">
    <rdf:RDF>
      <cc:Work
         rdf:about="">
        <dc:format>image/svg+xml</dc:format>
        <dc:type
           rdf:resource="http://purl.org/dc/dcmitype/StillImage" />
        <dc:title />
      </cc:Work>
    </rdf:RDF>
  </metadata>
  <g
     inkscape:label="Layer 1"
     inkscape:groupmode="layer"
     id="layer1"
     transform="translate(-47.154524,-45.910248)"
     style="display:inline">
    <text
       xml:space="preserve"
       style="font-style:normal;font-variant:normal;font-weight:normal;font-stretch:normal;font-size:50.79999924px;line-height:12.60999966px;font-family:'Liberation Sans';-inkscape-font-specification:'Liberation Sans';writing-mode:lr-tb;opacity:0.98999999;fill:#000000;fill-rule:evenodd;stroke-width:5.29166651;stroke-linecap:round;stroke-linejoin:bevel;stroke-opacity:0.39314521;paint-order:markers stroke fill"
       x="58.964287"
       y="91.380951"
       id="text4884"><tspan
         sodipodi:role="line"
         id="tspan4882"
         x="58.964287"
         y="91.380951"
         style="font-style:normal;font-variant:normal;font-weight:normal;font-stretch:normal;font-family:'Liberation Sans';-inkscape-font-specification:'Liberation Sans';stroke-width:5.29166651">SPICE</tspan></text>
  </g>
  <g
     inkscape:groupmode="layer"
     id="layer3"
     inkscape:label="Layer 3"
     transform="translate(-34.841604,-42.232422)">
    <path
       inkscape:connector-curvature="0"
       id="path4"
       d="m 145.76718,66.44858 c -0.006,0.0054 -0.012,0.0111 -0.0168,0.0168 z m -0.0231,0.0222 c -0.0168,0.012 -0.0333,0.0279 -0.05,0.04524 z m -0.05,0.04524 c -0.006,0.0111 -0.0168,0.0168 -0.0222,0.0222 z m 0.0556,-0.11748 c -0.0889,0.15081 -0.0953,0.16272 -0.1008,0.16749 -0.78899,0.727869 0.70564,0.973932 2.11534,0.873126 0.71597,-0.05001 1.3597,-0.82788 1.77959,-0.369093 0.43021,0.469899 0.69374,0.475455 0.76676,0.0279 0.6993,-1.023939 0.6993,-1.023939 1.86373,-3.17262 0.88979,-0.442119 1.97484,0.0057 2.56302,-0.671511 0.1953,-0.23496 0.0954,-0.15636 0.50958,-0.25161 1.0914,-0.26352 0.88425,0.324645 1.70655,0.519906 0.39132,-0.21828 0.34689,-0.547686 0.2349,-0.699294 -0.285,-0.363537 -0.94059,-0.301626 -1.35411,-0.0897 0.2184,-0.385761 0.4191,-0.547686 0.65403,-0.565149 0.2301,-0.0168 0.47625,0.03888 0.80091,0.22938 0.1794,0.10635 0.2238,0.16749 0.285,0.369096 0.021,0.06747 0.039,0.13413 0.0555,0.2016 0.2073,0.957261 0.021,2.4003 -0.1842,3.290886 -0.2016,0.526257 -0.40323,1.057275 -0.60486,1.589088 -0.2175,0.06192 -0.43656,0.12303 -0.65403,0.18495 -0.0342,-0.497679 -0.0675,-0.996156 -0.0954,-1.49463 -0.012,-0.05001 -0.0501,-0.10002 -0.1008,-0.11193 -0.1404,-0.04524 -0.162,-0.04524 -0.2238,-0.0279 -0.63819,0.816768 0.123,2.282826 -1.35414,2.473326 -0.0501,-0.15636 -0.0945,-0.313533 -0.1398,-0.464346 -1.67878,2.053431 -4.03463,3.038475 -6.38493,4.247358 h 0.3691 c 2.60747,-1.304133 5.11492,-1.174752 8.024,-1.309689 1.70181,-0.2802 2.73051,-0.772317 3.91797,-1.958973 0.1842,0 0.1842,0 0.39132,0.11271 0.018,0.324642 -0.0444,0.453231 -0.2073,0.777081 h -0.1842 v 0.18495 c -0.0729,0.0222 -0.1461,0.04524 -0.2127,0.06666 -0.0396,0.11748 -0.0795,0.23496 -0.1176,0.352425 0.039,0.06669 0.0786,0.13416 0.1176,0.20718 0.43101,-0.12303 0.88899,-0.25161 1.35333,0 -0.012,0.13416 -0.018,0.26829 -0.021,0.403224 -1.10331,0.39132 -2.12724,0.04446 -3.1734,0.04446 -2.02011,0.8001 -4.55454,0.481014 -6.71513,0.744537 -1.39858,0.369093 -2.5011,1.085058 -3.91715,1.169193 v 0.18414 c 3.08371,0.25719 6.19522,0.375444 9.32815,0.09525 0.2184,-0.839787 0.0897,-1.007268 0.92949,-1.119186 0.0888,0.18495 0.1842,0.369093 0.2802,0.559593 0.1563,0.0279 0.31353,0.06192 0.46989,0.09525 0.1626,-0.453231 0.1905,-0.554037 0.64848,-0.654843 0.018,0.856455 0.1176,1.483518 -0.1842,2.333625 -2.71938,0.939801 -5.47289,0.77232 -8.20895,1.258887 -2.05978,0.67707 -2.29473,2.68605 -2.77574,4.555332 -0.35,7.246535 0.0247,5.096642 -1.15805,11.576387 -0.61443,3.366234 -2.57095,7.036101 -5.61904,8.591144 -1.90217,0.97043 -3.8109,1.75035 -6.39882,-0.30786 -2.27727,-1.656559 -2.95923,-3.231242 -4.61203,-4.66174 -1.11181,-0.962272 -2.12884,-2.237498 -3.54849,-2.6205 -1.4817,-0.399743 -3.12625,-3.54e-4 -4.57668,0.501138 -2.02833,0.701304 -3.66758,2.231221 -5.46622,3.402054 -1.37071,0.892268 -2.64714,1.930582 -4.05684,2.759865 -3.38813,1.993123 -6.83104,3.982623 -10.53467,5.299863 -1.54143,0.54823 -3.170042,0.84892 -4.792619,1.05817 -2.495596,0.32185 -4.901175,0.53699 -7.542991,0.29592 -3.296442,-0.31908 -6.516111,-0.70019 -9.742488,-1.25968 -1.48222,-0.25703 -2.967924,-0.53135 -4.409286,-0.96207 -7.24597,-1.54932 -14.470857,-4.868861 -22.031325,-2.95989 0,0 -1.304931,0.53355 -1.567033,1.11957 -0.173067,0.38695 -0.117115,0.92609 0.138706,1.26408 0.333503,0.44062 1.006527,0.46637 1.536904,0.62153 1.841543,0.80565 5.969786,0.001 7.652711,1.97004 0.732187,0.85657 -2.266213,-0.24552 -3.379788,-0.073 -1.038268,0.16085 -1.258887,0.45879 -2.982912,1.01838 -0.682626,0.2175 -1.208883,0.33576 -1.924845,0.40243 -3.278982,0.31909 -7.28583,0.11271 -8.192292,-3.14484 -0.313533,-1.1303 -0.19605,-1.95262 0.324642,-2.99878 0.939801,-1.891507 2.929697,-3.016957 4.787988,-3.904638 1.108276,-0.529409 2.378929,-0.702553 3.605913,-0.75784 7.386915,-0.332846 14.762729,1.233359 22.031325,2.591595 1.255076,0.234528 2.465603,0.666593 3.709065,0.956453 1.111588,0.25913 2.232819,0.46434 3.352005,0.6993 4.207668,0.58181 8.192295,0.73898 12.406314,-0.27939 0.867567,-0.29685 1.753314,-0.558 2.613024,-0.88424 1.198167,-0.454665 2.388872,-0.935764 3.542502,-1.49385 2.36171,-1.142514 4.62756,-2.456658 6.89928,-3.787776 4.2918,-3.078162 2.99711,-2.196951 4.49897,-3.290889 1.35029,-0.983528 2.59475,-2.134316 4.05679,-2.942415 2.44886,-1.353534 6.96318,-2.379746 9.32296,-2.097942 2.35978,0.281804 2.9588,0.947134 4.27002,1.751883 1.00553,0.617138 1.60746,1.820925 2.68049,2.311398 1.14156,0.521798 2.54189,0.965121 3.72549,0.547355 2.34278,-0.826915 4.0545,-3.200508 5.0602,-5.472282 0.69274,-1.564839 0.89778,-3.463485 0.44726,-5.114438 -0.54603,-2.000946 -1.8407,-2.271711 -3.61553,-5.064123 -1.00727,-2.199483 -0.80566,-4.482306 0.92393,-5.920584 0.53736,-0.447675 0.64849,-0.363537 1.31445,-0.40878 4.38705,-0.2802 1.68989,-2.965449 4.80695,-2.965449 0.0873,0.04047 0.18255,0.08574 0.19368,0.27624 z"
       clip-rule="evenodd"
       fill-rule="evenodd"
       style="stroke-width:0.79374999"
       sodipodi:nodetypes="cccccccccccccccccccccccccccccccccccccccccccccccccccccccccsacaaaaaaacaccaacsaccccaaaaccaacaszaaaaacccccc" />
    <path
       inkscape:connector-curvature="0"
       id="path30"
       d="m 157.40037,74.758349 c 0.027,-0.03333 0.0555,-0.06666 0.0897,-0.09525 0,0.0279 0,0.06192 0,0.09525 -0.0342,0 -0.0618,0 -0.0897,0 z"
       fill="#A6C53D"
       clip-rule="evenodd"
       fill-rule="evenodd"
       style="stroke-width:0.79374999" />
    <path
       inkscape:connector-curvature="0"
       id="path32"
       d="m 157.49007,74.758349 c 0,-0.03333 0,-0.06666 0,-0.09525 0.027,0 0.0612,0 0.0945,0 0,0.0279 0,0.06192 0,0.09525 -0.0333,0 -0.0666,0 -0.0945,0 z"
       fill="#52773E"
       clip-rule="evenodd"
       fill-rule="evenodd"
       style="stroke-width:0.79374999" />
    <path
       inkscape:connector-curvature="0"
       id="path34"
       d="m 157.58454,74.758349 c 0,-0.03333 0,-0.06666 0,-0.09525 0.027,0 0.0618,0 0.0954,0 -0.0333,0.0279 -0.0675,0.06192 -0.0954,0.09525 z"
       fill="#2B3D29"
       clip-rule="evenodd"
       fill-rule="evenodd"
       style="stroke-width:0.79374999" />
    <path
       inkscape:connector-curvature="0"
       id="path36"
       d="m 157.77027,74.663099 c 0.027,-0.03333 0.0612,-0.06666 0.0954,-0.09525 0,0.0279 0,0.06111 0,0.09525 -0.0342,0 -0.0675,0 -0.0954,0 z"
       fill="#688F42"
       clip-rule="evenodd"
       fill-rule="evenodd"
       style="stroke-width:0.79374999" />
    <path
       inkscape:connector-curvature="0"
       id="path38"
       d="m 157.86552,74.663099 c 0,-0.03333 0,-0.06666 0,-0.09525 0.027,0 0.0612,0 0.0945,0 -0.0333,0.0285 -0.0666,0.06192 -0.0945,0.09525 z"
       fill="#2B3D29"
       clip-rule="evenodd"
       fill-rule="evenodd"
       style="stroke-width:0.79374999" />
    <path
       inkscape:connector-curvature="0"
       id="path40"
       d="m 158.14413,74.47895 c 0,-0.03333 0,-0.06747 0,-0.09525 0.03,0 0.0618,0 0.0954,0 -0.0327,0.0279 -0.066,0.06111 -0.0954,0.09525 z"
       fill="#405E36"
       clip-rule="evenodd"
       fill-rule="evenodd"
       style="stroke-width:0.79374999" />
    <path
       inkscape:connector-curvature="0"
       id="path42"
       d="m 158.14413,74.3837 c 0,-0.03333 0,-0.06666 0,-0.09525 0.03,0.0279 0.0618,0.06192 0.0954,0.09525 -0.0327,0 -0.066,0 -0.0954,0 z"
       fill="#1F3425"
       clip-rule="evenodd"
       fill-rule="evenodd"
       style="stroke-width:0.79374999" />
    <path
       inkscape:connector-curvature="0"
       id="path46"
       d="m 147.51264,69.71645 c 0,-0.03333 0,-0.06747 0,-0.09525 0.0279,0 0.0619,0 0.0953,0 -0.0333,0.0279 -0.0675,0.06192 -0.0953,0.09525 z"
       fill="#2B3D29"
       clip-rule="evenodd"
       fill-rule="evenodd"
       style="stroke-width:0.79374999" />
    <path
       inkscape:connector-curvature="0"
       id="path48"
       d="m 147.23244,69.4307 c 0,0.0285 0,0.06192 0,0.09525 -0.05,-0.0279 -0.05,-0.0279 0,-0.09525 z"
       fill="#19291F"
       clip-rule="evenodd"
       fill-rule="evenodd"
       style="stroke-width:0.79374999" />
    <path
       inkscape:connector-curvature="0"
       id="path50"
       d="m 147.88808,66.818468 c 0.53737,-0.660399 0.87789,-0.671511 1.67799,-0.464343 0.0619,0.12303 0.12303,0.24687 0.18495,0.369093 -0.012,0.352425 0.15081,0.48657 -0.24684,0.27465 -0.62072,0.10557 -2.19314,0.485775 -1.61608,-0.1794 z"
       clip-rule="evenodd"
       fill-rule="evenodd"
       style="stroke-width:0.79374999" />
    <path
       inkscape:connector-curvature="0"
       id="path54"
       d="m 146.23152,69.761693 c 0.2016,-0.1905 0.56515,0.11748 0.57071,0.324645 0.006,0.2016 -0.18414,0.26352 -0.41354,0.26352 -0.22938,0 -0.41355,-0.11748 -0.41355,-0.26352 -0.002,-0.15162 0.0548,-0.13494 0.25638,-0.324645 z"
       fill="#FFFFFF"
       clip-rule="evenodd"
       fill-rule="evenodd"
       style="stroke-width:0.79374999" />
    <path
       inkscape:connector-curvature="0"
       id="path56"
       d="m 144.45114,68.894126 c 0,-0.884238 0.46434,-1.930401 1.45494,-1.930401 h 0.0333 c 0.39767,0.09525 0.78899,-0.03333 1.14697,0.1794 0.31909,0.1905 0.5596,0.755649 -0.0389,0.559593 -0.35798,-0.11748 -0.43656,-0.22383 -0.85645,-0.22383 -0.45244,0 -0.77232,0.738189 -1.03505,0.996156 -0.0945,0.10002 -0.70485,1.085058 -0.70485,0.4191 z"
       clip-rule="evenodd"
       fill-rule="evenodd"
       style="stroke-width:0.79374999" />
  </g>
  <g
     inkscape:groupmode="layer"
     id="layer2"
     inkscape:label="Layer 2"
     style="display:inline"
     transform="translate(-34.841604,-42.232422)">
    <g
       id="g5270"
       transform="translate(20.001454,19.556976)">
      <path
         style="stroke-width:0.79374999"
         fill-rule="evenodd"
         clip-rule="evenodd"
         fill="#B2CE3E"
         d="m 113.85531,77.443607 c -2.22981,-2.577248 -7.19419,-5.669553 -7.12049,-7.336677 0.0275,-0.622788 1.73755,-0.891346 3.56114,-1.267643 0.53091,0.297509 1.08417,0.935383 1.50904,1.369138 0.41676,2.314393 1.09348,4.128229 2.04867,6.020765 0.29191,0.578361 0.90209,1.177407 1.10836,1.596536 0.61739,1.254516 0.36836,1.244997 -1.10636,-0.382119 z"
         id="path10"
         inkscape:connector-curvature="0"
         sodipodi:nodetypes="csccascc" />
      <path
         style="stroke-width:0.79374999"
         fill-rule="evenodd"
         clip-rule="evenodd"
         fill="#B2CE3E"
         d="m 97.912049,69.878373 v -0.09525 h 0.0897 c 1.482728,-1.533525 3.576381,-1.375741 4.476751,-0.18414 0.75624,1.000852 -0.43661,2.561396 -1.1758,3.574904 -0.52346,0.717709 -1.367713,1.156938 -2.156091,1.566294 -0.83763,0.43493 -1.933456,1.495072 -2.679053,0.91639 -0.901118,-0.699387 -0.03462,-2.312011 0.269445,-3.411422 0.234788,-0.848936 1.175048,-2.366776 1.175048,-2.366776 z"
         id="path16"
         inkscape:connector-curvature="0"
         sodipodi:nodetypes="cccaaaaac" />
      <path
         style="stroke-width:0.79374999"
         fill-rule="evenodd"
         clip-rule="evenodd"
         fill="#B2CE3E"
         d="m 128.31506,51.199056 c 1.43272,-1.717677 3.52028,-2.809083 4.6609,-4.952208 0.0168,-0.14526 0.31909,-0.699294 0.55959,-0.464343 0.80646,0.805656 2.19393,-0.14604 1.90263,-0.839787 -0.0396,-0.0897 -0.14604,-0.2913 -0.20718,-0.369096 -0.0786,-0.11193 -0.2016,-0.22383 -0.2016,-0.380205 0.45322,0 0.86203,-0.27939 1.30414,-0.27939 0.43656,1.057275 0.55404,0.962025 1.32078,0.973929 0.0723,0 0.38022,-0.2016 0.54294,-0.414336 0,0.15636 0.2682,0.934242 -0.0897,0.934242 -0.49767,0.414339 -2.89798,0.577059 -2.89798,1.656558 -0.43101,2.305842 -2.54635,3.150393 -4.62836,4.062411 -1.50495,0.659607 -2.88131,0.586584 -2.26615,0.07224 z"
         id="path44"
         inkscape:connector-curvature="0" />
      <path
         style="stroke-width:0.79374999"
         fill-rule="evenodd"
         clip-rule="evenodd"
         fill="#B2CE3E"
         d="m 122.7469,53.437431 c -0.006,0.503235 -0.40323,0.973929 -0.85645,1.33191 -0.26829,0.21828 -0.55325,0.464346 -0.8001,0.464346 -0.75565,0 0.69928,1.466055 0.8501,1.561305 0.48101,0.31353 1.05251,0.58182 1.54463,0.8001 0.48658,0.21273 0.89535,0.380205 0.86758,1.012824 l -0.12858,2.87655 c 1.7399,2.76384 3.52028,6.45795 1.76848,8.85825 -0.18973,0.26274 -0.47071,0.486569 -0.69931,0.715966 -0.5818,0.592928 -1.39381,1.069178 -2.30583,1.354137 -0.48101,0.15081 -1.31445,0.357981 -1.62242,0.469897 -0.27465,0.106352 -0.59928,0.28575 -0.61516,0.604841 0,0 -0.003,0.59583 -0.0452,0.889793 -0.0685,0.476608 -0.15637,1.0414 -0.33577,1.404935 -0.51513,1.051722 -0.99614,1.571625 -0.35797,2.534447 0.18969,0.296849 0.45244,0.431006 0.68817,0.638175 0.34688,0.307975 0.69931,0.638175 1.16364,0.744537 0.4707,0.106349 1.07474,-0.4699 1.651,-1.108075 0.4191,-0.464346 0.98425,-0.93504 1.11284,-1.208884 0.62151,-1.32556 1.29857,-2.456653 1.60576,-3.911597 0.1905,-0.89535 0.42545,-1.897065 0.70009,-2.847978 0.64849,-2.29473 0.48657,-4.756944 0.87789,-7.09533 l 0.49847,-2.959893 c 0.2175,-1.298577 0.97394,-2.697165 1.65656,-3.816351 0.21273,-0.341313 0.45244,-0.682626 1.15253,-0.912018 1.07473,-0.352425 2.54555,-0.407988 3.65918,-0.497682 0.48657,-0.03891 0.98504,0.0279 1.46051,-0.10635 0.7215,-0.21273 1.72956,-0.12858 2.45109,-0.369093 0.2016,-0.06666 0.55959,-0.15081 0.68262,-0.2913 0.1398,-0.16194 0.0555,-0.431007 -0.35799,-0.446883 -0.2412,-0.0057 -0.57069,0.335757 -1.42716,0.357981 l -3.86079,0.11748 -5.23795,-0.16272 c -0.0397,0 -0.38576,-0.05556 -0.48101,0 -0.1008,0.05556 -0.21828,0.12858 -0.34132,0.19605 -0.1905,0.1008 -0.12303,0.28497 -0.2913,0.27465 -0.28497,-0.0222 -0.36353,-0.392112 -0.0168,-0.70485 0.50403,-0.447675 1.06918,-1.058067 0.67786,-1.72323 -0.45323,-0.783432 -1.48272,-0.755649 -2.23838,-1.343025 -0.25161,-0.1905 -0.65405,-0.17304 -0.83979,-0.357981 -0.18413,-0.18414 -0.31829,-0.341313 0.0619,-0.475455 0.29608,-0.1008 0.99617,-0.11193 1.32002,-0.25161 0.2913,-0.11748 0.61039,-0.36354 0.67786,-0.503238 0.17937,-0.357981 1.90262,-1.192212 2.01454,-0.917577 0.0111,0.0168 0.0111,0.15636 -0.0611,0.25161 -0.25242,0.341313 -0.84534,0.939801 -0.16272,0.856458 0.88979,-0.11193 1.36604,-0.968376 1.34858,-1.66767 -0.0222,-1.130298 0.38021,-0.873123 0.59293,-0.341313 0.0222,0.04446 0.14604,0.16749 0.1794,0.09525 0,-0.0057 0.55404,-0.07302 0.34766,-0.604836 -0.0952,-0.24606 -0.52625,-0.27384 -0.94059,-0.20718 -0.29052,0.04524 -0.63262,-0.16749 -0.9406,0.11748 -0.25719,0.22938 -0.28497,-0.20718 -0.49768,-0.363537 -0.56594,-0.403227 -1.48352,-0.688182 -1.9812,-0.11748 -0.13971,0.15636 -0.66595,-0.0111 -0.84455,0.05001 -0.44211,0.145261 -0.67151,0.436563 -0.7493,1.069179 -0.12858,1.018384 -0.50403,1.992315 -1.86372,1.992315 -1.27079,0 -1.44383,0.576261 -1.29858,1.634332 0.26829,0.565944 0.52547,1.422398 0.58738,2.03835 z"
         id="path52"
         inkscape:connector-curvature="0"
         sodipodi:nodetypes="ccscccccccccacccccccccccccccccccccccccccccccccccccccccccsccc" />
      <path
         style="stroke-width:0.79374999"
         fill-rule="evenodd"
         clip-rule="evenodd"
         fill="#B2CE3E"
         d="m 63.486315,84.8358 c 1.07474,-0.576265 2.305847,-1.622427 3.502822,-1.974852 2.053431,-0.610391 5.019675,2.820196 7.454106,2.820196 2.652712,0 4.795837,-3.166269 6.161087,-4.694237 0.89535,-1.008066 3.5814,0.8001 5.803107,0.8001 1.7907,0 2.770187,-1.634332 3.436143,-3.223422 0.5207,-1.242219 0.257972,-3.872703 1.577975,-3.609975 0,0 1.751356,0.06227 2.473325,0.492919 0.456823,0.272493 0.953281,0.700893 1.018017,1.22886 0.09173,0.748127 -0.979107,2.038215 -0.979107,2.038215 -0.788988,0.812006 -3.771106,2.188371 -4.845846,2.9718 -2.031204,1.482728 -6.496842,3.044034 -10.167935,3.821906 -2.126457,0.45244 -3.838575,0.525463 -5.036344,0.475459 L 69.53074,85.79863 c -0.923925,-0.03888 -5.898356,-0.319088 -6.044409,-0.962816 z"
         id="path58"
         inkscape:connector-curvature="0"
         sodipodi:nodetypes="ccscsccaaccccccc" />
      <path
         style="stroke-width:0.79374999"
         fill-rule="evenodd"
         clip-rule="evenodd"
         fill="#B2CE3E"
         d="m 31.337854,78.876325 c -1.63131,-0.357209 -3.155949,1.231107 -4.163217,2.786857 -0.788988,1.208087 -0.962025,2.753518 0.03888,3.749675 0.70485,0.711197 2.316162,1.600991 3.346452,1.600991 1.197768,0 3.48615,0.280201 6.748461,-1.069179 -2.120898,0 -2.9718,0.167489 -4.986336,-0.481012 -1.035051,-0.330203 -1.339462,-1.738218 -1.335292,-2.760318 0.0037,-0.905756 1.244434,-1.531553 1.203214,-2.436377 -0.02474,-0.543092 -0.321089,-1.274348 -0.852162,-1.390637 z"
         id="path60"
         inkscape:connector-curvature="0"
         sodipodi:nodetypes="accsccaaa" />
      <path
         style="stroke-width:0.79374999"
         fill-rule="evenodd"
         clip-rule="evenodd"
         fill="#B2CE3E"
         d="m 34.790668,77.812698 c 0.930259,-0.419333 3.044031,-0.32385 3.044031,-0.32385 2.344737,2.34474 5.937249,1.712121 8.707437,0.772321 0.357981,-0.123031 1.594644,2.221706 4.023519,3.1115 1.656558,0.615156 3.81635,0.184139 6.306344,-0.89535 0,0 1.095407,1.050362 1.071614,1.7276 -0.02142,0.609756 -0.496302,1.280745 -1.071614,1.483913 -3.473087,1.226501 -6.194426,-1.69545 -10.660061,-2.909094 -4.756152,-1.287463 -8.148111,1.622081 -11.493501,-0.24687 -0.577934,-0.322871 -1.161941,-1.011884 -1.077282,-1.668455 0.06642,-0.515082 0.676047,-0.83829 1.149513,-1.051715 z"
         id="path62"
         inkscape:connector-curvature="0"
         sodipodi:nodetypes="accccaacaaa" />
    </g>
  </g>
</svg>
